%TF.GenerationSoftware,KiCad,Pcbnew,(6.0.0)*%
%TF.CreationDate,2025-06-04T13:55:59+10:00*%
%TF.ProjectId,LED torch,4c454420-746f-4726-9368-2e6b69636164,0.1*%
%TF.SameCoordinates,Original*%
%TF.FileFunction,Legend,Bot*%
%TF.FilePolarity,Positive*%
%FSLAX46Y46*%
G04 Gerber Fmt 4.6, Leading zero omitted, Abs format (unit mm)*
G04 Created by KiCad (PCBNEW (6.0.0)) date 2025-06-04 13:55:59*
%MOMM*%
%LPD*%
G01*
G04 APERTURE LIST*
%ADD10C,0.150000*%
%ADD11C,0.010000*%
%ADD12C,0.120000*%
G04 APERTURE END LIST*
D10*
X151542571Y-109513714D02*
X151304476Y-110180380D01*
X151066380Y-109513714D01*
X150161619Y-110180380D02*
X150733047Y-110180380D01*
X150447333Y-110180380D02*
X150447333Y-109180380D01*
X150542571Y-109323238D01*
X150637809Y-109418476D01*
X150733047Y-109466095D01*
X149733047Y-110085142D02*
X149685428Y-110132761D01*
X149733047Y-110180380D01*
X149780666Y-110132761D01*
X149733047Y-110085142D01*
X149733047Y-110180380D01*
X149066380Y-109180380D02*
X148971142Y-109180380D01*
X148875904Y-109228000D01*
X148828285Y-109275619D01*
X148780666Y-109370857D01*
X148733047Y-109561333D01*
X148733047Y-109799428D01*
X148780666Y-109989904D01*
X148828285Y-110085142D01*
X148875904Y-110132761D01*
X148971142Y-110180380D01*
X149066380Y-110180380D01*
X149161619Y-110132761D01*
X149209238Y-110085142D01*
X149256857Y-109989904D01*
X149304476Y-109799428D01*
X149304476Y-109561333D01*
X149256857Y-109370857D01*
X149209238Y-109275619D01*
X149161619Y-109228000D01*
X149066380Y-109180380D01*
%TO.C,D1*%
X103172380Y-113657142D02*
X103172380Y-113180952D01*
X102172380Y-113180952D01*
X102648571Y-113990476D02*
X102648571Y-114323809D01*
X103172380Y-114466666D02*
X103172380Y-113990476D01*
X102172380Y-113990476D01*
X102172380Y-114466666D01*
X103172380Y-114895238D02*
X102172380Y-114895238D01*
X102172380Y-115133333D01*
X102220000Y-115276190D01*
X102315238Y-115371428D01*
X102410476Y-115419047D01*
X102600952Y-115466666D01*
X102743809Y-115466666D01*
X102934285Y-115419047D01*
X103029523Y-115371428D01*
X103124761Y-115276190D01*
X103172380Y-115133333D01*
X103172380Y-114895238D01*
D11*
%TO.C,REF1*%
X156069743Y-111773689D02*
X155805220Y-111773725D01*
X155805220Y-111773725D02*
X155682088Y-111773730D01*
X155682088Y-111773730D02*
X153711189Y-111773730D01*
X153711189Y-111773730D02*
X153711189Y-111889910D01*
X153711189Y-111889910D02*
X153698789Y-112031291D01*
X153698789Y-112031291D02*
X153661364Y-112161684D01*
X153661364Y-112161684D02*
X153598577Y-112281862D01*
X153598577Y-112281862D02*
X153510094Y-112392602D01*
X153510094Y-112392602D02*
X153480157Y-112422511D01*
X153480157Y-112422511D02*
X153372466Y-112507348D01*
X153372466Y-112507348D02*
X153253725Y-112569221D01*
X153253725Y-112569221D02*
X153127460Y-112608159D01*
X153127460Y-112608159D02*
X152997197Y-112624190D01*
X152997197Y-112624190D02*
X152866465Y-112617342D01*
X152866465Y-112617342D02*
X152738788Y-112587643D01*
X152738788Y-112587643D02*
X152617695Y-112535120D01*
X152617695Y-112535120D02*
X152506712Y-112459803D01*
X152506712Y-112459803D02*
X152456868Y-112414363D01*
X152456868Y-112414363D02*
X152363983Y-112302952D01*
X152363983Y-112302952D02*
X152295873Y-112180435D01*
X152295873Y-112180435D02*
X152253129Y-112048215D01*
X152253129Y-112048215D02*
X152236347Y-111907692D01*
X152236347Y-111907692D02*
X152236124Y-111893867D01*
X152236124Y-111893867D02*
X152235244Y-111773734D01*
X152235244Y-111773734D02*
X152182443Y-111773732D01*
X152182443Y-111773732D02*
X152135604Y-111780089D01*
X152135604Y-111780089D02*
X152092817Y-111795556D01*
X152092817Y-111795556D02*
X152089989Y-111797154D01*
X152089989Y-111797154D02*
X152080325Y-111802168D01*
X152080325Y-111802168D02*
X152071451Y-111806073D01*
X152071451Y-111806073D02*
X152063335Y-111810007D01*
X152063335Y-111810007D02*
X152055943Y-111815106D01*
X152055943Y-111815106D02*
X152049245Y-111822508D01*
X152049245Y-111822508D02*
X152043208Y-111833351D01*
X152043208Y-111833351D02*
X152037801Y-111848772D01*
X152037801Y-111848772D02*
X152032990Y-111869909D01*
X152032990Y-111869909D02*
X152028745Y-111897899D01*
X152028745Y-111897899D02*
X152025032Y-111933879D01*
X152025032Y-111933879D02*
X152021821Y-111978987D01*
X152021821Y-111978987D02*
X152019078Y-112034360D01*
X152019078Y-112034360D02*
X152016772Y-112101137D01*
X152016772Y-112101137D02*
X152014871Y-112180453D01*
X152014871Y-112180453D02*
X152013342Y-112273447D01*
X152013342Y-112273447D02*
X152012154Y-112381257D01*
X152012154Y-112381257D02*
X152011274Y-112505019D01*
X152011274Y-112505019D02*
X152010670Y-112645871D01*
X152010670Y-112645871D02*
X152010311Y-112804950D01*
X152010311Y-112804950D02*
X152010165Y-112983395D01*
X152010165Y-112983395D02*
X152010198Y-113182342D01*
X152010198Y-113182342D02*
X152010380Y-113402929D01*
X152010380Y-113402929D02*
X152010677Y-113646293D01*
X152010677Y-113646293D02*
X152011059Y-113913572D01*
X152011059Y-113913572D02*
X152011492Y-114205903D01*
X152011492Y-114205903D02*
X152011945Y-114524424D01*
X152011945Y-114524424D02*
X152011998Y-114563230D01*
X152011998Y-114563230D02*
X152012404Y-114883782D01*
X152012404Y-114883782D02*
X152012749Y-115178012D01*
X152012749Y-115178012D02*
X152013069Y-115447056D01*
X152013069Y-115447056D02*
X152013400Y-115692052D01*
X152013400Y-115692052D02*
X152013779Y-115914137D01*
X152013779Y-115914137D02*
X152014243Y-116114447D01*
X152014243Y-116114447D02*
X152014828Y-116294119D01*
X152014828Y-116294119D02*
X152015570Y-116454290D01*
X152015570Y-116454290D02*
X152016506Y-116596098D01*
X152016506Y-116596098D02*
X152017673Y-116720679D01*
X152017673Y-116720679D02*
X152019107Y-116829170D01*
X152019107Y-116829170D02*
X152020844Y-116922707D01*
X152020844Y-116922707D02*
X152022922Y-117002429D01*
X152022922Y-117002429D02*
X152025376Y-117069472D01*
X152025376Y-117069472D02*
X152028244Y-117124973D01*
X152028244Y-117124973D02*
X152031561Y-117170068D01*
X152031561Y-117170068D02*
X152035364Y-117205895D01*
X152035364Y-117205895D02*
X152039690Y-117233591D01*
X152039690Y-117233591D02*
X152044575Y-117254293D01*
X152044575Y-117254293D02*
X152050055Y-117269137D01*
X152050055Y-117269137D02*
X152056168Y-117279260D01*
X152056168Y-117279260D02*
X152062950Y-117285800D01*
X152062950Y-117285800D02*
X152070437Y-117289893D01*
X152070437Y-117289893D02*
X152078666Y-117292676D01*
X152078666Y-117292676D02*
X152087673Y-117295287D01*
X152087673Y-117295287D02*
X152097495Y-117298862D01*
X152097495Y-117298862D02*
X152099894Y-117299950D01*
X152099894Y-117299950D02*
X152107435Y-117302396D01*
X152107435Y-117302396D02*
X152120056Y-117304642D01*
X152120056Y-117304642D02*
X152138859Y-117306698D01*
X152138859Y-117306698D02*
X152164947Y-117308572D01*
X152164947Y-117308572D02*
X152199422Y-117310271D01*
X152199422Y-117310271D02*
X152243385Y-117311803D01*
X152243385Y-117311803D02*
X152297939Y-117313177D01*
X152297939Y-117313177D02*
X152364185Y-117314400D01*
X152364185Y-117314400D02*
X152443226Y-117315481D01*
X152443226Y-117315481D02*
X152536163Y-117316427D01*
X152536163Y-117316427D02*
X152644099Y-117317247D01*
X152644099Y-117317247D02*
X152768136Y-117317947D01*
X152768136Y-117317947D02*
X152909376Y-117318538D01*
X152909376Y-117318538D02*
X153068921Y-117319025D01*
X153068921Y-117319025D02*
X153247872Y-117319419D01*
X153247872Y-117319419D02*
X153447332Y-117319725D01*
X153447332Y-117319725D02*
X153668404Y-117319953D01*
X153668404Y-117319953D02*
X153912188Y-117320110D01*
X153912188Y-117320110D02*
X154179787Y-117320205D01*
X154179787Y-117320205D02*
X154472303Y-117320245D01*
X154472303Y-117320245D02*
X154790839Y-117320238D01*
X154790839Y-117320238D02*
X154894021Y-117320228D01*
X154894021Y-117320228D02*
X155219623Y-117320176D01*
X155219623Y-117320176D02*
X155518881Y-117320091D01*
X155518881Y-117320091D02*
X155792909Y-117319963D01*
X155792909Y-117319963D02*
X156042824Y-117319785D01*
X156042824Y-117319785D02*
X156269740Y-117319548D01*
X156269740Y-117319548D02*
X156474773Y-117319242D01*
X156474773Y-117319242D02*
X156659038Y-117318860D01*
X156659038Y-117318860D02*
X156823650Y-117318392D01*
X156823650Y-117318392D02*
X156969725Y-117317830D01*
X156969725Y-117317830D02*
X157098376Y-117317165D01*
X157098376Y-117317165D02*
X157210721Y-117316388D01*
X157210721Y-117316388D02*
X157307874Y-117315491D01*
X157307874Y-117315491D02*
X157390950Y-117314465D01*
X157390950Y-117314465D02*
X157461064Y-117313301D01*
X157461064Y-117313301D02*
X157519332Y-117311991D01*
X157519332Y-117311991D02*
X157566869Y-117310525D01*
X157566869Y-117310525D02*
X157604790Y-117308896D01*
X157604790Y-117308896D02*
X157634210Y-117307093D01*
X157634210Y-117307093D02*
X157656245Y-117305110D01*
X157656245Y-117305110D02*
X157672010Y-117302936D01*
X157672010Y-117302936D02*
X157682620Y-117300563D01*
X157682620Y-117300563D02*
X157688404Y-117298391D01*
X157688404Y-117298391D02*
X157698684Y-117294056D01*
X157698684Y-117294056D02*
X157708122Y-117290859D01*
X157708122Y-117290859D02*
X157716755Y-117287665D01*
X157716755Y-117287665D02*
X157724619Y-117283338D01*
X157724619Y-117283338D02*
X157731748Y-117276744D01*
X157731748Y-117276744D02*
X157738179Y-117266747D01*
X157738179Y-117266747D02*
X157743947Y-117252212D01*
X157743947Y-117252212D02*
X157749089Y-117232003D01*
X157749089Y-117232003D02*
X157753640Y-117204985D01*
X157753640Y-117204985D02*
X157757635Y-117170023D01*
X157757635Y-117170023D02*
X157761111Y-117125981D01*
X157761111Y-117125981D02*
X157764102Y-117071724D01*
X157764102Y-117071724D02*
X157766646Y-117006117D01*
X157766646Y-117006117D02*
X157768777Y-116928024D01*
X157768777Y-116928024D02*
X157770532Y-116836310D01*
X157770532Y-116836310D02*
X157771945Y-116729840D01*
X157771945Y-116729840D02*
X157772315Y-116688973D01*
X157772315Y-116688973D02*
X157405884Y-116688973D01*
X157405884Y-116688973D02*
X156110734Y-116688973D01*
X156110734Y-116688973D02*
X156135655Y-116651217D01*
X156135655Y-116651217D02*
X156160447Y-116612417D01*
X156160447Y-116612417D02*
X156181440Y-116575469D01*
X156181440Y-116575469D02*
X156198935Y-116537788D01*
X156198935Y-116537788D02*
X156213230Y-116496788D01*
X156213230Y-116496788D02*
X156224623Y-116449883D01*
X156224623Y-116449883D02*
X156233413Y-116394487D01*
X156233413Y-116394487D02*
X156239898Y-116328016D01*
X156239898Y-116328016D02*
X156244377Y-116247883D01*
X156244377Y-116247883D02*
X156247150Y-116151502D01*
X156247150Y-116151502D02*
X156248513Y-116036289D01*
X156248513Y-116036289D02*
X156248767Y-115899657D01*
X156248767Y-115899657D02*
X156248209Y-115739020D01*
X156248209Y-115739020D02*
X156247893Y-115679382D01*
X156247893Y-115679382D02*
X156244325Y-115040041D01*
X156244325Y-115040041D02*
X155839298Y-115591449D01*
X155839298Y-115591449D02*
X155724554Y-115747876D01*
X155724554Y-115747876D02*
X155625143Y-115884088D01*
X155625143Y-115884088D02*
X155539990Y-116001890D01*
X155539990Y-116001890D02*
X155468022Y-116103084D01*
X155468022Y-116103084D02*
X155408166Y-116189477D01*
X155408166Y-116189477D02*
X155359348Y-116262874D01*
X155359348Y-116262874D02*
X155320495Y-116325077D01*
X155320495Y-116325077D02*
X155290534Y-116377893D01*
X155290534Y-116377893D02*
X155268391Y-116423125D01*
X155268391Y-116423125D02*
X155252993Y-116462578D01*
X155252993Y-116462578D02*
X155243266Y-116498058D01*
X155243266Y-116498058D02*
X155238137Y-116531368D01*
X155238137Y-116531368D02*
X155236532Y-116564313D01*
X155236532Y-116564313D02*
X155237379Y-116598697D01*
X155237379Y-116598697D02*
X155237595Y-116603019D01*
X155237595Y-116603019D02*
X155242054Y-116689031D01*
X155242054Y-116689031D02*
X153822692Y-116688973D01*
X153822692Y-116688973D02*
X153928265Y-116582522D01*
X153928265Y-116582522D02*
X153956913Y-116553406D01*
X153956913Y-116553406D02*
X153984090Y-116525076D01*
X153984090Y-116525076D02*
X154010989Y-116495968D01*
X154010989Y-116495968D02*
X154038803Y-116464520D01*
X154038803Y-116464520D02*
X154068725Y-116429169D01*
X154068725Y-116429169D02*
X154101946Y-116388354D01*
X154101946Y-116388354D02*
X154139661Y-116340511D01*
X154139661Y-116340511D02*
X154183060Y-116284079D01*
X154183060Y-116284079D02*
X154233338Y-116217494D01*
X154233338Y-116217494D02*
X154291688Y-116139195D01*
X154291688Y-116139195D02*
X154359300Y-116047619D01*
X154359300Y-116047619D02*
X154437369Y-115941204D01*
X154437369Y-115941204D02*
X154527088Y-115818387D01*
X154527088Y-115818387D02*
X154629648Y-115677605D01*
X154629648Y-115677605D02*
X154746242Y-115517297D01*
X154746242Y-115517297D02*
X154841809Y-115385798D01*
X154841809Y-115385798D02*
X154961749Y-115220596D01*
X154961749Y-115220596D02*
X155066380Y-115076152D01*
X155066380Y-115076152D02*
X155156648Y-114951094D01*
X155156648Y-114951094D02*
X155233503Y-114844052D01*
X155233503Y-114844052D02*
X155297891Y-114753654D01*
X155297891Y-114753654D02*
X155350761Y-114678529D01*
X155350761Y-114678529D02*
X155393060Y-114617304D01*
X155393060Y-114617304D02*
X155425736Y-114568610D01*
X155425736Y-114568610D02*
X155449738Y-114531074D01*
X155449738Y-114531074D02*
X155466013Y-114503325D01*
X155466013Y-114503325D02*
X155475508Y-114483992D01*
X155475508Y-114483992D02*
X155479173Y-114471703D01*
X155479173Y-114471703D02*
X155478071Y-114465242D01*
X155478071Y-114465242D02*
X155464724Y-114448048D01*
X155464724Y-114448048D02*
X155435866Y-114411655D01*
X155435866Y-114411655D02*
X155393240Y-114358224D01*
X155393240Y-114358224D02*
X155338585Y-114289919D01*
X155338585Y-114289919D02*
X155273644Y-114208903D01*
X155273644Y-114208903D02*
X155200158Y-114117340D01*
X155200158Y-114117340D02*
X155119868Y-114017392D01*
X155119868Y-114017392D02*
X155034515Y-113911224D01*
X155034515Y-113911224D02*
X154945840Y-113800997D01*
X154945840Y-113800997D02*
X154855586Y-113688876D01*
X154855586Y-113688876D02*
X154805944Y-113627244D01*
X154805944Y-113627244D02*
X153573373Y-113627244D01*
X153573373Y-113627244D02*
X153522146Y-113719919D01*
X153522146Y-113719919D02*
X153470919Y-113812595D01*
X153470919Y-113812595D02*
X153470919Y-116503622D01*
X153470919Y-116503622D02*
X153522146Y-116596298D01*
X153522146Y-116596298D02*
X153573373Y-116688973D01*
X153573373Y-116688973D02*
X152967396Y-116688973D01*
X152967396Y-116688973D02*
X152822734Y-116688931D01*
X152822734Y-116688931D02*
X152703244Y-116688741D01*
X152703244Y-116688741D02*
X152606642Y-116688308D01*
X152606642Y-116688308D02*
X152530642Y-116687536D01*
X152530642Y-116687536D02*
X152472957Y-116686330D01*
X152472957Y-116686330D02*
X152431301Y-116684594D01*
X152431301Y-116684594D02*
X152403389Y-116682232D01*
X152403389Y-116682232D02*
X152386935Y-116679150D01*
X152386935Y-116679150D02*
X152379652Y-116675251D01*
X152379652Y-116675251D02*
X152379255Y-116670440D01*
X152379255Y-116670440D02*
X152383458Y-116664622D01*
X152383458Y-116664622D02*
X152383501Y-116664574D01*
X152383501Y-116664574D02*
X152400813Y-116639532D01*
X152400813Y-116639532D02*
X152423736Y-116598815D01*
X152423736Y-116598815D02*
X152443981Y-116558168D01*
X152443981Y-116558168D02*
X152482379Y-116476162D01*
X152482379Y-116476162D02*
X152490211Y-113627244D01*
X152490211Y-113627244D02*
X153573373Y-113627244D01*
X153573373Y-113627244D02*
X154805944Y-113627244D01*
X154805944Y-113627244D02*
X154765493Y-113577024D01*
X154765493Y-113577024D02*
X154677302Y-113467604D01*
X154677302Y-113467604D02*
X154592754Y-113362778D01*
X154592754Y-113362778D02*
X154513592Y-113264711D01*
X154513592Y-113264711D02*
X154441556Y-113175566D01*
X154441556Y-113175566D02*
X154378387Y-113097505D01*
X154378387Y-113097505D02*
X154325827Y-113032692D01*
X154325827Y-113032692D02*
X154285617Y-112983290D01*
X154285617Y-112983290D02*
X154262000Y-112954487D01*
X154262000Y-112954487D02*
X154170290Y-112846778D01*
X154170290Y-112846778D02*
X154082060Y-112749580D01*
X154082060Y-112749580D02*
X154000403Y-112666076D01*
X154000403Y-112666076D02*
X153928410Y-112599448D01*
X153928410Y-112599448D02*
X153877319Y-112558599D01*
X153877319Y-112558599D02*
X153816907Y-112515135D01*
X153816907Y-112515135D02*
X155206298Y-112515135D01*
X155206298Y-112515135D02*
X155205908Y-112596666D01*
X155205908Y-112596666D02*
X155209791Y-112656606D01*
X155209791Y-112656606D02*
X155224390Y-112712177D01*
X155224390Y-112712177D02*
X155246988Y-112764855D01*
X155246988Y-112764855D02*
X155261678Y-112794615D01*
X155261678Y-112794615D02*
X155277472Y-112824103D01*
X155277472Y-112824103D02*
X155295814Y-112855276D01*
X155295814Y-112855276D02*
X155318145Y-112890093D01*
X155318145Y-112890093D02*
X155345909Y-112930510D01*
X155345909Y-112930510D02*
X155380549Y-112978486D01*
X155380549Y-112978486D02*
X155423507Y-113035978D01*
X155423507Y-113035978D02*
X155476227Y-113104943D01*
X155476227Y-113104943D02*
X155540151Y-113187339D01*
X155540151Y-113187339D02*
X155616721Y-113285124D01*
X155616721Y-113285124D02*
X155707381Y-113400255D01*
X155707381Y-113400255D02*
X155813574Y-113534690D01*
X155813574Y-113534690D02*
X155825568Y-113549859D01*
X155825568Y-113549859D02*
X156244325Y-114079412D01*
X156244325Y-114079412D02*
X156248378Y-113492922D01*
X156248378Y-113492922D02*
X156249195Y-113317251D01*
X156249195Y-113317251D02*
X156249021Y-113168532D01*
X156249021Y-113168532D02*
X156247849Y-113046275D01*
X156247849Y-113046275D02*
X156245669Y-112949989D01*
X156245669Y-112949989D02*
X156242474Y-112879183D01*
X156242474Y-112879183D02*
X156238256Y-112833369D01*
X156238256Y-112833369D02*
X156236838Y-112824679D01*
X156236838Y-112824679D02*
X156214591Y-112733135D01*
X156214591Y-112733135D02*
X156185443Y-112650608D01*
X156185443Y-112650608D02*
X156152182Y-112584253D01*
X156152182Y-112584253D02*
X156132200Y-112556110D01*
X156132200Y-112556110D02*
X156097722Y-112515135D01*
X156097722Y-112515135D02*
X156751914Y-112515135D01*
X156751914Y-112515135D02*
X156907969Y-112515269D01*
X156907969Y-112515269D02*
X157038467Y-112515703D01*
X157038467Y-112515703D02*
X157145310Y-112516489D01*
X157145310Y-112516489D02*
X157230398Y-112517676D01*
X157230398Y-112517676D02*
X157295635Y-112519317D01*
X157295635Y-112519317D02*
X157342921Y-112521461D01*
X157342921Y-112521461D02*
X157374157Y-112524159D01*
X157374157Y-112524159D02*
X157391246Y-112527462D01*
X157391246Y-112527462D02*
X157396088Y-112531421D01*
X157396088Y-112531421D02*
X157395753Y-112532298D01*
X157395753Y-112532298D02*
X157381885Y-112553231D01*
X157381885Y-112553231D02*
X157358732Y-112586412D01*
X157358732Y-112586412D02*
X157346754Y-112603193D01*
X157346754Y-112603193D02*
X157334369Y-112619940D01*
X157334369Y-112619940D02*
X157323237Y-112634915D01*
X157323237Y-112634915D02*
X157313288Y-112649594D01*
X157313288Y-112649594D02*
X157304451Y-112665449D01*
X157304451Y-112665449D02*
X157296657Y-112683955D01*
X157296657Y-112683955D02*
X157289835Y-112706585D01*
X157289835Y-112706585D02*
X157283916Y-112734813D01*
X157283916Y-112734813D02*
X157278829Y-112770113D01*
X157278829Y-112770113D02*
X157274504Y-112813958D01*
X157274504Y-112813958D02*
X157270871Y-112867822D01*
X157270871Y-112867822D02*
X157267860Y-112933180D01*
X157267860Y-112933180D02*
X157265401Y-113011504D01*
X157265401Y-113011504D02*
X157263423Y-113104268D01*
X157263423Y-113104268D02*
X157261858Y-113212947D01*
X157261858Y-113212947D02*
X157260634Y-113339013D01*
X157260634Y-113339013D02*
X157259681Y-113483942D01*
X157259681Y-113483942D02*
X157258930Y-113649206D01*
X157258930Y-113649206D02*
X157258311Y-113836279D01*
X157258311Y-113836279D02*
X157257752Y-114046635D01*
X157257752Y-114046635D02*
X157257185Y-114281748D01*
X157257185Y-114281748D02*
X157256655Y-114497741D01*
X157256655Y-114497741D02*
X157256155Y-114738535D01*
X157256155Y-114738535D02*
X157255895Y-114968274D01*
X157255895Y-114968274D02*
X157255868Y-115185493D01*
X157255868Y-115185493D02*
X157256067Y-115388722D01*
X157256067Y-115388722D02*
X157256486Y-115576496D01*
X157256486Y-115576496D02*
X157257118Y-115747345D01*
X157257118Y-115747345D02*
X157257956Y-115899803D01*
X157257956Y-115899803D02*
X157258992Y-116032403D01*
X157258992Y-116032403D02*
X157260220Y-116143676D01*
X157260220Y-116143676D02*
X157261633Y-116232156D01*
X157261633Y-116232156D02*
X157263225Y-116296375D01*
X157263225Y-116296375D02*
X157264987Y-116334865D01*
X157264987Y-116334865D02*
X157265321Y-116338933D01*
X157265321Y-116338933D02*
X157277466Y-116432248D01*
X157277466Y-116432248D02*
X157296427Y-116507190D01*
X157296427Y-116507190D02*
X157325302Y-116572594D01*
X157325302Y-116572594D02*
X157367190Y-116637293D01*
X157367190Y-116637293D02*
X157372429Y-116644352D01*
X157372429Y-116644352D02*
X157405884Y-116688973D01*
X157405884Y-116688973D02*
X157772315Y-116688973D01*
X157772315Y-116688973D02*
X157773054Y-116607479D01*
X157773054Y-116607479D02*
X157773893Y-116468090D01*
X157773893Y-116468090D02*
X157774498Y-116310539D01*
X157774498Y-116310539D02*
X157774905Y-116133691D01*
X157774905Y-116133691D02*
X157775150Y-115936410D01*
X157775150Y-115936410D02*
X157775267Y-115717560D01*
X157775267Y-115717560D02*
X157775295Y-115476007D01*
X157775295Y-115476007D02*
X157775267Y-115210615D01*
X157775267Y-115210615D02*
X157775220Y-114920249D01*
X157775220Y-114920249D02*
X157775190Y-114603773D01*
X157775190Y-114603773D02*
X157775189Y-114540946D01*
X157775189Y-114540946D02*
X157775172Y-114221137D01*
X157775172Y-114221137D02*
X157775112Y-113927661D01*
X157775112Y-113927661D02*
X157775002Y-113659390D01*
X157775002Y-113659390D02*
X157774833Y-113415198D01*
X157774833Y-113415198D02*
X157774597Y-113193957D01*
X157774597Y-113193957D02*
X157774284Y-112994540D01*
X157774284Y-112994540D02*
X157773885Y-112815820D01*
X157773885Y-112815820D02*
X157773393Y-112656671D01*
X157773393Y-112656671D02*
X157772797Y-112515966D01*
X157772797Y-112515966D02*
X157772090Y-112392576D01*
X157772090Y-112392576D02*
X157771263Y-112285376D01*
X157771263Y-112285376D02*
X157770307Y-112193238D01*
X157770307Y-112193238D02*
X157769213Y-112115035D01*
X157769213Y-112115035D02*
X157767973Y-112049641D01*
X157767973Y-112049641D02*
X157766578Y-111995928D01*
X157766578Y-111995928D02*
X157765018Y-111952769D01*
X157765018Y-111952769D02*
X157763286Y-111919037D01*
X157763286Y-111919037D02*
X157761372Y-111893605D01*
X157761372Y-111893605D02*
X157759268Y-111875347D01*
X157759268Y-111875347D02*
X157756966Y-111863134D01*
X157756966Y-111863134D02*
X157754455Y-111855841D01*
X157754455Y-111855841D02*
X157754363Y-111855659D01*
X157754363Y-111855659D02*
X157749192Y-111844518D01*
X157749192Y-111844518D02*
X157744885Y-111834431D01*
X157744885Y-111834431D02*
X157740121Y-111825346D01*
X157740121Y-111825346D02*
X157733578Y-111817212D01*
X157733578Y-111817212D02*
X157723935Y-111809976D01*
X157723935Y-111809976D02*
X157709871Y-111803586D01*
X157709871Y-111803586D02*
X157690063Y-111797989D01*
X157690063Y-111797989D02*
X157663191Y-111793133D01*
X157663191Y-111793133D02*
X157627933Y-111788966D01*
X157627933Y-111788966D02*
X157582968Y-111785436D01*
X157582968Y-111785436D02*
X157526974Y-111782491D01*
X157526974Y-111782491D02*
X157458629Y-111780077D01*
X157458629Y-111780077D02*
X157376614Y-111778144D01*
X157376614Y-111778144D02*
X157279605Y-111776638D01*
X157279605Y-111776638D02*
X157166282Y-111775508D01*
X157166282Y-111775508D02*
X157035323Y-111774702D01*
X157035323Y-111774702D02*
X156885407Y-111774166D01*
X156885407Y-111774166D02*
X156715213Y-111773849D01*
X156715213Y-111773849D02*
X156523418Y-111773699D01*
X156523418Y-111773699D02*
X156308702Y-111773663D01*
X156308702Y-111773663D02*
X156069743Y-111773689D01*
X156069743Y-111773689D02*
X156069743Y-111773689D01*
G36*
X157770532Y-116836310D02*
G01*
X157768777Y-116928024D01*
X157766646Y-117006117D01*
X157764102Y-117071724D01*
X157761111Y-117125981D01*
X157757635Y-117170023D01*
X157753640Y-117204985D01*
X157749089Y-117232003D01*
X157743947Y-117252212D01*
X157738179Y-117266747D01*
X157731748Y-117276744D01*
X157724619Y-117283338D01*
X157716755Y-117287665D01*
X157708122Y-117290859D01*
X157698684Y-117294056D01*
X157688404Y-117298391D01*
X157682620Y-117300563D01*
X157672010Y-117302936D01*
X157656245Y-117305110D01*
X157634210Y-117307093D01*
X157604790Y-117308896D01*
X157566869Y-117310525D01*
X157519332Y-117311991D01*
X157461064Y-117313301D01*
X157390950Y-117314465D01*
X157307874Y-117315491D01*
X157210721Y-117316388D01*
X157098376Y-117317165D01*
X156969725Y-117317830D01*
X156823650Y-117318392D01*
X156659038Y-117318860D01*
X156474773Y-117319242D01*
X156269740Y-117319548D01*
X156042824Y-117319785D01*
X155792909Y-117319963D01*
X155518881Y-117320091D01*
X155219623Y-117320176D01*
X154894021Y-117320228D01*
X154790839Y-117320238D01*
X154472303Y-117320245D01*
X154179787Y-117320205D01*
X153912188Y-117320110D01*
X153668404Y-117319953D01*
X153447332Y-117319725D01*
X153247872Y-117319419D01*
X153068921Y-117319025D01*
X152909376Y-117318538D01*
X152768136Y-117317947D01*
X152644099Y-117317247D01*
X152536163Y-117316427D01*
X152443226Y-117315481D01*
X152364185Y-117314400D01*
X152297939Y-117313177D01*
X152243385Y-117311803D01*
X152199422Y-117310271D01*
X152164947Y-117308572D01*
X152138859Y-117306698D01*
X152120056Y-117304642D01*
X152107435Y-117302396D01*
X152099894Y-117299950D01*
X152097495Y-117298862D01*
X152087673Y-117295287D01*
X152078666Y-117292676D01*
X152070437Y-117289893D01*
X152062950Y-117285800D01*
X152056168Y-117279260D01*
X152050055Y-117269137D01*
X152044575Y-117254293D01*
X152039690Y-117233591D01*
X152035364Y-117205895D01*
X152031561Y-117170068D01*
X152028244Y-117124973D01*
X152025376Y-117069472D01*
X152022922Y-117002429D01*
X152020844Y-116922707D01*
X152019107Y-116829170D01*
X152017673Y-116720679D01*
X152017202Y-116670440D01*
X152379255Y-116670440D01*
X152379652Y-116675251D01*
X152386935Y-116679150D01*
X152403389Y-116682232D01*
X152431301Y-116684594D01*
X152472957Y-116686330D01*
X152530642Y-116687536D01*
X152606642Y-116688308D01*
X152703244Y-116688741D01*
X152822734Y-116688931D01*
X152967396Y-116688973D01*
X153573373Y-116688973D01*
X153522146Y-116596298D01*
X153470919Y-116503622D01*
X153470919Y-113812595D01*
X153522146Y-113719919D01*
X153573373Y-113627244D01*
X152490211Y-113627244D01*
X152482379Y-116476162D01*
X152443981Y-116558168D01*
X152423736Y-116598815D01*
X152400813Y-116639532D01*
X152383501Y-116664574D01*
X152383458Y-116664622D01*
X152379255Y-116670440D01*
X152017202Y-116670440D01*
X152016506Y-116596098D01*
X152015570Y-116454290D01*
X152014828Y-116294119D01*
X152014243Y-116114447D01*
X152013779Y-115914137D01*
X152013400Y-115692052D01*
X152013069Y-115447056D01*
X152012749Y-115178012D01*
X152012404Y-114883782D01*
X152011998Y-114563230D01*
X152011945Y-114524424D01*
X152011492Y-114205903D01*
X152011059Y-113913572D01*
X152010677Y-113646293D01*
X152010380Y-113402929D01*
X152010198Y-113182342D01*
X152010165Y-112983395D01*
X152010311Y-112804950D01*
X152010670Y-112645871D01*
X152011274Y-112505019D01*
X152012154Y-112381257D01*
X152013342Y-112273447D01*
X152014871Y-112180453D01*
X152016772Y-112101137D01*
X152019078Y-112034360D01*
X152021821Y-111978987D01*
X152025032Y-111933879D01*
X152028745Y-111897899D01*
X152032990Y-111869909D01*
X152037801Y-111848772D01*
X152043208Y-111833351D01*
X152049245Y-111822508D01*
X152055943Y-111815106D01*
X152063335Y-111810007D01*
X152071451Y-111806073D01*
X152080325Y-111802168D01*
X152089989Y-111797154D01*
X152092817Y-111795556D01*
X152135604Y-111780089D01*
X152182443Y-111773732D01*
X152235244Y-111773734D01*
X152236124Y-111893867D01*
X152236347Y-111907692D01*
X152253129Y-112048215D01*
X152295873Y-112180435D01*
X152363983Y-112302952D01*
X152456868Y-112414363D01*
X152506712Y-112459803D01*
X152617695Y-112535120D01*
X152738788Y-112587643D01*
X152866465Y-112617342D01*
X152997197Y-112624190D01*
X153127460Y-112608159D01*
X153253725Y-112569221D01*
X153357522Y-112515135D01*
X153816907Y-112515135D01*
X153877319Y-112558599D01*
X153928410Y-112599448D01*
X154000403Y-112666076D01*
X154082060Y-112749580D01*
X154170290Y-112846778D01*
X154262000Y-112954487D01*
X154285617Y-112983290D01*
X154325827Y-113032692D01*
X154378387Y-113097505D01*
X154441556Y-113175566D01*
X154513592Y-113264711D01*
X154592754Y-113362778D01*
X154677302Y-113467604D01*
X154765493Y-113577024D01*
X154805944Y-113627244D01*
X154855586Y-113688876D01*
X154945840Y-113800997D01*
X155034515Y-113911224D01*
X155119868Y-114017392D01*
X155200158Y-114117340D01*
X155273644Y-114208903D01*
X155338585Y-114289919D01*
X155393240Y-114358224D01*
X155435866Y-114411655D01*
X155464724Y-114448048D01*
X155478071Y-114465242D01*
X155479173Y-114471703D01*
X155475508Y-114483992D01*
X155466013Y-114503325D01*
X155449738Y-114531074D01*
X155425736Y-114568610D01*
X155393060Y-114617304D01*
X155350761Y-114678529D01*
X155297891Y-114753654D01*
X155233503Y-114844052D01*
X155156648Y-114951094D01*
X155066380Y-115076152D01*
X154961749Y-115220596D01*
X154841809Y-115385798D01*
X154746242Y-115517297D01*
X154629648Y-115677605D01*
X154527088Y-115818387D01*
X154437369Y-115941204D01*
X154359300Y-116047619D01*
X154291688Y-116139195D01*
X154233338Y-116217494D01*
X154183060Y-116284079D01*
X154139661Y-116340511D01*
X154101946Y-116388354D01*
X154068725Y-116429169D01*
X154038803Y-116464520D01*
X154010989Y-116495968D01*
X153984090Y-116525076D01*
X153956913Y-116553406D01*
X153928265Y-116582522D01*
X153822692Y-116688973D01*
X155242054Y-116689031D01*
X155237595Y-116603019D01*
X155237379Y-116598697D01*
X155236532Y-116564313D01*
X155238137Y-116531368D01*
X155243266Y-116498058D01*
X155252993Y-116462578D01*
X155268391Y-116423125D01*
X155290534Y-116377893D01*
X155320495Y-116325077D01*
X155359348Y-116262874D01*
X155408166Y-116189477D01*
X155468022Y-116103084D01*
X155539990Y-116001890D01*
X155625143Y-115884088D01*
X155724554Y-115747876D01*
X155839298Y-115591449D01*
X156244325Y-115040041D01*
X156247893Y-115679382D01*
X156248209Y-115739020D01*
X156248767Y-115899657D01*
X156248513Y-116036289D01*
X156247150Y-116151502D01*
X156244377Y-116247883D01*
X156239898Y-116328016D01*
X156233413Y-116394487D01*
X156224623Y-116449883D01*
X156213230Y-116496788D01*
X156198935Y-116537788D01*
X156181440Y-116575469D01*
X156160447Y-116612417D01*
X156135655Y-116651217D01*
X156110734Y-116688973D01*
X157405884Y-116688973D01*
X157372429Y-116644352D01*
X157367190Y-116637293D01*
X157325302Y-116572594D01*
X157296427Y-116507190D01*
X157277466Y-116432248D01*
X157265321Y-116338933D01*
X157264987Y-116334865D01*
X157263225Y-116296375D01*
X157261633Y-116232156D01*
X157260220Y-116143676D01*
X157258992Y-116032403D01*
X157257956Y-115899803D01*
X157257118Y-115747345D01*
X157256486Y-115576496D01*
X157256067Y-115388722D01*
X157255868Y-115185493D01*
X157255895Y-114968274D01*
X157256155Y-114738535D01*
X157256655Y-114497741D01*
X157257185Y-114281748D01*
X157257752Y-114046635D01*
X157258311Y-113836279D01*
X157258930Y-113649206D01*
X157259681Y-113483942D01*
X157260634Y-113339013D01*
X157261858Y-113212947D01*
X157263423Y-113104268D01*
X157265401Y-113011504D01*
X157267860Y-112933180D01*
X157270871Y-112867822D01*
X157274504Y-112813958D01*
X157278829Y-112770113D01*
X157283916Y-112734813D01*
X157289835Y-112706585D01*
X157296657Y-112683955D01*
X157304451Y-112665449D01*
X157313288Y-112649594D01*
X157323237Y-112634915D01*
X157334369Y-112619940D01*
X157346754Y-112603193D01*
X157358732Y-112586412D01*
X157381885Y-112553231D01*
X157395753Y-112532298D01*
X157396088Y-112531421D01*
X157391246Y-112527462D01*
X157374157Y-112524159D01*
X157342921Y-112521461D01*
X157295635Y-112519317D01*
X157230398Y-112517676D01*
X157145310Y-112516489D01*
X157038467Y-112515703D01*
X156907969Y-112515269D01*
X156751914Y-112515135D01*
X156097722Y-112515135D01*
X156132200Y-112556110D01*
X156152182Y-112584253D01*
X156185443Y-112650608D01*
X156214591Y-112733135D01*
X156236838Y-112824679D01*
X156238256Y-112833369D01*
X156242474Y-112879183D01*
X156245669Y-112949989D01*
X156247849Y-113046275D01*
X156249021Y-113168532D01*
X156249195Y-113317251D01*
X156248378Y-113492922D01*
X156244325Y-114079412D01*
X155825568Y-113549859D01*
X155813574Y-113534690D01*
X155707381Y-113400255D01*
X155616721Y-113285124D01*
X155540151Y-113187339D01*
X155476227Y-113104943D01*
X155423507Y-113035978D01*
X155380549Y-112978486D01*
X155345909Y-112930510D01*
X155318145Y-112890093D01*
X155295814Y-112855276D01*
X155277472Y-112824103D01*
X155261678Y-112794615D01*
X155246988Y-112764855D01*
X155224390Y-112712177D01*
X155209791Y-112656606D01*
X155205908Y-112596666D01*
X155206298Y-112515135D01*
X153816907Y-112515135D01*
X153357522Y-112515135D01*
X153372466Y-112507348D01*
X153480157Y-112422511D01*
X153510094Y-112392602D01*
X153598577Y-112281862D01*
X153661364Y-112161684D01*
X153698789Y-112031291D01*
X153711189Y-111889910D01*
X153711189Y-111773730D01*
X155682088Y-111773730D01*
X155805220Y-111773725D01*
X156069743Y-111773689D01*
X156308702Y-111773663D01*
X156523418Y-111773699D01*
X156715213Y-111773849D01*
X156885407Y-111774166D01*
X157035323Y-111774702D01*
X157166282Y-111775508D01*
X157279605Y-111776638D01*
X157376614Y-111778144D01*
X157458629Y-111780077D01*
X157526974Y-111782491D01*
X157582968Y-111785436D01*
X157627933Y-111788966D01*
X157663191Y-111793133D01*
X157690063Y-111797989D01*
X157709871Y-111803586D01*
X157723935Y-111809976D01*
X157733578Y-111817212D01*
X157740121Y-111825346D01*
X157744885Y-111834431D01*
X157749192Y-111844518D01*
X157754363Y-111855659D01*
X157754455Y-111855841D01*
X157756966Y-111863134D01*
X157759268Y-111875347D01*
X157761372Y-111893605D01*
X157763286Y-111919037D01*
X157765018Y-111952769D01*
X157766578Y-111995928D01*
X157767973Y-112049641D01*
X157769213Y-112115035D01*
X157770307Y-112193238D01*
X157771263Y-112285376D01*
X157772090Y-112392576D01*
X157772797Y-112515966D01*
X157773393Y-112656671D01*
X157773885Y-112815820D01*
X157774284Y-112994540D01*
X157774597Y-113193957D01*
X157774833Y-113415198D01*
X157775002Y-113659390D01*
X157775112Y-113927661D01*
X157775172Y-114221137D01*
X157775189Y-114540946D01*
X157775190Y-114603773D01*
X157775220Y-114920249D01*
X157775267Y-115210615D01*
X157775295Y-115476007D01*
X157775267Y-115717560D01*
X157775150Y-115936410D01*
X157774905Y-116133691D01*
X157774498Y-116310539D01*
X157773893Y-116468090D01*
X157773054Y-116607479D01*
X157772315Y-116688973D01*
X157771945Y-116729840D01*
X157770532Y-116836310D01*
G37*
X157770532Y-116836310D02*
X157768777Y-116928024D01*
X157766646Y-117006117D01*
X157764102Y-117071724D01*
X157761111Y-117125981D01*
X157757635Y-117170023D01*
X157753640Y-117204985D01*
X157749089Y-117232003D01*
X157743947Y-117252212D01*
X157738179Y-117266747D01*
X157731748Y-117276744D01*
X157724619Y-117283338D01*
X157716755Y-117287665D01*
X157708122Y-117290859D01*
X157698684Y-117294056D01*
X157688404Y-117298391D01*
X157682620Y-117300563D01*
X157672010Y-117302936D01*
X157656245Y-117305110D01*
X157634210Y-117307093D01*
X157604790Y-117308896D01*
X157566869Y-117310525D01*
X157519332Y-117311991D01*
X157461064Y-117313301D01*
X157390950Y-117314465D01*
X157307874Y-117315491D01*
X157210721Y-117316388D01*
X157098376Y-117317165D01*
X156969725Y-117317830D01*
X156823650Y-117318392D01*
X156659038Y-117318860D01*
X156474773Y-117319242D01*
X156269740Y-117319548D01*
X156042824Y-117319785D01*
X155792909Y-117319963D01*
X155518881Y-117320091D01*
X155219623Y-117320176D01*
X154894021Y-117320228D01*
X154790839Y-117320238D01*
X154472303Y-117320245D01*
X154179787Y-117320205D01*
X153912188Y-117320110D01*
X153668404Y-117319953D01*
X153447332Y-117319725D01*
X153247872Y-117319419D01*
X153068921Y-117319025D01*
X152909376Y-117318538D01*
X152768136Y-117317947D01*
X152644099Y-117317247D01*
X152536163Y-117316427D01*
X152443226Y-117315481D01*
X152364185Y-117314400D01*
X152297939Y-117313177D01*
X152243385Y-117311803D01*
X152199422Y-117310271D01*
X152164947Y-117308572D01*
X152138859Y-117306698D01*
X152120056Y-117304642D01*
X152107435Y-117302396D01*
X152099894Y-117299950D01*
X152097495Y-117298862D01*
X152087673Y-117295287D01*
X152078666Y-117292676D01*
X152070437Y-117289893D01*
X152062950Y-117285800D01*
X152056168Y-117279260D01*
X152050055Y-117269137D01*
X152044575Y-117254293D01*
X152039690Y-117233591D01*
X152035364Y-117205895D01*
X152031561Y-117170068D01*
X152028244Y-117124973D01*
X152025376Y-117069472D01*
X152022922Y-117002429D01*
X152020844Y-116922707D01*
X152019107Y-116829170D01*
X152017673Y-116720679D01*
X152017202Y-116670440D01*
X152379255Y-116670440D01*
X152379652Y-116675251D01*
X152386935Y-116679150D01*
X152403389Y-116682232D01*
X152431301Y-116684594D01*
X152472957Y-116686330D01*
X152530642Y-116687536D01*
X152606642Y-116688308D01*
X152703244Y-116688741D01*
X152822734Y-116688931D01*
X152967396Y-116688973D01*
X153573373Y-116688973D01*
X153522146Y-116596298D01*
X153470919Y-116503622D01*
X153470919Y-113812595D01*
X153522146Y-113719919D01*
X153573373Y-113627244D01*
X152490211Y-113627244D01*
X152482379Y-116476162D01*
X152443981Y-116558168D01*
X152423736Y-116598815D01*
X152400813Y-116639532D01*
X152383501Y-116664574D01*
X152383458Y-116664622D01*
X152379255Y-116670440D01*
X152017202Y-116670440D01*
X152016506Y-116596098D01*
X152015570Y-116454290D01*
X152014828Y-116294119D01*
X152014243Y-116114447D01*
X152013779Y-115914137D01*
X152013400Y-115692052D01*
X152013069Y-115447056D01*
X152012749Y-115178012D01*
X152012404Y-114883782D01*
X152011998Y-114563230D01*
X152011945Y-114524424D01*
X152011492Y-114205903D01*
X152011059Y-113913572D01*
X152010677Y-113646293D01*
X152010380Y-113402929D01*
X152010198Y-113182342D01*
X152010165Y-112983395D01*
X152010311Y-112804950D01*
X152010670Y-112645871D01*
X152011274Y-112505019D01*
X152012154Y-112381257D01*
X152013342Y-112273447D01*
X152014871Y-112180453D01*
X152016772Y-112101137D01*
X152019078Y-112034360D01*
X152021821Y-111978987D01*
X152025032Y-111933879D01*
X152028745Y-111897899D01*
X152032990Y-111869909D01*
X152037801Y-111848772D01*
X152043208Y-111833351D01*
X152049245Y-111822508D01*
X152055943Y-111815106D01*
X152063335Y-111810007D01*
X152071451Y-111806073D01*
X152080325Y-111802168D01*
X152089989Y-111797154D01*
X152092817Y-111795556D01*
X152135604Y-111780089D01*
X152182443Y-111773732D01*
X152235244Y-111773734D01*
X152236124Y-111893867D01*
X152236347Y-111907692D01*
X152253129Y-112048215D01*
X152295873Y-112180435D01*
X152363983Y-112302952D01*
X152456868Y-112414363D01*
X152506712Y-112459803D01*
X152617695Y-112535120D01*
X152738788Y-112587643D01*
X152866465Y-112617342D01*
X152997197Y-112624190D01*
X153127460Y-112608159D01*
X153253725Y-112569221D01*
X153357522Y-112515135D01*
X153816907Y-112515135D01*
X153877319Y-112558599D01*
X153928410Y-112599448D01*
X154000403Y-112666076D01*
X154082060Y-112749580D01*
X154170290Y-112846778D01*
X154262000Y-112954487D01*
X154285617Y-112983290D01*
X154325827Y-113032692D01*
X154378387Y-113097505D01*
X154441556Y-113175566D01*
X154513592Y-113264711D01*
X154592754Y-113362778D01*
X154677302Y-113467604D01*
X154765493Y-113577024D01*
X154805944Y-113627244D01*
X154855586Y-113688876D01*
X154945840Y-113800997D01*
X155034515Y-113911224D01*
X155119868Y-114017392D01*
X155200158Y-114117340D01*
X155273644Y-114208903D01*
X155338585Y-114289919D01*
X155393240Y-114358224D01*
X155435866Y-114411655D01*
X155464724Y-114448048D01*
X155478071Y-114465242D01*
X155479173Y-114471703D01*
X155475508Y-114483992D01*
X155466013Y-114503325D01*
X155449738Y-114531074D01*
X155425736Y-114568610D01*
X155393060Y-114617304D01*
X155350761Y-114678529D01*
X155297891Y-114753654D01*
X155233503Y-114844052D01*
X155156648Y-114951094D01*
X155066380Y-115076152D01*
X154961749Y-115220596D01*
X154841809Y-115385798D01*
X154746242Y-115517297D01*
X154629648Y-115677605D01*
X154527088Y-115818387D01*
X154437369Y-115941204D01*
X154359300Y-116047619D01*
X154291688Y-116139195D01*
X154233338Y-116217494D01*
X154183060Y-116284079D01*
X154139661Y-116340511D01*
X154101946Y-116388354D01*
X154068725Y-116429169D01*
X154038803Y-116464520D01*
X154010989Y-116495968D01*
X153984090Y-116525076D01*
X153956913Y-116553406D01*
X153928265Y-116582522D01*
X153822692Y-116688973D01*
X155242054Y-116689031D01*
X155237595Y-116603019D01*
X155237379Y-116598697D01*
X155236532Y-116564313D01*
X155238137Y-116531368D01*
X155243266Y-116498058D01*
X155252993Y-116462578D01*
X155268391Y-116423125D01*
X155290534Y-116377893D01*
X155320495Y-116325077D01*
X155359348Y-116262874D01*
X155408166Y-116189477D01*
X155468022Y-116103084D01*
X155539990Y-116001890D01*
X155625143Y-115884088D01*
X155724554Y-115747876D01*
X155839298Y-115591449D01*
X156244325Y-115040041D01*
X156247893Y-115679382D01*
X156248209Y-115739020D01*
X156248767Y-115899657D01*
X156248513Y-116036289D01*
X156247150Y-116151502D01*
X156244377Y-116247883D01*
X156239898Y-116328016D01*
X156233413Y-116394487D01*
X156224623Y-116449883D01*
X156213230Y-116496788D01*
X156198935Y-116537788D01*
X156181440Y-116575469D01*
X156160447Y-116612417D01*
X156135655Y-116651217D01*
X156110734Y-116688973D01*
X157405884Y-116688973D01*
X157372429Y-116644352D01*
X157367190Y-116637293D01*
X157325302Y-116572594D01*
X157296427Y-116507190D01*
X157277466Y-116432248D01*
X157265321Y-116338933D01*
X157264987Y-116334865D01*
X157263225Y-116296375D01*
X157261633Y-116232156D01*
X157260220Y-116143676D01*
X157258992Y-116032403D01*
X157257956Y-115899803D01*
X157257118Y-115747345D01*
X157256486Y-115576496D01*
X157256067Y-115388722D01*
X157255868Y-115185493D01*
X157255895Y-114968274D01*
X157256155Y-114738535D01*
X157256655Y-114497741D01*
X157257185Y-114281748D01*
X157257752Y-114046635D01*
X157258311Y-113836279D01*
X157258930Y-113649206D01*
X157259681Y-113483942D01*
X157260634Y-113339013D01*
X157261858Y-113212947D01*
X157263423Y-113104268D01*
X157265401Y-113011504D01*
X157267860Y-112933180D01*
X157270871Y-112867822D01*
X157274504Y-112813958D01*
X157278829Y-112770113D01*
X157283916Y-112734813D01*
X157289835Y-112706585D01*
X157296657Y-112683955D01*
X157304451Y-112665449D01*
X157313288Y-112649594D01*
X157323237Y-112634915D01*
X157334369Y-112619940D01*
X157346754Y-112603193D01*
X157358732Y-112586412D01*
X157381885Y-112553231D01*
X157395753Y-112532298D01*
X157396088Y-112531421D01*
X157391246Y-112527462D01*
X157374157Y-112524159D01*
X157342921Y-112521461D01*
X157295635Y-112519317D01*
X157230398Y-112517676D01*
X157145310Y-112516489D01*
X157038467Y-112515703D01*
X156907969Y-112515269D01*
X156751914Y-112515135D01*
X156097722Y-112515135D01*
X156132200Y-112556110D01*
X156152182Y-112584253D01*
X156185443Y-112650608D01*
X156214591Y-112733135D01*
X156236838Y-112824679D01*
X156238256Y-112833369D01*
X156242474Y-112879183D01*
X156245669Y-112949989D01*
X156247849Y-113046275D01*
X156249021Y-113168532D01*
X156249195Y-113317251D01*
X156248378Y-113492922D01*
X156244325Y-114079412D01*
X155825568Y-113549859D01*
X155813574Y-113534690D01*
X155707381Y-113400255D01*
X155616721Y-113285124D01*
X155540151Y-113187339D01*
X155476227Y-113104943D01*
X155423507Y-113035978D01*
X155380549Y-112978486D01*
X155345909Y-112930510D01*
X155318145Y-112890093D01*
X155295814Y-112855276D01*
X155277472Y-112824103D01*
X155261678Y-112794615D01*
X155246988Y-112764855D01*
X155224390Y-112712177D01*
X155209791Y-112656606D01*
X155205908Y-112596666D01*
X155206298Y-112515135D01*
X153816907Y-112515135D01*
X153357522Y-112515135D01*
X153372466Y-112507348D01*
X153480157Y-112422511D01*
X153510094Y-112392602D01*
X153598577Y-112281862D01*
X153661364Y-112161684D01*
X153698789Y-112031291D01*
X153711189Y-111889910D01*
X153711189Y-111773730D01*
X155682088Y-111773730D01*
X155805220Y-111773725D01*
X156069743Y-111773689D01*
X156308702Y-111773663D01*
X156523418Y-111773699D01*
X156715213Y-111773849D01*
X156885407Y-111774166D01*
X157035323Y-111774702D01*
X157166282Y-111775508D01*
X157279605Y-111776638D01*
X157376614Y-111778144D01*
X157458629Y-111780077D01*
X157526974Y-111782491D01*
X157582968Y-111785436D01*
X157627933Y-111788966D01*
X157663191Y-111793133D01*
X157690063Y-111797989D01*
X157709871Y-111803586D01*
X157723935Y-111809976D01*
X157733578Y-111817212D01*
X157740121Y-111825346D01*
X157744885Y-111834431D01*
X157749192Y-111844518D01*
X157754363Y-111855659D01*
X157754455Y-111855841D01*
X157756966Y-111863134D01*
X157759268Y-111875347D01*
X157761372Y-111893605D01*
X157763286Y-111919037D01*
X157765018Y-111952769D01*
X157766578Y-111995928D01*
X157767973Y-112049641D01*
X157769213Y-112115035D01*
X157770307Y-112193238D01*
X157771263Y-112285376D01*
X157772090Y-112392576D01*
X157772797Y-112515966D01*
X157773393Y-112656671D01*
X157773885Y-112815820D01*
X157774284Y-112994540D01*
X157774597Y-113193957D01*
X157774833Y-113415198D01*
X157775002Y-113659390D01*
X157775112Y-113927661D01*
X157775172Y-114221137D01*
X157775189Y-114540946D01*
X157775190Y-114603773D01*
X157775220Y-114920249D01*
X157775267Y-115210615D01*
X157775295Y-115476007D01*
X157775267Y-115717560D01*
X157775150Y-115936410D01*
X157774905Y-116133691D01*
X157774498Y-116310539D01*
X157773893Y-116468090D01*
X157773054Y-116607479D01*
X157772315Y-116688973D01*
X157771945Y-116729840D01*
X157770532Y-116836310D01*
X149674038Y-112460499D02*
X149525986Y-112476707D01*
X149525986Y-112476707D02*
X149382548Y-112505718D01*
X149382548Y-112505718D02*
X149237890Y-112549045D01*
X149237890Y-112549045D02*
X149086176Y-112608201D01*
X149086176Y-112608201D02*
X148921572Y-112684700D01*
X148921572Y-112684700D02*
X148891929Y-112699517D01*
X148891929Y-112699517D02*
X148823902Y-112733031D01*
X148823902Y-112733031D02*
X148759744Y-112763208D01*
X148759744Y-112763208D02*
X148705785Y-112787166D01*
X148705785Y-112787166D02*
X148668360Y-112802024D01*
X148668360Y-112802024D02*
X148662611Y-112803895D01*
X148662611Y-112803895D02*
X148607514Y-112820402D01*
X148607514Y-112820402D02*
X148854149Y-113179201D01*
X148854149Y-113179201D02*
X148914448Y-113266893D01*
X148914448Y-113266893D02*
X148969578Y-113347012D01*
X148969578Y-113347012D02*
X149017664Y-113416836D01*
X149017664Y-113416836D02*
X149056832Y-113473647D01*
X149056832Y-113473647D02*
X149085206Y-113514723D01*
X149085206Y-113514723D02*
X149100913Y-113537346D01*
X149100913Y-113537346D02*
X149103464Y-113540928D01*
X149103464Y-113540928D02*
X149113829Y-113533438D01*
X149113829Y-113533438D02*
X149139340Y-113510918D01*
X149139340Y-113510918D02*
X149175437Y-113477461D01*
X149175437Y-113477461D02*
X149195358Y-113458550D01*
X149195358Y-113458550D02*
X149308227Y-113368778D01*
X149308227Y-113368778D02*
X149434986Y-113300561D01*
X149434986Y-113300561D02*
X149544217Y-113263195D01*
X149544217Y-113263195D02*
X149609786Y-113251460D01*
X149609786Y-113251460D02*
X149691884Y-113244308D01*
X149691884Y-113244308D02*
X149780856Y-113241874D01*
X149780856Y-113241874D02*
X149867044Y-113244288D01*
X149867044Y-113244288D02*
X149940795Y-113251683D01*
X149940795Y-113251683D02*
X149970224Y-113257347D01*
X149970224Y-113257347D02*
X150102867Y-113302982D01*
X150102867Y-113302982D02*
X150222394Y-113372663D01*
X150222394Y-113372663D02*
X150328717Y-113466260D01*
X150328717Y-113466260D02*
X150421747Y-113583649D01*
X150421747Y-113583649D02*
X150501395Y-113724700D01*
X150501395Y-113724700D02*
X150567574Y-113889286D01*
X150567574Y-113889286D02*
X150620194Y-114077280D01*
X150620194Y-114077280D02*
X150651467Y-114238217D01*
X150651467Y-114238217D02*
X150659626Y-114309263D01*
X150659626Y-114309263D02*
X150665185Y-114401046D01*
X150665185Y-114401046D02*
X150668198Y-114506968D01*
X150668198Y-114506968D02*
X150668719Y-114620434D01*
X150668719Y-114620434D02*
X150666800Y-114734849D01*
X150666800Y-114734849D02*
X150662497Y-114843617D01*
X150662497Y-114843617D02*
X150655863Y-114940143D01*
X150655863Y-114940143D02*
X150646951Y-115017831D01*
X150646951Y-115017831D02*
X150645021Y-115029817D01*
X150645021Y-115029817D02*
X150602501Y-115222892D01*
X150602501Y-115222892D02*
X150544567Y-115393773D01*
X150544567Y-115393773D02*
X150470867Y-115543224D01*
X150470867Y-115543224D02*
X150381049Y-115672011D01*
X150381049Y-115672011D02*
X150317293Y-115741639D01*
X150317293Y-115741639D02*
X150202714Y-115836173D01*
X150202714Y-115836173D02*
X150077058Y-115906246D01*
X150077058Y-115906246D02*
X149942443Y-115951477D01*
X149942443Y-115951477D02*
X149800989Y-115971484D01*
X149800989Y-115971484D02*
X149654817Y-115965885D01*
X149654817Y-115965885D02*
X149506045Y-115934300D01*
X149506045Y-115934300D02*
X149418089Y-115903394D01*
X149418089Y-115903394D02*
X149296371Y-115841506D01*
X149296371Y-115841506D02*
X149170920Y-115752729D01*
X149170920Y-115752729D02*
X149100647Y-115692694D01*
X149100647Y-115692694D02*
X149061189Y-115657947D01*
X149061189Y-115657947D02*
X149030188Y-115632454D01*
X149030188Y-115632454D02*
X149012542Y-115620170D01*
X149012542Y-115620170D02*
X149010352Y-115619795D01*
X149010352Y-115619795D02*
X149002476Y-115632347D01*
X149002476Y-115632347D02*
X148982068Y-115665516D01*
X148982068Y-115665516D02*
X148950868Y-115716458D01*
X148950868Y-115716458D02*
X148910614Y-115782331D01*
X148910614Y-115782331D02*
X148863043Y-115860289D01*
X148863043Y-115860289D02*
X148809896Y-115947490D01*
X148809896Y-115947490D02*
X148780313Y-115996067D01*
X148780313Y-115996067D02*
X148554352Y-116367215D01*
X148554352Y-116367215D02*
X148836473Y-116506639D01*
X148836473Y-116506639D02*
X148938478Y-116556719D01*
X148938478Y-116556719D02*
X149021111Y-116596210D01*
X149021111Y-116596210D02*
X149089422Y-116627073D01*
X149089422Y-116627073D02*
X149148463Y-116651268D01*
X149148463Y-116651268D02*
X149203286Y-116670758D01*
X149203286Y-116670758D02*
X149258940Y-116687503D01*
X149258940Y-116687503D02*
X149320477Y-116703465D01*
X149320477Y-116703465D02*
X149379460Y-116717482D01*
X149379460Y-116717482D02*
X149431885Y-116728329D01*
X149431885Y-116728329D02*
X149486712Y-116736526D01*
X149486712Y-116736526D02*
X149549428Y-116742528D01*
X149549428Y-116742528D02*
X149625523Y-116746790D01*
X149625523Y-116746790D02*
X149720484Y-116749767D01*
X149720484Y-116749767D02*
X149784487Y-116751052D01*
X149784487Y-116751052D02*
X149875808Y-116751930D01*
X149875808Y-116751930D02*
X149963373Y-116751487D01*
X149963373Y-116751487D02*
X150041388Y-116749852D01*
X150041388Y-116749852D02*
X150104058Y-116747149D01*
X150104058Y-116747149D02*
X150145587Y-116743505D01*
X150145587Y-116743505D02*
X150148048Y-116743142D01*
X150148048Y-116743142D02*
X150363697Y-116696487D01*
X150363697Y-116696487D02*
X150566207Y-116625729D01*
X150566207Y-116625729D02*
X150755505Y-116530914D01*
X150755505Y-116530914D02*
X150931521Y-116412089D01*
X150931521Y-116412089D02*
X151094184Y-116269300D01*
X151094184Y-116269300D02*
X151243422Y-116102594D01*
X151243422Y-116102594D02*
X151351504Y-115954433D01*
X151351504Y-115954433D02*
X151466566Y-115760502D01*
X151466566Y-115760502D02*
X151559577Y-115555699D01*
X151559577Y-115555699D02*
X151630987Y-115338383D01*
X151630987Y-115338383D02*
X151681244Y-115106912D01*
X151681244Y-115106912D02*
X151710799Y-114859643D01*
X151710799Y-114859643D02*
X151720111Y-114608559D01*
X151720111Y-114608559D02*
X151712452Y-114365670D01*
X151712452Y-114365670D02*
X151688387Y-114141570D01*
X151688387Y-114141570D02*
X151647148Y-113932477D01*
X151647148Y-113932477D02*
X151587973Y-113734613D01*
X151587973Y-113734613D02*
X151510096Y-113544196D01*
X151510096Y-113544196D02*
X151500797Y-113524468D01*
X151500797Y-113524468D02*
X151398352Y-113340059D01*
X151398352Y-113340059D02*
X151272528Y-113164576D01*
X151272528Y-113164576D02*
X151126888Y-113001650D01*
X151126888Y-113001650D02*
X150964999Y-112854914D01*
X150964999Y-112854914D02*
X150790424Y-112728001D01*
X150790424Y-112728001D02*
X150627756Y-112634905D01*
X150627756Y-112634905D02*
X150463427Y-112561991D01*
X150463427Y-112561991D02*
X150298749Y-112509174D01*
X150298749Y-112509174D02*
X150127348Y-112475015D01*
X150127348Y-112475015D02*
X149942847Y-112458078D01*
X149942847Y-112458078D02*
X149832541Y-112455580D01*
X149832541Y-112455580D02*
X149674038Y-112460499D01*
X149674038Y-112460499D02*
X149674038Y-112460499D01*
G36*
X149942847Y-112458078D02*
G01*
X150127348Y-112475015D01*
X150298749Y-112509174D01*
X150463427Y-112561991D01*
X150627756Y-112634905D01*
X150790424Y-112728001D01*
X150964999Y-112854914D01*
X151126888Y-113001650D01*
X151272528Y-113164576D01*
X151398352Y-113340059D01*
X151500797Y-113524468D01*
X151510096Y-113544196D01*
X151587973Y-113734613D01*
X151647148Y-113932477D01*
X151688387Y-114141570D01*
X151712452Y-114365670D01*
X151720111Y-114608559D01*
X151710799Y-114859643D01*
X151681244Y-115106912D01*
X151630987Y-115338383D01*
X151559577Y-115555699D01*
X151466566Y-115760502D01*
X151351504Y-115954433D01*
X151243422Y-116102594D01*
X151094184Y-116269300D01*
X150931521Y-116412089D01*
X150755505Y-116530914D01*
X150566207Y-116625729D01*
X150363697Y-116696487D01*
X150148048Y-116743142D01*
X150145587Y-116743505D01*
X150104058Y-116747149D01*
X150041388Y-116749852D01*
X149963373Y-116751487D01*
X149875808Y-116751930D01*
X149784487Y-116751052D01*
X149720484Y-116749767D01*
X149625523Y-116746790D01*
X149549428Y-116742528D01*
X149486712Y-116736526D01*
X149431885Y-116728329D01*
X149379460Y-116717482D01*
X149320477Y-116703465D01*
X149258940Y-116687503D01*
X149203286Y-116670758D01*
X149148463Y-116651268D01*
X149089422Y-116627073D01*
X149021111Y-116596210D01*
X148938478Y-116556719D01*
X148836473Y-116506639D01*
X148554352Y-116367215D01*
X148780313Y-115996067D01*
X148809896Y-115947490D01*
X148863043Y-115860289D01*
X148910614Y-115782331D01*
X148950868Y-115716458D01*
X148982068Y-115665516D01*
X149002476Y-115632347D01*
X149010352Y-115619795D01*
X149012542Y-115620170D01*
X149030188Y-115632454D01*
X149061189Y-115657947D01*
X149100647Y-115692694D01*
X149170920Y-115752729D01*
X149296371Y-115841506D01*
X149418089Y-115903394D01*
X149506045Y-115934300D01*
X149654817Y-115965885D01*
X149800989Y-115971484D01*
X149942443Y-115951477D01*
X150077058Y-115906246D01*
X150202714Y-115836173D01*
X150317293Y-115741639D01*
X150381049Y-115672011D01*
X150470867Y-115543224D01*
X150544567Y-115393773D01*
X150602501Y-115222892D01*
X150645021Y-115029817D01*
X150646951Y-115017831D01*
X150655863Y-114940143D01*
X150662497Y-114843617D01*
X150666800Y-114734849D01*
X150668719Y-114620434D01*
X150668198Y-114506968D01*
X150665185Y-114401046D01*
X150659626Y-114309263D01*
X150651467Y-114238217D01*
X150620194Y-114077280D01*
X150567574Y-113889286D01*
X150501395Y-113724700D01*
X150421747Y-113583649D01*
X150328717Y-113466260D01*
X150222394Y-113372663D01*
X150102867Y-113302982D01*
X149970224Y-113257347D01*
X149940795Y-113251683D01*
X149867044Y-113244288D01*
X149780856Y-113241874D01*
X149691884Y-113244308D01*
X149609786Y-113251460D01*
X149544217Y-113263195D01*
X149434986Y-113300561D01*
X149308227Y-113368778D01*
X149195358Y-113458550D01*
X149175437Y-113477461D01*
X149139340Y-113510918D01*
X149113829Y-113533438D01*
X149103464Y-113540928D01*
X149100913Y-113537346D01*
X149085206Y-113514723D01*
X149056832Y-113473647D01*
X149017664Y-113416836D01*
X148969578Y-113347012D01*
X148914448Y-113266893D01*
X148854149Y-113179201D01*
X148607514Y-112820402D01*
X148662611Y-112803895D01*
X148668360Y-112802024D01*
X148705785Y-112787166D01*
X148759744Y-112763208D01*
X148823902Y-112733031D01*
X148891929Y-112699517D01*
X148921572Y-112684700D01*
X149086176Y-112608201D01*
X149237890Y-112549045D01*
X149382548Y-112505718D01*
X149525986Y-112476707D01*
X149674038Y-112460499D01*
X149832541Y-112455580D01*
X149942847Y-112458078D01*
G37*
X149942847Y-112458078D02*
X150127348Y-112475015D01*
X150298749Y-112509174D01*
X150463427Y-112561991D01*
X150627756Y-112634905D01*
X150790424Y-112728001D01*
X150964999Y-112854914D01*
X151126888Y-113001650D01*
X151272528Y-113164576D01*
X151398352Y-113340059D01*
X151500797Y-113524468D01*
X151510096Y-113544196D01*
X151587973Y-113734613D01*
X151647148Y-113932477D01*
X151688387Y-114141570D01*
X151712452Y-114365670D01*
X151720111Y-114608559D01*
X151710799Y-114859643D01*
X151681244Y-115106912D01*
X151630987Y-115338383D01*
X151559577Y-115555699D01*
X151466566Y-115760502D01*
X151351504Y-115954433D01*
X151243422Y-116102594D01*
X151094184Y-116269300D01*
X150931521Y-116412089D01*
X150755505Y-116530914D01*
X150566207Y-116625729D01*
X150363697Y-116696487D01*
X150148048Y-116743142D01*
X150145587Y-116743505D01*
X150104058Y-116747149D01*
X150041388Y-116749852D01*
X149963373Y-116751487D01*
X149875808Y-116751930D01*
X149784487Y-116751052D01*
X149720484Y-116749767D01*
X149625523Y-116746790D01*
X149549428Y-116742528D01*
X149486712Y-116736526D01*
X149431885Y-116728329D01*
X149379460Y-116717482D01*
X149320477Y-116703465D01*
X149258940Y-116687503D01*
X149203286Y-116670758D01*
X149148463Y-116651268D01*
X149089422Y-116627073D01*
X149021111Y-116596210D01*
X148938478Y-116556719D01*
X148836473Y-116506639D01*
X148554352Y-116367215D01*
X148780313Y-115996067D01*
X148809896Y-115947490D01*
X148863043Y-115860289D01*
X148910614Y-115782331D01*
X148950868Y-115716458D01*
X148982068Y-115665516D01*
X149002476Y-115632347D01*
X149010352Y-115619795D01*
X149012542Y-115620170D01*
X149030188Y-115632454D01*
X149061189Y-115657947D01*
X149100647Y-115692694D01*
X149170920Y-115752729D01*
X149296371Y-115841506D01*
X149418089Y-115903394D01*
X149506045Y-115934300D01*
X149654817Y-115965885D01*
X149800989Y-115971484D01*
X149942443Y-115951477D01*
X150077058Y-115906246D01*
X150202714Y-115836173D01*
X150317293Y-115741639D01*
X150381049Y-115672011D01*
X150470867Y-115543224D01*
X150544567Y-115393773D01*
X150602501Y-115222892D01*
X150645021Y-115029817D01*
X150646951Y-115017831D01*
X150655863Y-114940143D01*
X150662497Y-114843617D01*
X150666800Y-114734849D01*
X150668719Y-114620434D01*
X150668198Y-114506968D01*
X150665185Y-114401046D01*
X150659626Y-114309263D01*
X150651467Y-114238217D01*
X150620194Y-114077280D01*
X150567574Y-113889286D01*
X150501395Y-113724700D01*
X150421747Y-113583649D01*
X150328717Y-113466260D01*
X150222394Y-113372663D01*
X150102867Y-113302982D01*
X149970224Y-113257347D01*
X149940795Y-113251683D01*
X149867044Y-113244288D01*
X149780856Y-113241874D01*
X149691884Y-113244308D01*
X149609786Y-113251460D01*
X149544217Y-113263195D01*
X149434986Y-113300561D01*
X149308227Y-113368778D01*
X149195358Y-113458550D01*
X149175437Y-113477461D01*
X149139340Y-113510918D01*
X149113829Y-113533438D01*
X149103464Y-113540928D01*
X149100913Y-113537346D01*
X149085206Y-113514723D01*
X149056832Y-113473647D01*
X149017664Y-113416836D01*
X148969578Y-113347012D01*
X148914448Y-113266893D01*
X148854149Y-113179201D01*
X148607514Y-112820402D01*
X148662611Y-112803895D01*
X148668360Y-112802024D01*
X148705785Y-112787166D01*
X148759744Y-112763208D01*
X148823902Y-112733031D01*
X148891929Y-112699517D01*
X148921572Y-112684700D01*
X149086176Y-112608201D01*
X149237890Y-112549045D01*
X149382548Y-112505718D01*
X149525986Y-112476707D01*
X149674038Y-112460499D01*
X149832541Y-112455580D01*
X149942847Y-112458078D01*
X146946495Y-113564229D02*
X146878469Y-113569378D01*
X146878469Y-113569378D02*
X146683837Y-113595273D01*
X146683837Y-113595273D02*
X146511471Y-113636575D01*
X146511471Y-113636575D02*
X146360530Y-113693853D01*
X146360530Y-113693853D02*
X146230175Y-113767674D01*
X146230175Y-113767674D02*
X146119566Y-113858608D01*
X146119566Y-113858608D02*
X146027865Y-113967222D01*
X146027865Y-113967222D02*
X145954230Y-114094085D01*
X145954230Y-114094085D02*
X145900461Y-114231352D01*
X145900461Y-114231352D02*
X145886813Y-114275137D01*
X145886813Y-114275137D02*
X145874927Y-114316141D01*
X145874927Y-114316141D02*
X145864666Y-114356569D01*
X145864666Y-114356569D02*
X145855887Y-114398630D01*
X145855887Y-114398630D02*
X145848452Y-114444531D01*
X145848452Y-114444531D02*
X145842220Y-114496480D01*
X145842220Y-114496480D02*
X145837050Y-114556685D01*
X145837050Y-114556685D02*
X145832804Y-114627352D01*
X145832804Y-114627352D02*
X145829340Y-114710689D01*
X145829340Y-114710689D02*
X145826519Y-114808905D01*
X145826519Y-114808905D02*
X145824200Y-114924205D01*
X145824200Y-114924205D02*
X145822243Y-115058799D01*
X145822243Y-115058799D02*
X145820509Y-115214893D01*
X145820509Y-115214893D02*
X145818857Y-115394695D01*
X145818857Y-115394695D02*
X145817676Y-115535676D01*
X145817676Y-115535676D02*
X145809730Y-116503622D01*
X145809730Y-116503622D02*
X145758244Y-116596770D01*
X145758244Y-116596770D02*
X145733863Y-116641645D01*
X145733863Y-116641645D02*
X145715720Y-116676501D01*
X145715720Y-116676501D02*
X145707065Y-116695054D01*
X145707065Y-116695054D02*
X145706757Y-116696311D01*
X145706757Y-116696311D02*
X145719986Y-116697749D01*
X145719986Y-116697749D02*
X145757674Y-116699074D01*
X145757674Y-116699074D02*
X145816817Y-116700249D01*
X145816817Y-116700249D02*
X145894414Y-116701237D01*
X145894414Y-116701237D02*
X145987464Y-116701999D01*
X145987464Y-116701999D02*
X146092965Y-116702500D01*
X146092965Y-116702500D02*
X146207916Y-116702701D01*
X146207916Y-116702701D02*
X146221622Y-116702703D01*
X146221622Y-116702703D02*
X146736487Y-116702703D01*
X146736487Y-116702703D02*
X146736487Y-116586000D01*
X146736487Y-116586000D02*
X146737365Y-116533260D01*
X146737365Y-116533260D02*
X146739708Y-116492926D01*
X146739708Y-116492926D02*
X146743079Y-116471300D01*
X146743079Y-116471300D02*
X146744569Y-116469298D01*
X146744569Y-116469298D02*
X146758196Y-116477683D01*
X146758196Y-116477683D02*
X146786243Y-116499692D01*
X146786243Y-116499692D02*
X146822697Y-116530601D01*
X146822697Y-116530601D02*
X146823515Y-116531316D01*
X146823515Y-116531316D02*
X146890038Y-116580843D01*
X146890038Y-116580843D02*
X146974052Y-116630575D01*
X146974052Y-116630575D02*
X147066063Y-116675626D01*
X147066063Y-116675626D02*
X147156579Y-116711110D01*
X147156579Y-116711110D02*
X147196433Y-116723236D01*
X147196433Y-116723236D02*
X147275745Y-116738637D01*
X147275745Y-116738637D02*
X147373065Y-116748465D01*
X147373065Y-116748465D02*
X147479484Y-116752580D01*
X147479484Y-116752580D02*
X147586093Y-116750841D01*
X147586093Y-116750841D02*
X147683983Y-116743108D01*
X147683983Y-116743108D02*
X147752487Y-116731981D01*
X147752487Y-116731981D02*
X147920480Y-116682648D01*
X147920480Y-116682648D02*
X148071719Y-116612342D01*
X148071719Y-116612342D02*
X148205218Y-116521933D01*
X148205218Y-116521933D02*
X148319994Y-116412295D01*
X148319994Y-116412295D02*
X148415063Y-116284299D01*
X148415063Y-116284299D02*
X148489440Y-116138818D01*
X148489440Y-116138818D02*
X148521526Y-116050541D01*
X148521526Y-116050541D02*
X148541635Y-115964739D01*
X148541635Y-115964739D02*
X148554962Y-115861736D01*
X148554962Y-115861736D02*
X148561128Y-115751034D01*
X148561128Y-115751034D02*
X148560926Y-115734925D01*
X148560926Y-115734925D02*
X147632352Y-115734925D01*
X147632352Y-115734925D02*
X147624652Y-115817184D01*
X147624652Y-115817184D02*
X147599011Y-115885546D01*
X147599011Y-115885546D02*
X147551622Y-115948970D01*
X147551622Y-115948970D02*
X147533421Y-115967567D01*
X147533421Y-115967567D02*
X147468718Y-116017846D01*
X147468718Y-116017846D02*
X147393934Y-116050056D01*
X147393934Y-116050056D02*
X147304338Y-116065648D01*
X147304338Y-116065648D02*
X147209988Y-116066796D01*
X147209988Y-116066796D02*
X147120499Y-116059216D01*
X147120499Y-116059216D02*
X147051982Y-116044389D01*
X147051982Y-116044389D02*
X147022225Y-116033253D01*
X147022225Y-116033253D02*
X146968592Y-116002904D01*
X146968592Y-116002904D02*
X146911765Y-115960221D01*
X146911765Y-115960221D02*
X146859918Y-115912317D01*
X146859918Y-115912317D02*
X146821222Y-115866301D01*
X146821222Y-115866301D02*
X146810946Y-115849421D01*
X146810946Y-115849421D02*
X146802958Y-115825782D01*
X146802958Y-115825782D02*
X146797279Y-115788168D01*
X146797279Y-115788168D02*
X146793644Y-115732985D01*
X146793644Y-115732985D02*
X146791789Y-115656640D01*
X146791789Y-115656640D02*
X146791406Y-115583981D01*
X146791406Y-115583981D02*
X146791665Y-115499270D01*
X146791665Y-115499270D02*
X146792713Y-115438018D01*
X146792713Y-115438018D02*
X146794955Y-115396227D01*
X146794955Y-115396227D02*
X146798794Y-115369899D01*
X146798794Y-115369899D02*
X146804635Y-115355035D01*
X146804635Y-115355035D02*
X146812882Y-115347639D01*
X146812882Y-115347639D02*
X146815433Y-115346461D01*
X146815433Y-115346461D02*
X146837600Y-115342833D01*
X146837600Y-115342833D02*
X146881320Y-115339866D01*
X146881320Y-115339866D02*
X146940689Y-115337827D01*
X146940689Y-115337827D02*
X147009804Y-115336983D01*
X147009804Y-115336983D02*
X147024811Y-115336982D01*
X147024811Y-115336982D02*
X147117195Y-115338457D01*
X147117195Y-115338457D02*
X147188568Y-115342842D01*
X147188568Y-115342842D02*
X147245281Y-115350738D01*
X147245281Y-115350738D02*
X147292128Y-115362270D01*
X147292128Y-115362270D02*
X147408331Y-115406215D01*
X147408331Y-115406215D02*
X147499457Y-115460243D01*
X147499457Y-115460243D02*
X147566295Y-115525219D01*
X147566295Y-115525219D02*
X147609635Y-115602005D01*
X147609635Y-115602005D02*
X147630266Y-115691467D01*
X147630266Y-115691467D02*
X147632352Y-115734925D01*
X147632352Y-115734925D02*
X148560926Y-115734925D01*
X148560926Y-115734925D02*
X148559756Y-115642133D01*
X148559756Y-115642133D02*
X148550468Y-115544536D01*
X148550468Y-115544536D02*
X148543223Y-115505105D01*
X148543223Y-115505105D02*
X148496961Y-115358701D01*
X148496961Y-115358701D02*
X148426616Y-115223995D01*
X148426616Y-115223995D02*
X148333516Y-115102280D01*
X148333516Y-115102280D02*
X148218988Y-114994847D01*
X148218988Y-114994847D02*
X148084360Y-114902988D01*
X148084360Y-114902988D02*
X147930960Y-114827996D01*
X147930960Y-114827996D02*
X147800541Y-114782458D01*
X147800541Y-114782458D02*
X147713377Y-114758533D01*
X147713377Y-114758533D02*
X147630004Y-114739943D01*
X147630004Y-114739943D02*
X147545024Y-114726084D01*
X147545024Y-114726084D02*
X147453035Y-114716351D01*
X147453035Y-114716351D02*
X147348638Y-114710141D01*
X147348638Y-114710141D02*
X147226432Y-114706851D01*
X147226432Y-114706851D02*
X147115945Y-114705924D01*
X147115945Y-114705924D02*
X146788323Y-114705027D01*
X146788323Y-114705027D02*
X146794599Y-114606547D01*
X146794599Y-114606547D02*
X146812421Y-114499695D01*
X146812421Y-114499695D02*
X146850333Y-114407852D01*
X146850333Y-114407852D02*
X146906720Y-114333310D01*
X146906720Y-114333310D02*
X146979969Y-114278364D01*
X146979969Y-114278364D02*
X147044465Y-114251552D01*
X147044465Y-114251552D02*
X147136877Y-114234654D01*
X147136877Y-114234654D02*
X147246889Y-114232227D01*
X147246889Y-114232227D02*
X147369344Y-114243378D01*
X147369344Y-114243378D02*
X147499086Y-114267210D01*
X147499086Y-114267210D02*
X147630958Y-114302830D01*
X147630958Y-114302830D02*
X147759802Y-114349343D01*
X147759802Y-114349343D02*
X147853434Y-114391883D01*
X147853434Y-114391883D02*
X147898483Y-114413728D01*
X147898483Y-114413728D02*
X147932844Y-114428984D01*
X147932844Y-114428984D02*
X147950319Y-114434937D01*
X147950319Y-114434937D02*
X147951267Y-114434746D01*
X147951267Y-114434746D02*
X147957297Y-114421412D01*
X147957297Y-114421412D02*
X147972355Y-114386068D01*
X147972355Y-114386068D02*
X147995023Y-114332101D01*
X147995023Y-114332101D02*
X148023885Y-114262896D01*
X148023885Y-114262896D02*
X148057523Y-114181840D01*
X148057523Y-114181840D02*
X148091716Y-114099118D01*
X148091716Y-114099118D02*
X148228414Y-113767803D01*
X148228414Y-113767803D02*
X148131180Y-113751833D01*
X148131180Y-113751833D02*
X148089036Y-113743820D01*
X148089036Y-113743820D02*
X148025681Y-113730361D01*
X148025681Y-113730361D02*
X147946543Y-113712679D01*
X147946543Y-113712679D02*
X147857049Y-113691996D01*
X147857049Y-113691996D02*
X147762627Y-113669532D01*
X147762627Y-113669532D02*
X147725027Y-113660403D01*
X147725027Y-113660403D02*
X147562363Y-113622674D01*
X147562363Y-113622674D02*
X147419950Y-113594388D01*
X147419950Y-113594388D02*
X147292473Y-113574972D01*
X147292473Y-113574972D02*
X147174616Y-113563854D01*
X147174616Y-113563854D02*
X147061062Y-113560464D01*
X147061062Y-113560464D02*
X146946495Y-113564229D01*
X146946495Y-113564229D02*
X146946495Y-113564229D01*
G36*
X148554962Y-115861736D02*
G01*
X148541635Y-115964739D01*
X148521526Y-116050541D01*
X148489440Y-116138818D01*
X148415063Y-116284299D01*
X148319994Y-116412295D01*
X148205218Y-116521933D01*
X148071719Y-116612342D01*
X147920480Y-116682648D01*
X147752487Y-116731981D01*
X147683983Y-116743108D01*
X147586093Y-116750841D01*
X147479484Y-116752580D01*
X147373065Y-116748465D01*
X147275745Y-116738637D01*
X147196433Y-116723236D01*
X147156579Y-116711110D01*
X147066063Y-116675626D01*
X146974052Y-116630575D01*
X146890038Y-116580843D01*
X146823515Y-116531316D01*
X146822697Y-116530601D01*
X146786243Y-116499692D01*
X146758196Y-116477683D01*
X146744569Y-116469298D01*
X146743079Y-116471300D01*
X146739708Y-116492926D01*
X146737365Y-116533260D01*
X146736487Y-116586000D01*
X146736487Y-116702703D01*
X146221622Y-116702703D01*
X146207916Y-116702701D01*
X146092965Y-116702500D01*
X145987464Y-116701999D01*
X145894414Y-116701237D01*
X145816817Y-116700249D01*
X145757674Y-116699074D01*
X145719986Y-116697749D01*
X145706757Y-116696311D01*
X145707065Y-116695054D01*
X145715720Y-116676501D01*
X145733863Y-116641645D01*
X145758244Y-116596770D01*
X145809730Y-116503622D01*
X145817279Y-115583981D01*
X146791406Y-115583981D01*
X146791789Y-115656640D01*
X146793644Y-115732985D01*
X146797279Y-115788168D01*
X146802958Y-115825782D01*
X146810946Y-115849421D01*
X146821222Y-115866301D01*
X146859918Y-115912317D01*
X146911765Y-115960221D01*
X146968592Y-116002904D01*
X147022225Y-116033253D01*
X147051982Y-116044389D01*
X147120499Y-116059216D01*
X147209988Y-116066796D01*
X147304338Y-116065648D01*
X147393934Y-116050056D01*
X147468718Y-116017846D01*
X147533421Y-115967567D01*
X147551622Y-115948970D01*
X147599011Y-115885546D01*
X147624652Y-115817184D01*
X147632352Y-115734925D01*
X147630266Y-115691467D01*
X147609635Y-115602005D01*
X147566295Y-115525219D01*
X147499457Y-115460243D01*
X147408331Y-115406215D01*
X147292128Y-115362270D01*
X147245281Y-115350738D01*
X147188568Y-115342842D01*
X147117195Y-115338457D01*
X147024811Y-115336982D01*
X147009804Y-115336983D01*
X146940689Y-115337827D01*
X146881320Y-115339866D01*
X146837600Y-115342833D01*
X146815433Y-115346461D01*
X146812882Y-115347639D01*
X146804635Y-115355035D01*
X146798794Y-115369899D01*
X146794955Y-115396227D01*
X146792713Y-115438018D01*
X146791665Y-115499270D01*
X146791406Y-115583981D01*
X145817279Y-115583981D01*
X145817676Y-115535676D01*
X145818857Y-115394695D01*
X145820509Y-115214893D01*
X145822243Y-115058799D01*
X145824200Y-114924205D01*
X145826519Y-114808905D01*
X145829340Y-114710689D01*
X145832804Y-114627352D01*
X145837050Y-114556685D01*
X145842220Y-114496480D01*
X145848452Y-114444531D01*
X145855887Y-114398630D01*
X145864666Y-114356569D01*
X145874927Y-114316141D01*
X145886813Y-114275137D01*
X145900461Y-114231352D01*
X145954230Y-114094085D01*
X146027865Y-113967222D01*
X146119566Y-113858608D01*
X146230175Y-113767674D01*
X146360530Y-113693853D01*
X146511471Y-113636575D01*
X146683837Y-113595273D01*
X146878469Y-113569378D01*
X146946495Y-113564229D01*
X147061062Y-113560464D01*
X147174616Y-113563854D01*
X147292473Y-113574972D01*
X147419950Y-113594388D01*
X147562363Y-113622674D01*
X147725027Y-113660403D01*
X147762627Y-113669532D01*
X147857049Y-113691996D01*
X147946543Y-113712679D01*
X148025681Y-113730361D01*
X148089036Y-113743820D01*
X148131180Y-113751833D01*
X148228414Y-113767803D01*
X148091716Y-114099118D01*
X148057523Y-114181840D01*
X148023885Y-114262896D01*
X147995023Y-114332101D01*
X147972355Y-114386068D01*
X147957297Y-114421412D01*
X147951267Y-114434746D01*
X147950319Y-114434937D01*
X147932844Y-114428984D01*
X147898483Y-114413728D01*
X147853434Y-114391883D01*
X147759802Y-114349343D01*
X147630958Y-114302830D01*
X147499086Y-114267210D01*
X147369344Y-114243378D01*
X147246889Y-114232227D01*
X147136877Y-114234654D01*
X147044465Y-114251552D01*
X146979969Y-114278364D01*
X146906720Y-114333310D01*
X146850333Y-114407852D01*
X146812421Y-114499695D01*
X146794599Y-114606547D01*
X146788323Y-114705027D01*
X147115945Y-114705924D01*
X147226432Y-114706851D01*
X147348638Y-114710141D01*
X147453035Y-114716351D01*
X147545024Y-114726084D01*
X147630004Y-114739943D01*
X147713377Y-114758533D01*
X147800541Y-114782458D01*
X147930960Y-114827996D01*
X148084360Y-114902988D01*
X148218988Y-114994847D01*
X148333516Y-115102280D01*
X148426616Y-115223995D01*
X148496961Y-115358701D01*
X148543223Y-115505105D01*
X148550468Y-115544536D01*
X148559756Y-115642133D01*
X148560926Y-115734925D01*
X148561128Y-115751034D01*
X148554962Y-115861736D01*
G37*
X148554962Y-115861736D02*
X148541635Y-115964739D01*
X148521526Y-116050541D01*
X148489440Y-116138818D01*
X148415063Y-116284299D01*
X148319994Y-116412295D01*
X148205218Y-116521933D01*
X148071719Y-116612342D01*
X147920480Y-116682648D01*
X147752487Y-116731981D01*
X147683983Y-116743108D01*
X147586093Y-116750841D01*
X147479484Y-116752580D01*
X147373065Y-116748465D01*
X147275745Y-116738637D01*
X147196433Y-116723236D01*
X147156579Y-116711110D01*
X147066063Y-116675626D01*
X146974052Y-116630575D01*
X146890038Y-116580843D01*
X146823515Y-116531316D01*
X146822697Y-116530601D01*
X146786243Y-116499692D01*
X146758196Y-116477683D01*
X146744569Y-116469298D01*
X146743079Y-116471300D01*
X146739708Y-116492926D01*
X146737365Y-116533260D01*
X146736487Y-116586000D01*
X146736487Y-116702703D01*
X146221622Y-116702703D01*
X146207916Y-116702701D01*
X146092965Y-116702500D01*
X145987464Y-116701999D01*
X145894414Y-116701237D01*
X145816817Y-116700249D01*
X145757674Y-116699074D01*
X145719986Y-116697749D01*
X145706757Y-116696311D01*
X145707065Y-116695054D01*
X145715720Y-116676501D01*
X145733863Y-116641645D01*
X145758244Y-116596770D01*
X145809730Y-116503622D01*
X145817279Y-115583981D01*
X146791406Y-115583981D01*
X146791789Y-115656640D01*
X146793644Y-115732985D01*
X146797279Y-115788168D01*
X146802958Y-115825782D01*
X146810946Y-115849421D01*
X146821222Y-115866301D01*
X146859918Y-115912317D01*
X146911765Y-115960221D01*
X146968592Y-116002904D01*
X147022225Y-116033253D01*
X147051982Y-116044389D01*
X147120499Y-116059216D01*
X147209988Y-116066796D01*
X147304338Y-116065648D01*
X147393934Y-116050056D01*
X147468718Y-116017846D01*
X147533421Y-115967567D01*
X147551622Y-115948970D01*
X147599011Y-115885546D01*
X147624652Y-115817184D01*
X147632352Y-115734925D01*
X147630266Y-115691467D01*
X147609635Y-115602005D01*
X147566295Y-115525219D01*
X147499457Y-115460243D01*
X147408331Y-115406215D01*
X147292128Y-115362270D01*
X147245281Y-115350738D01*
X147188568Y-115342842D01*
X147117195Y-115338457D01*
X147024811Y-115336982D01*
X147009804Y-115336983D01*
X146940689Y-115337827D01*
X146881320Y-115339866D01*
X146837600Y-115342833D01*
X146815433Y-115346461D01*
X146812882Y-115347639D01*
X146804635Y-115355035D01*
X146798794Y-115369899D01*
X146794955Y-115396227D01*
X146792713Y-115438018D01*
X146791665Y-115499270D01*
X146791406Y-115583981D01*
X145817279Y-115583981D01*
X145817676Y-115535676D01*
X145818857Y-115394695D01*
X145820509Y-115214893D01*
X145822243Y-115058799D01*
X145824200Y-114924205D01*
X145826519Y-114808905D01*
X145829340Y-114710689D01*
X145832804Y-114627352D01*
X145837050Y-114556685D01*
X145842220Y-114496480D01*
X145848452Y-114444531D01*
X145855887Y-114398630D01*
X145864666Y-114356569D01*
X145874927Y-114316141D01*
X145886813Y-114275137D01*
X145900461Y-114231352D01*
X145954230Y-114094085D01*
X146027865Y-113967222D01*
X146119566Y-113858608D01*
X146230175Y-113767674D01*
X146360530Y-113693853D01*
X146511471Y-113636575D01*
X146683837Y-113595273D01*
X146878469Y-113569378D01*
X146946495Y-113564229D01*
X147061062Y-113560464D01*
X147174616Y-113563854D01*
X147292473Y-113574972D01*
X147419950Y-113594388D01*
X147562363Y-113622674D01*
X147725027Y-113660403D01*
X147762627Y-113669532D01*
X147857049Y-113691996D01*
X147946543Y-113712679D01*
X148025681Y-113730361D01*
X148089036Y-113743820D01*
X148131180Y-113751833D01*
X148228414Y-113767803D01*
X148091716Y-114099118D01*
X148057523Y-114181840D01*
X148023885Y-114262896D01*
X147995023Y-114332101D01*
X147972355Y-114386068D01*
X147957297Y-114421412D01*
X147951267Y-114434746D01*
X147950319Y-114434937D01*
X147932844Y-114428984D01*
X147898483Y-114413728D01*
X147853434Y-114391883D01*
X147759802Y-114349343D01*
X147630958Y-114302830D01*
X147499086Y-114267210D01*
X147369344Y-114243378D01*
X147246889Y-114232227D01*
X147136877Y-114234654D01*
X147044465Y-114251552D01*
X146979969Y-114278364D01*
X146906720Y-114333310D01*
X146850333Y-114407852D01*
X146812421Y-114499695D01*
X146794599Y-114606547D01*
X146788323Y-114705027D01*
X147115945Y-114705924D01*
X147226432Y-114706851D01*
X147348638Y-114710141D01*
X147453035Y-114716351D01*
X147545024Y-114726084D01*
X147630004Y-114739943D01*
X147713377Y-114758533D01*
X147800541Y-114782458D01*
X147930960Y-114827996D01*
X148084360Y-114902988D01*
X148218988Y-114994847D01*
X148333516Y-115102280D01*
X148426616Y-115223995D01*
X148496961Y-115358701D01*
X148543223Y-115505105D01*
X148550468Y-115544536D01*
X148559756Y-115642133D01*
X148560926Y-115734925D01*
X148561128Y-115751034D01*
X148554962Y-115861736D01*
X143271730Y-112256825D02*
X143154959Y-112257304D01*
X143154959Y-112257304D02*
X143115271Y-112257545D01*
X143115271Y-112257545D02*
X142569514Y-112261135D01*
X142569514Y-112261135D02*
X142562649Y-114354919D01*
X142562649Y-114354919D02*
X142561742Y-114638842D01*
X142561742Y-114638842D02*
X142560938Y-114896640D01*
X142560938Y-114896640D02*
X142560185Y-115129646D01*
X142560185Y-115129646D02*
X142559431Y-115339194D01*
X142559431Y-115339194D02*
X142558625Y-115526618D01*
X142558625Y-115526618D02*
X142557715Y-115693250D01*
X142557715Y-115693250D02*
X142556649Y-115840425D01*
X142556649Y-115840425D02*
X142555376Y-115969477D01*
X142555376Y-115969477D02*
X142553844Y-116081739D01*
X142553844Y-116081739D02*
X142552002Y-116178544D01*
X142552002Y-116178544D02*
X142549797Y-116261226D01*
X142549797Y-116261226D02*
X142547178Y-116331119D01*
X142547178Y-116331119D02*
X142544094Y-116389557D01*
X142544094Y-116389557D02*
X142540492Y-116437872D01*
X142540492Y-116437872D02*
X142536322Y-116477400D01*
X142536322Y-116477400D02*
X142531531Y-116509473D01*
X142531531Y-116509473D02*
X142526069Y-116535424D01*
X142526069Y-116535424D02*
X142519882Y-116556589D01*
X142519882Y-116556589D02*
X142512920Y-116574299D01*
X142512920Y-116574299D02*
X142505131Y-116589889D01*
X142505131Y-116589889D02*
X142496463Y-116604693D01*
X142496463Y-116604693D02*
X142486865Y-116620044D01*
X142486865Y-116620044D02*
X142476285Y-116637276D01*
X142476285Y-116637276D02*
X142474116Y-116640946D01*
X142474116Y-116640946D02*
X142437732Y-116703031D01*
X142437732Y-116703031D02*
X142963569Y-116699434D01*
X142963569Y-116699434D02*
X143489406Y-116695838D01*
X143489406Y-116695838D02*
X143496271Y-116580331D01*
X143496271Y-116580331D02*
X143500008Y-116524899D01*
X143500008Y-116524899D02*
X143503903Y-116492851D01*
X143503903Y-116492851D02*
X143509189Y-116480135D01*
X143509189Y-116480135D02*
X143517097Y-116482696D01*
X143517097Y-116482696D02*
X143523730Y-116490024D01*
X143523730Y-116490024D02*
X143552626Y-116516714D01*
X143552626Y-116516714D02*
X143599721Y-116551021D01*
X143599721Y-116551021D02*
X143658380Y-116588846D01*
X143658380Y-116588846D02*
X143721969Y-116626090D01*
X143721969Y-116626090D02*
X143783851Y-116658653D01*
X143783851Y-116658653D02*
X143831366Y-116680077D01*
X143831366Y-116680077D02*
X143942684Y-116715283D01*
X143942684Y-116715283D02*
X144070404Y-116740222D01*
X144070404Y-116740222D02*
X144205099Y-116753941D01*
X144205099Y-116753941D02*
X144337337Y-116755486D01*
X144337337Y-116755486D02*
X144457692Y-116743906D01*
X144457692Y-116743906D02*
X144459674Y-116743574D01*
X144459674Y-116743574D02*
X144624359Y-116702250D01*
X144624359Y-116702250D02*
X144778521Y-116636412D01*
X144778521Y-116636412D02*
X144920672Y-116547474D01*
X144920672Y-116547474D02*
X145049325Y-116436852D01*
X145049325Y-116436852D02*
X145162993Y-116305961D01*
X145162993Y-116305961D02*
X145260190Y-116156216D01*
X145260190Y-116156216D02*
X145339428Y-115989033D01*
X145339428Y-115989033D02*
X145382570Y-115865190D01*
X145382570Y-115865190D02*
X145411021Y-115761581D01*
X145411021Y-115761581D02*
X145432120Y-115661252D01*
X145432120Y-115661252D02*
X145446512Y-115558109D01*
X145446512Y-115558109D02*
X145454842Y-115446057D01*
X145454842Y-115446057D02*
X145457755Y-115319001D01*
X145457755Y-115319001D02*
X145456465Y-115215252D01*
X145456465Y-115215252D02*
X144443350Y-115215252D01*
X144443350Y-115215252D02*
X144438556Y-115389222D01*
X144438556Y-115389222D02*
X144423432Y-115538895D01*
X144423432Y-115538895D02*
X144397515Y-115665597D01*
X144397515Y-115665597D02*
X144360337Y-115770658D01*
X144360337Y-115770658D02*
X144311435Y-115855406D01*
X144311435Y-115855406D02*
X144250342Y-115921169D01*
X144250342Y-115921169D02*
X144179823Y-115967659D01*
X144179823Y-115967659D02*
X144143129Y-115985014D01*
X144143129Y-115985014D02*
X144111304Y-115995419D01*
X144111304Y-115995419D02*
X144075823Y-116000179D01*
X144075823Y-116000179D02*
X144028159Y-116000601D01*
X144028159Y-116000601D02*
X143976811Y-115998748D01*
X143976811Y-115998748D02*
X143875831Y-115989841D01*
X143875831Y-115989841D02*
X143795965Y-115972398D01*
X143795965Y-115972398D02*
X143770865Y-115963661D01*
X143770865Y-115963661D02*
X143713552Y-115937857D01*
X143713552Y-115937857D02*
X143653103Y-115905453D01*
X143653103Y-115905453D02*
X143626703Y-115889233D01*
X143626703Y-115889233D02*
X143558054Y-115844205D01*
X143558054Y-115844205D02*
X143558054Y-114416982D01*
X143558054Y-114416982D02*
X143633568Y-114371718D01*
X143633568Y-114371718D02*
X143738879Y-114320572D01*
X143738879Y-114320572D02*
X143846475Y-114290324D01*
X143846475Y-114290324D02*
X143952419Y-114280795D01*
X143952419Y-114280795D02*
X144052776Y-114291807D01*
X144052776Y-114291807D02*
X144143613Y-114323181D01*
X144143613Y-114323181D02*
X144220993Y-114374740D01*
X144220993Y-114374740D02*
X144245961Y-114399488D01*
X144245961Y-114399488D02*
X144306144Y-114480577D01*
X144306144Y-114480577D02*
X144354855Y-114578734D01*
X144354855Y-114578734D02*
X144392501Y-114695643D01*
X144392501Y-114695643D02*
X144419488Y-114832985D01*
X144419488Y-114832985D02*
X144436225Y-114992444D01*
X144436225Y-114992444D02*
X144443117Y-115175700D01*
X144443117Y-115175700D02*
X144443350Y-115215252D01*
X144443350Y-115215252D02*
X145456465Y-115215252D01*
X145456465Y-115215252D02*
X145455927Y-115172067D01*
X145455927Y-115172067D02*
X145444353Y-114946053D01*
X145444353Y-114946053D02*
X145421080Y-114742192D01*
X145421080Y-114742192D02*
X145385496Y-114557513D01*
X145385496Y-114557513D02*
X145336987Y-114389048D01*
X145336987Y-114389048D02*
X145274940Y-114233826D01*
X145274940Y-114233826D02*
X145252799Y-114187808D01*
X145252799Y-114187808D02*
X145163615Y-114037739D01*
X145163615Y-114037739D02*
X145055841Y-113904377D01*
X145055841Y-113904377D02*
X144932010Y-113789877D01*
X144932010Y-113789877D02*
X144794658Y-113696389D01*
X144794658Y-113696389D02*
X144646317Y-113626068D01*
X144646317Y-113626068D02*
X144557396Y-113597060D01*
X144557396Y-113597060D02*
X144470067Y-113579840D01*
X144470067Y-113579840D02*
X144364989Y-113569594D01*
X144364989Y-113569594D02*
X144250971Y-113566318D01*
X144250971Y-113566318D02*
X144136823Y-113570009D01*
X144136823Y-113570009D02*
X144031352Y-113580660D01*
X144031352Y-113580660D02*
X143946666Y-113597370D01*
X143946666Y-113597370D02*
X143845872Y-113630140D01*
X143845872Y-113630140D02*
X143748178Y-113672279D01*
X143748178Y-113672279D02*
X143662704Y-113719519D01*
X143662704Y-113719519D02*
X143617211Y-113751581D01*
X143617211Y-113751581D02*
X143585831Y-113775422D01*
X143585831Y-113775422D02*
X143563858Y-113789939D01*
X143563858Y-113789939D02*
X143558859Y-113792000D01*
X143558859Y-113792000D02*
X143557310Y-113778718D01*
X143557310Y-113778718D02*
X143555865Y-113740663D01*
X143555865Y-113740663D02*
X143554557Y-113680519D01*
X143554557Y-113680519D02*
X143553417Y-113600973D01*
X143553417Y-113600973D02*
X143552479Y-113504711D01*
X143552479Y-113504711D02*
X143551774Y-113394419D01*
X143551774Y-113394419D02*
X143551333Y-113272781D01*
X143551333Y-113272781D02*
X143551189Y-113148885D01*
X143551189Y-113148885D02*
X143551270Y-112990196D01*
X143551270Y-112990196D02*
X143551665Y-112856408D01*
X143551665Y-112856408D02*
X143552605Y-112744960D01*
X143552605Y-112744960D02*
X143554320Y-112653295D01*
X143554320Y-112653295D02*
X143557043Y-112578853D01*
X143557043Y-112578853D02*
X143561003Y-112519075D01*
X143561003Y-112519075D02*
X143566431Y-112471402D01*
X143566431Y-112471402D02*
X143573559Y-112433274D01*
X143573559Y-112433274D02*
X143582616Y-112402134D01*
X143582616Y-112402134D02*
X143593833Y-112375421D01*
X143593833Y-112375421D02*
X143607442Y-112350577D01*
X143607442Y-112350577D02*
X143623672Y-112325043D01*
X143623672Y-112325043D02*
X143625760Y-112321881D01*
X143625760Y-112321881D02*
X143646694Y-112288810D01*
X143646694Y-112288810D02*
X143659333Y-112266069D01*
X143659333Y-112266069D02*
X143661027Y-112261272D01*
X143661027Y-112261272D02*
X143647784Y-112259759D01*
X143647784Y-112259759D02*
X143609998Y-112258528D01*
X143609998Y-112258528D02*
X143550584Y-112257599D01*
X143550584Y-112257599D02*
X143472458Y-112256992D01*
X143472458Y-112256992D02*
X143378535Y-112256727D01*
X143378535Y-112256727D02*
X143271730Y-112256825D01*
X143271730Y-112256825D02*
X143271730Y-112256825D01*
G36*
X145454842Y-115446057D02*
G01*
X145446512Y-115558109D01*
X145432120Y-115661252D01*
X145411021Y-115761581D01*
X145382570Y-115865190D01*
X145339428Y-115989033D01*
X145260190Y-116156216D01*
X145162993Y-116305961D01*
X145049325Y-116436852D01*
X144920672Y-116547474D01*
X144778521Y-116636412D01*
X144624359Y-116702250D01*
X144459674Y-116743574D01*
X144457692Y-116743906D01*
X144337337Y-116755486D01*
X144205099Y-116753941D01*
X144070404Y-116740222D01*
X143942684Y-116715283D01*
X143831366Y-116680077D01*
X143783851Y-116658653D01*
X143721969Y-116626090D01*
X143658380Y-116588846D01*
X143599721Y-116551021D01*
X143552626Y-116516714D01*
X143523730Y-116490024D01*
X143517097Y-116482696D01*
X143509189Y-116480135D01*
X143503903Y-116492851D01*
X143500008Y-116524899D01*
X143496271Y-116580331D01*
X143489406Y-116695838D01*
X142963569Y-116699434D01*
X142437732Y-116703031D01*
X142474116Y-116640946D01*
X142476285Y-116637276D01*
X142486865Y-116620044D01*
X142496463Y-116604693D01*
X142505131Y-116589889D01*
X142512920Y-116574299D01*
X142519882Y-116556589D01*
X142526069Y-116535424D01*
X142531531Y-116509473D01*
X142536322Y-116477400D01*
X142540492Y-116437872D01*
X142544094Y-116389557D01*
X142547178Y-116331119D01*
X142549797Y-116261226D01*
X142552002Y-116178544D01*
X142553844Y-116081739D01*
X142555376Y-115969477D01*
X142556612Y-115844205D01*
X143558054Y-115844205D01*
X143626703Y-115889233D01*
X143653103Y-115905453D01*
X143713552Y-115937857D01*
X143770865Y-115963661D01*
X143795965Y-115972398D01*
X143875831Y-115989841D01*
X143976811Y-115998748D01*
X144028159Y-116000601D01*
X144075823Y-116000179D01*
X144111304Y-115995419D01*
X144143129Y-115985014D01*
X144179823Y-115967659D01*
X144250342Y-115921169D01*
X144311435Y-115855406D01*
X144360337Y-115770658D01*
X144397515Y-115665597D01*
X144423432Y-115538895D01*
X144438556Y-115389222D01*
X144443350Y-115215252D01*
X144443117Y-115175700D01*
X144436225Y-114992444D01*
X144419488Y-114832985D01*
X144392501Y-114695643D01*
X144354855Y-114578734D01*
X144306144Y-114480577D01*
X144245961Y-114399488D01*
X144220993Y-114374740D01*
X144143613Y-114323181D01*
X144052776Y-114291807D01*
X143952419Y-114280795D01*
X143846475Y-114290324D01*
X143738879Y-114320572D01*
X143633568Y-114371718D01*
X143558054Y-114416982D01*
X143558054Y-115844205D01*
X142556612Y-115844205D01*
X142556649Y-115840425D01*
X142557715Y-115693250D01*
X142558625Y-115526618D01*
X142559431Y-115339194D01*
X142560185Y-115129646D01*
X142560938Y-114896640D01*
X142561742Y-114638842D01*
X142562649Y-114354919D01*
X142569514Y-112261135D01*
X143115271Y-112257545D01*
X143154959Y-112257304D01*
X143271730Y-112256825D01*
X143378535Y-112256727D01*
X143472458Y-112256992D01*
X143550584Y-112257599D01*
X143609998Y-112258528D01*
X143647784Y-112259759D01*
X143661027Y-112261272D01*
X143659333Y-112266069D01*
X143646694Y-112288810D01*
X143625760Y-112321881D01*
X143623672Y-112325043D01*
X143607442Y-112350577D01*
X143593833Y-112375421D01*
X143582616Y-112402134D01*
X143573559Y-112433274D01*
X143566431Y-112471402D01*
X143561003Y-112519075D01*
X143557043Y-112578853D01*
X143554320Y-112653295D01*
X143552605Y-112744960D01*
X143551665Y-112856408D01*
X143551270Y-112990196D01*
X143551189Y-113148885D01*
X143551333Y-113272781D01*
X143551774Y-113394419D01*
X143552479Y-113504711D01*
X143553417Y-113600973D01*
X143554557Y-113680519D01*
X143555865Y-113740663D01*
X143557310Y-113778718D01*
X143558859Y-113792000D01*
X143563858Y-113789939D01*
X143585831Y-113775422D01*
X143617211Y-113751581D01*
X143662704Y-113719519D01*
X143748178Y-113672279D01*
X143845872Y-113630140D01*
X143946666Y-113597370D01*
X144031352Y-113580660D01*
X144136823Y-113570009D01*
X144250971Y-113566318D01*
X144364989Y-113569594D01*
X144470067Y-113579840D01*
X144557396Y-113597060D01*
X144646317Y-113626068D01*
X144794658Y-113696389D01*
X144932010Y-113789877D01*
X145055841Y-113904377D01*
X145163615Y-114037739D01*
X145252799Y-114187808D01*
X145274940Y-114233826D01*
X145336987Y-114389048D01*
X145385496Y-114557513D01*
X145421080Y-114742192D01*
X145444353Y-114946053D01*
X145455927Y-115172067D01*
X145456465Y-115215252D01*
X145457755Y-115319001D01*
X145454842Y-115446057D01*
G37*
X145454842Y-115446057D02*
X145446512Y-115558109D01*
X145432120Y-115661252D01*
X145411021Y-115761581D01*
X145382570Y-115865190D01*
X145339428Y-115989033D01*
X145260190Y-116156216D01*
X145162993Y-116305961D01*
X145049325Y-116436852D01*
X144920672Y-116547474D01*
X144778521Y-116636412D01*
X144624359Y-116702250D01*
X144459674Y-116743574D01*
X144457692Y-116743906D01*
X144337337Y-116755486D01*
X144205099Y-116753941D01*
X144070404Y-116740222D01*
X143942684Y-116715283D01*
X143831366Y-116680077D01*
X143783851Y-116658653D01*
X143721969Y-116626090D01*
X143658380Y-116588846D01*
X143599721Y-116551021D01*
X143552626Y-116516714D01*
X143523730Y-116490024D01*
X143517097Y-116482696D01*
X143509189Y-116480135D01*
X143503903Y-116492851D01*
X143500008Y-116524899D01*
X143496271Y-116580331D01*
X143489406Y-116695838D01*
X142963569Y-116699434D01*
X142437732Y-116703031D01*
X142474116Y-116640946D01*
X142476285Y-116637276D01*
X142486865Y-116620044D01*
X142496463Y-116604693D01*
X142505131Y-116589889D01*
X142512920Y-116574299D01*
X142519882Y-116556589D01*
X142526069Y-116535424D01*
X142531531Y-116509473D01*
X142536322Y-116477400D01*
X142540492Y-116437872D01*
X142544094Y-116389557D01*
X142547178Y-116331119D01*
X142549797Y-116261226D01*
X142552002Y-116178544D01*
X142553844Y-116081739D01*
X142555376Y-115969477D01*
X142556612Y-115844205D01*
X143558054Y-115844205D01*
X143626703Y-115889233D01*
X143653103Y-115905453D01*
X143713552Y-115937857D01*
X143770865Y-115963661D01*
X143795965Y-115972398D01*
X143875831Y-115989841D01*
X143976811Y-115998748D01*
X144028159Y-116000601D01*
X144075823Y-116000179D01*
X144111304Y-115995419D01*
X144143129Y-115985014D01*
X144179823Y-115967659D01*
X144250342Y-115921169D01*
X144311435Y-115855406D01*
X144360337Y-115770658D01*
X144397515Y-115665597D01*
X144423432Y-115538895D01*
X144438556Y-115389222D01*
X144443350Y-115215252D01*
X144443117Y-115175700D01*
X144436225Y-114992444D01*
X144419488Y-114832985D01*
X144392501Y-114695643D01*
X144354855Y-114578734D01*
X144306144Y-114480577D01*
X144245961Y-114399488D01*
X144220993Y-114374740D01*
X144143613Y-114323181D01*
X144052776Y-114291807D01*
X143952419Y-114280795D01*
X143846475Y-114290324D01*
X143738879Y-114320572D01*
X143633568Y-114371718D01*
X143558054Y-114416982D01*
X143558054Y-115844205D01*
X142556612Y-115844205D01*
X142556649Y-115840425D01*
X142557715Y-115693250D01*
X142558625Y-115526618D01*
X142559431Y-115339194D01*
X142560185Y-115129646D01*
X142560938Y-114896640D01*
X142561742Y-114638842D01*
X142562649Y-114354919D01*
X142569514Y-112261135D01*
X143115271Y-112257545D01*
X143154959Y-112257304D01*
X143271730Y-112256825D01*
X143378535Y-112256727D01*
X143472458Y-112256992D01*
X143550584Y-112257599D01*
X143609998Y-112258528D01*
X143647784Y-112259759D01*
X143661027Y-112261272D01*
X143659333Y-112266069D01*
X143646694Y-112288810D01*
X143625760Y-112321881D01*
X143623672Y-112325043D01*
X143607442Y-112350577D01*
X143593833Y-112375421D01*
X143582616Y-112402134D01*
X143573559Y-112433274D01*
X143566431Y-112471402D01*
X143561003Y-112519075D01*
X143557043Y-112578853D01*
X143554320Y-112653295D01*
X143552605Y-112744960D01*
X143551665Y-112856408D01*
X143551270Y-112990196D01*
X143551189Y-113148885D01*
X143551333Y-113272781D01*
X143551774Y-113394419D01*
X143552479Y-113504711D01*
X143553417Y-113600973D01*
X143554557Y-113680519D01*
X143555865Y-113740663D01*
X143557310Y-113778718D01*
X143558859Y-113792000D01*
X143563858Y-113789939D01*
X143585831Y-113775422D01*
X143617211Y-113751581D01*
X143662704Y-113719519D01*
X143748178Y-113672279D01*
X143845872Y-113630140D01*
X143946666Y-113597370D01*
X144031352Y-113580660D01*
X144136823Y-113570009D01*
X144250971Y-113566318D01*
X144364989Y-113569594D01*
X144470067Y-113579840D01*
X144557396Y-113597060D01*
X144646317Y-113626068D01*
X144794658Y-113696389D01*
X144932010Y-113789877D01*
X145055841Y-113904377D01*
X145163615Y-114037739D01*
X145252799Y-114187808D01*
X145274940Y-114233826D01*
X145336987Y-114389048D01*
X145385496Y-114557513D01*
X145421080Y-114742192D01*
X145444353Y-114946053D01*
X145455927Y-115172067D01*
X145456465Y-115215252D01*
X145457755Y-115319001D01*
X145454842Y-115446057D01*
X152840079Y-111336490D02*
X152736973Y-111372238D01*
X152736973Y-111372238D02*
X152640978Y-111428507D01*
X152640978Y-111428507D02*
X152555247Y-111505288D01*
X152555247Y-111505288D02*
X152482930Y-111602573D01*
X152482930Y-111602573D02*
X152450445Y-111663892D01*
X152450445Y-111663892D02*
X152422332Y-111749660D01*
X152422332Y-111749660D02*
X152408705Y-111848677D01*
X152408705Y-111848677D02*
X152410214Y-111950471D01*
X152410214Y-111950471D02*
X152426969Y-112042714D01*
X152426969Y-112042714D02*
X152472763Y-112155432D01*
X152472763Y-112155432D02*
X152539168Y-112253207D01*
X152539168Y-112253207D02*
X152622809Y-112334115D01*
X152622809Y-112334115D02*
X152720312Y-112396232D01*
X152720312Y-112396232D02*
X152828300Y-112437634D01*
X152828300Y-112437634D02*
X152943399Y-112456397D01*
X152943399Y-112456397D02*
X153062234Y-112450598D01*
X153062234Y-112450598D02*
X153120811Y-112438206D01*
X153120811Y-112438206D02*
X153234972Y-112393797D01*
X153234972Y-112393797D02*
X153336365Y-112326033D01*
X153336365Y-112326033D02*
X153422545Y-112237001D01*
X153422545Y-112237001D02*
X153491066Y-112128791D01*
X153491066Y-112128791D02*
X153496864Y-112116973D01*
X153496864Y-112116973D02*
X153516904Y-112072628D01*
X153516904Y-112072628D02*
X153529487Y-112035280D01*
X153529487Y-112035280D02*
X153536319Y-111995880D01*
X153536319Y-111995880D02*
X153539105Y-111945381D01*
X153539105Y-111945381D02*
X153539568Y-111890433D01*
X153539568Y-111890433D02*
X153538803Y-111824415D01*
X153538803Y-111824415D02*
X153535352Y-111776689D01*
X153535352Y-111776689D02*
X153527477Y-111738103D01*
X153527477Y-111738103D02*
X153513443Y-111699506D01*
X153513443Y-111699506D02*
X153496120Y-111661426D01*
X153496120Y-111661426D02*
X153431505Y-111553328D01*
X153431505Y-111553328D02*
X153351934Y-111465803D01*
X153351934Y-111465803D02*
X153260560Y-111398841D01*
X153260560Y-111398841D02*
X153160536Y-111352436D01*
X153160536Y-111352436D02*
X153055012Y-111326581D01*
X153055012Y-111326581D02*
X152947142Y-111321268D01*
X152947142Y-111321268D02*
X152840079Y-111336490D01*
X152840079Y-111336490D02*
X152840079Y-111336490D01*
G36*
X153055012Y-111326581D02*
G01*
X153160536Y-111352436D01*
X153260560Y-111398841D01*
X153351934Y-111465803D01*
X153431505Y-111553328D01*
X153496120Y-111661426D01*
X153513443Y-111699506D01*
X153527477Y-111738103D01*
X153535352Y-111776689D01*
X153538803Y-111824415D01*
X153539568Y-111890433D01*
X153539105Y-111945381D01*
X153536319Y-111995880D01*
X153529487Y-112035280D01*
X153516904Y-112072628D01*
X153496864Y-112116973D01*
X153491066Y-112128791D01*
X153422545Y-112237001D01*
X153336365Y-112326033D01*
X153234972Y-112393797D01*
X153120811Y-112438206D01*
X153062234Y-112450598D01*
X152943399Y-112456397D01*
X152828300Y-112437634D01*
X152720312Y-112396232D01*
X152622809Y-112334115D01*
X152539168Y-112253207D01*
X152472763Y-112155432D01*
X152426969Y-112042714D01*
X152410214Y-111950471D01*
X152408705Y-111848677D01*
X152422332Y-111749660D01*
X152450445Y-111663892D01*
X152482930Y-111602573D01*
X152555247Y-111505288D01*
X152640978Y-111428507D01*
X152736973Y-111372238D01*
X152840079Y-111336490D01*
X152947142Y-111321268D01*
X153055012Y-111326581D01*
G37*
X153055012Y-111326581D02*
X153160536Y-111352436D01*
X153260560Y-111398841D01*
X153351934Y-111465803D01*
X153431505Y-111553328D01*
X153496120Y-111661426D01*
X153513443Y-111699506D01*
X153527477Y-111738103D01*
X153535352Y-111776689D01*
X153538803Y-111824415D01*
X153539568Y-111890433D01*
X153539105Y-111945381D01*
X153536319Y-111995880D01*
X153529487Y-112035280D01*
X153516904Y-112072628D01*
X153496864Y-112116973D01*
X153491066Y-112128791D01*
X153422545Y-112237001D01*
X153336365Y-112326033D01*
X153234972Y-112393797D01*
X153120811Y-112438206D01*
X153062234Y-112450598D01*
X152943399Y-112456397D01*
X152828300Y-112437634D01*
X152720312Y-112396232D01*
X152622809Y-112334115D01*
X152539168Y-112253207D01*
X152472763Y-112155432D01*
X152426969Y-112042714D01*
X152410214Y-111950471D01*
X152408705Y-111848677D01*
X152422332Y-111749660D01*
X152450445Y-111663892D01*
X152482930Y-111602573D01*
X152555247Y-111505288D01*
X152640978Y-111428507D01*
X152736973Y-111372238D01*
X152840079Y-111336490D01*
X152947142Y-111321268D01*
X153055012Y-111326581D01*
X143873469Y-117940725D02*
X143842090Y-117962968D01*
X143842090Y-117962968D02*
X143814381Y-117990677D01*
X143814381Y-117990677D02*
X143814381Y-118300112D01*
X143814381Y-118300112D02*
X143814454Y-118391991D01*
X143814454Y-118391991D02*
X143814797Y-118464032D01*
X143814797Y-118464032D02*
X143815600Y-118518972D01*
X143815600Y-118518972D02*
X143817051Y-118559552D01*
X143817051Y-118559552D02*
X143819340Y-118588509D01*
X143819340Y-118588509D02*
X143822656Y-118608583D01*
X143822656Y-118608583D02*
X143827187Y-118622513D01*
X143827187Y-118622513D02*
X143833123Y-118633037D01*
X143833123Y-118633037D02*
X143837778Y-118639292D01*
X143837778Y-118639292D02*
X143868509Y-118663865D01*
X143868509Y-118663865D02*
X143903796Y-118666533D01*
X143903796Y-118666533D02*
X143936047Y-118651463D01*
X143936047Y-118651463D02*
X143946704Y-118642566D01*
X143946704Y-118642566D02*
X143953828Y-118630749D01*
X143953828Y-118630749D02*
X143958125Y-118611718D01*
X143958125Y-118611718D02*
X143960301Y-118581184D01*
X143960301Y-118581184D02*
X143961064Y-118534854D01*
X143961064Y-118534854D02*
X143961137Y-118499063D01*
X143961137Y-118499063D02*
X143961137Y-118364237D01*
X143961137Y-118364237D02*
X144457848Y-118364237D01*
X144457848Y-118364237D02*
X144457848Y-118486892D01*
X144457848Y-118486892D02*
X144458361Y-118542979D01*
X144458361Y-118542979D02*
X144460416Y-118581525D01*
X144460416Y-118581525D02*
X144464784Y-118607553D01*
X144464784Y-118607553D02*
X144472236Y-118626089D01*
X144472236Y-118626089D02*
X144481245Y-118639292D01*
X144481245Y-118639292D02*
X144512148Y-118663796D01*
X144512148Y-118663796D02*
X144547096Y-118666698D01*
X144547096Y-118666698D02*
X144580554Y-118649281D01*
X144580554Y-118649281D02*
X144589688Y-118640151D01*
X144589688Y-118640151D02*
X144596140Y-118628047D01*
X144596140Y-118628047D02*
X144600395Y-118609193D01*
X144600395Y-118609193D02*
X144602940Y-118579812D01*
X144602940Y-118579812D02*
X144604263Y-118536129D01*
X144604263Y-118536129D02*
X144604849Y-118474367D01*
X144604849Y-118474367D02*
X144604917Y-118460192D01*
X144604917Y-118460192D02*
X144605401Y-118343823D01*
X144605401Y-118343823D02*
X144605651Y-118247919D01*
X144605651Y-118247919D02*
X144605569Y-118170369D01*
X144605569Y-118170369D02*
X144605061Y-118109061D01*
X144605061Y-118109061D02*
X144604030Y-118061882D01*
X144604030Y-118061882D02*
X144602379Y-118026722D01*
X144602379Y-118026722D02*
X144600013Y-118001468D01*
X144600013Y-118001468D02*
X144596835Y-117984009D01*
X144596835Y-117984009D02*
X144592748Y-117972233D01*
X144592748Y-117972233D02*
X144587658Y-117964027D01*
X144587658Y-117964027D02*
X144582026Y-117957837D01*
X144582026Y-117957837D02*
X144550164Y-117938036D01*
X144550164Y-117938036D02*
X144516935Y-117940725D01*
X144516935Y-117940725D02*
X144485557Y-117962968D01*
X144485557Y-117962968D02*
X144472859Y-117977318D01*
X144472859Y-117977318D02*
X144464766Y-117993170D01*
X144464766Y-117993170D02*
X144460250Y-118015746D01*
X144460250Y-118015746D02*
X144458286Y-118050270D01*
X144458286Y-118050270D02*
X144457848Y-118101968D01*
X144457848Y-118101968D02*
X144457848Y-118217481D01*
X144457848Y-118217481D02*
X143961137Y-118217481D01*
X143961137Y-118217481D02*
X143961137Y-118098948D01*
X143961137Y-118098948D02*
X143960630Y-118044340D01*
X143960630Y-118044340D02*
X143958594Y-118007467D01*
X143958594Y-118007467D02*
X143954257Y-117983499D01*
X143954257Y-117983499D02*
X143946845Y-117967607D01*
X143946845Y-117967607D02*
X143938559Y-117957837D01*
X143938559Y-117957837D02*
X143906698Y-117938036D01*
X143906698Y-117938036D02*
X143873469Y-117940725D01*
X143873469Y-117940725D02*
X143873469Y-117940725D01*
G36*
X144582026Y-117957837D02*
G01*
X144587658Y-117964027D01*
X144592748Y-117972233D01*
X144596835Y-117984009D01*
X144600013Y-118001468D01*
X144602379Y-118026722D01*
X144604030Y-118061882D01*
X144605061Y-118109061D01*
X144605569Y-118170369D01*
X144605651Y-118247919D01*
X144605401Y-118343823D01*
X144604917Y-118460192D01*
X144604849Y-118474367D01*
X144604263Y-118536129D01*
X144602940Y-118579812D01*
X144600395Y-118609193D01*
X144596140Y-118628047D01*
X144589688Y-118640151D01*
X144580554Y-118649281D01*
X144547096Y-118666698D01*
X144512148Y-118663796D01*
X144481245Y-118639292D01*
X144472236Y-118626089D01*
X144464784Y-118607553D01*
X144460416Y-118581525D01*
X144458361Y-118542979D01*
X144457848Y-118486892D01*
X144457848Y-118364237D01*
X143961137Y-118364237D01*
X143961137Y-118499063D01*
X143961064Y-118534854D01*
X143960301Y-118581184D01*
X143958125Y-118611718D01*
X143953828Y-118630749D01*
X143946704Y-118642566D01*
X143936047Y-118651463D01*
X143903796Y-118666533D01*
X143868509Y-118663865D01*
X143837778Y-118639292D01*
X143833123Y-118633037D01*
X143827187Y-118622513D01*
X143822656Y-118608583D01*
X143819340Y-118588509D01*
X143817051Y-118559552D01*
X143815600Y-118518972D01*
X143814797Y-118464032D01*
X143814454Y-118391991D01*
X143814381Y-118300112D01*
X143814381Y-117990677D01*
X143842090Y-117962968D01*
X143873469Y-117940725D01*
X143906698Y-117938036D01*
X143938559Y-117957837D01*
X143946845Y-117967607D01*
X143954257Y-117983499D01*
X143958594Y-118007467D01*
X143960630Y-118044340D01*
X143961137Y-118098948D01*
X143961137Y-118217481D01*
X144457848Y-118217481D01*
X144457848Y-118101968D01*
X144458286Y-118050270D01*
X144460250Y-118015746D01*
X144464766Y-117993170D01*
X144472859Y-117977318D01*
X144485557Y-117962968D01*
X144516935Y-117940725D01*
X144550164Y-117938036D01*
X144582026Y-117957837D01*
G37*
X144582026Y-117957837D02*
X144587658Y-117964027D01*
X144592748Y-117972233D01*
X144596835Y-117984009D01*
X144600013Y-118001468D01*
X144602379Y-118026722D01*
X144604030Y-118061882D01*
X144605061Y-118109061D01*
X144605569Y-118170369D01*
X144605651Y-118247919D01*
X144605401Y-118343823D01*
X144604917Y-118460192D01*
X144604849Y-118474367D01*
X144604263Y-118536129D01*
X144602940Y-118579812D01*
X144600395Y-118609193D01*
X144596140Y-118628047D01*
X144589688Y-118640151D01*
X144580554Y-118649281D01*
X144547096Y-118666698D01*
X144512148Y-118663796D01*
X144481245Y-118639292D01*
X144472236Y-118626089D01*
X144464784Y-118607553D01*
X144460416Y-118581525D01*
X144458361Y-118542979D01*
X144457848Y-118486892D01*
X144457848Y-118364237D01*
X143961137Y-118364237D01*
X143961137Y-118499063D01*
X143961064Y-118534854D01*
X143960301Y-118581184D01*
X143958125Y-118611718D01*
X143953828Y-118630749D01*
X143946704Y-118642566D01*
X143936047Y-118651463D01*
X143903796Y-118666533D01*
X143868509Y-118663865D01*
X143837778Y-118639292D01*
X143833123Y-118633037D01*
X143827187Y-118622513D01*
X143822656Y-118608583D01*
X143819340Y-118588509D01*
X143817051Y-118559552D01*
X143815600Y-118518972D01*
X143814797Y-118464032D01*
X143814454Y-118391991D01*
X143814381Y-118300112D01*
X143814381Y-117990677D01*
X143842090Y-117962968D01*
X143873469Y-117940725D01*
X143906698Y-117938036D01*
X143938559Y-117957837D01*
X143946845Y-117967607D01*
X143954257Y-117983499D01*
X143958594Y-118007467D01*
X143960630Y-118044340D01*
X143961137Y-118098948D01*
X143961137Y-118217481D01*
X144457848Y-118217481D01*
X144457848Y-118101968D01*
X144458286Y-118050270D01*
X144460250Y-118015746D01*
X144464766Y-117993170D01*
X144472859Y-117977318D01*
X144485557Y-117962968D01*
X144516935Y-117940725D01*
X144550164Y-117938036D01*
X144582026Y-117957837D01*
X145139227Y-117935355D02*
X145060520Y-117935734D01*
X145060520Y-117935734D02*
X144999429Y-117936525D01*
X144999429Y-117936525D02*
X144953475Y-117937862D01*
X144953475Y-117937862D02*
X144920178Y-117939875D01*
X144920178Y-117939875D02*
X144897056Y-117942698D01*
X144897056Y-117942698D02*
X144881630Y-117946461D01*
X144881630Y-117946461D02*
X144871421Y-117951297D01*
X144871421Y-117951297D02*
X144866479Y-117955014D01*
X144866479Y-117955014D02*
X144840835Y-117987550D01*
X144840835Y-117987550D02*
X144837733Y-118021330D01*
X144837733Y-118021330D02*
X144853581Y-118052018D01*
X144853581Y-118052018D02*
X144863944Y-118064281D01*
X144863944Y-118064281D02*
X144875096Y-118072642D01*
X144875096Y-118072642D02*
X144891257Y-118077849D01*
X144891257Y-118077849D02*
X144916650Y-118080649D01*
X144916650Y-118080649D02*
X144955494Y-118081788D01*
X144955494Y-118081788D02*
X145012012Y-118082013D01*
X145012012Y-118082013D02*
X145023112Y-118082014D01*
X145023112Y-118082014D02*
X145169048Y-118082014D01*
X145169048Y-118082014D02*
X145169048Y-118352948D01*
X145169048Y-118352948D02*
X145169144Y-118438346D01*
X145169144Y-118438346D02*
X145169581Y-118504056D01*
X145169581Y-118504056D02*
X145170580Y-118552966D01*
X145170580Y-118552966D02*
X145172364Y-118587965D01*
X145172364Y-118587965D02*
X145175155Y-118611941D01*
X145175155Y-118611941D02*
X145179175Y-118627785D01*
X145179175Y-118627785D02*
X145184647Y-118638383D01*
X145184647Y-118638383D02*
X145191626Y-118646459D01*
X145191626Y-118646459D02*
X145224558Y-118666304D01*
X145224558Y-118666304D02*
X145258938Y-118664740D01*
X145258938Y-118664740D02*
X145290116Y-118642098D01*
X145290116Y-118642098D02*
X145292406Y-118639292D01*
X145292406Y-118639292D02*
X145299863Y-118628684D01*
X145299863Y-118628684D02*
X145305545Y-118616273D01*
X145305545Y-118616273D02*
X145309691Y-118599042D01*
X145309691Y-118599042D02*
X145312542Y-118573976D01*
X145312542Y-118573976D02*
X145314338Y-118538059D01*
X145314338Y-118538059D02*
X145315320Y-118488275D01*
X145315320Y-118488275D02*
X145315728Y-118421609D01*
X145315728Y-118421609D02*
X145315803Y-118345781D01*
X145315803Y-118345781D02*
X145315803Y-118082014D01*
X145315803Y-118082014D02*
X145455165Y-118082014D01*
X145455165Y-118082014D02*
X145514970Y-118081610D01*
X145514970Y-118081610D02*
X145556374Y-118080032D01*
X145556374Y-118080032D02*
X145583544Y-118076739D01*
X145583544Y-118076739D02*
X145600646Y-118071184D01*
X145600646Y-118071184D02*
X145611849Y-118062823D01*
X145611849Y-118062823D02*
X145613209Y-118061370D01*
X145613209Y-118061370D02*
X145629567Y-118028131D01*
X145629567Y-118028131D02*
X145628120Y-117990554D01*
X145628120Y-117990554D02*
X145609314Y-117957837D01*
X145609314Y-117957837D02*
X145602042Y-117951490D01*
X145602042Y-117951490D02*
X145592665Y-117946458D01*
X145592665Y-117946458D02*
X145578683Y-117942588D01*
X145578683Y-117942588D02*
X145557596Y-117939729D01*
X145557596Y-117939729D02*
X145526903Y-117937727D01*
X145526903Y-117937727D02*
X145484103Y-117936431D01*
X145484103Y-117936431D02*
X145426697Y-117935690D01*
X145426697Y-117935690D02*
X145352182Y-117935350D01*
X145352182Y-117935350D02*
X145258059Y-117935260D01*
X145258059Y-117935260D02*
X145238032Y-117935259D01*
X145238032Y-117935259D02*
X145139227Y-117935355D01*
X145139227Y-117935355D02*
X145139227Y-117935355D01*
G36*
X145258059Y-117935260D02*
G01*
X145352182Y-117935350D01*
X145426697Y-117935690D01*
X145484103Y-117936431D01*
X145526903Y-117937727D01*
X145557596Y-117939729D01*
X145578683Y-117942588D01*
X145592665Y-117946458D01*
X145602042Y-117951490D01*
X145609314Y-117957837D01*
X145628120Y-117990554D01*
X145629567Y-118028131D01*
X145613209Y-118061370D01*
X145611849Y-118062823D01*
X145600646Y-118071184D01*
X145583544Y-118076739D01*
X145556374Y-118080032D01*
X145514970Y-118081610D01*
X145455165Y-118082014D01*
X145315803Y-118082014D01*
X145315803Y-118345781D01*
X145315728Y-118421609D01*
X145315320Y-118488275D01*
X145314338Y-118538059D01*
X145312542Y-118573976D01*
X145309691Y-118599042D01*
X145305545Y-118616273D01*
X145299863Y-118628684D01*
X145292406Y-118639292D01*
X145290116Y-118642098D01*
X145258938Y-118664740D01*
X145224558Y-118666304D01*
X145191626Y-118646459D01*
X145184647Y-118638383D01*
X145179175Y-118627785D01*
X145175155Y-118611941D01*
X145172364Y-118587965D01*
X145170580Y-118552966D01*
X145169581Y-118504056D01*
X145169144Y-118438346D01*
X145169048Y-118352948D01*
X145169048Y-118082014D01*
X145023112Y-118082014D01*
X145012012Y-118082013D01*
X144955494Y-118081788D01*
X144916650Y-118080649D01*
X144891257Y-118077849D01*
X144875096Y-118072642D01*
X144863944Y-118064281D01*
X144853581Y-118052018D01*
X144837733Y-118021330D01*
X144840835Y-117987550D01*
X144866479Y-117955014D01*
X144871421Y-117951297D01*
X144881630Y-117946461D01*
X144897056Y-117942698D01*
X144920178Y-117939875D01*
X144953475Y-117937862D01*
X144999429Y-117936525D01*
X145060520Y-117935734D01*
X145139227Y-117935355D01*
X145238032Y-117935259D01*
X145258059Y-117935260D01*
G37*
X145258059Y-117935260D02*
X145352182Y-117935350D01*
X145426697Y-117935690D01*
X145484103Y-117936431D01*
X145526903Y-117937727D01*
X145557596Y-117939729D01*
X145578683Y-117942588D01*
X145592665Y-117946458D01*
X145602042Y-117951490D01*
X145609314Y-117957837D01*
X145628120Y-117990554D01*
X145629567Y-118028131D01*
X145613209Y-118061370D01*
X145611849Y-118062823D01*
X145600646Y-118071184D01*
X145583544Y-118076739D01*
X145556374Y-118080032D01*
X145514970Y-118081610D01*
X145455165Y-118082014D01*
X145315803Y-118082014D01*
X145315803Y-118345781D01*
X145315728Y-118421609D01*
X145315320Y-118488275D01*
X145314338Y-118538059D01*
X145312542Y-118573976D01*
X145309691Y-118599042D01*
X145305545Y-118616273D01*
X145299863Y-118628684D01*
X145292406Y-118639292D01*
X145290116Y-118642098D01*
X145258938Y-118664740D01*
X145224558Y-118666304D01*
X145191626Y-118646459D01*
X145184647Y-118638383D01*
X145179175Y-118627785D01*
X145175155Y-118611941D01*
X145172364Y-118587965D01*
X145170580Y-118552966D01*
X145169581Y-118504056D01*
X145169144Y-118438346D01*
X145169048Y-118352948D01*
X145169048Y-118082014D01*
X145023112Y-118082014D01*
X145012012Y-118082013D01*
X144955494Y-118081788D01*
X144916650Y-118080649D01*
X144891257Y-118077849D01*
X144875096Y-118072642D01*
X144863944Y-118064281D01*
X144853581Y-118052018D01*
X144837733Y-118021330D01*
X144840835Y-117987550D01*
X144866479Y-117955014D01*
X144871421Y-117951297D01*
X144881630Y-117946461D01*
X144897056Y-117942698D01*
X144920178Y-117939875D01*
X144953475Y-117937862D01*
X144999429Y-117936525D01*
X145060520Y-117935734D01*
X145139227Y-117935355D01*
X145238032Y-117935259D01*
X145258059Y-117935260D01*
X145913678Y-117942069D02*
X145889965Y-117956839D01*
X145889965Y-117956839D02*
X145863314Y-117978419D01*
X145863314Y-117978419D02*
X145863314Y-118299965D01*
X145863314Y-118299965D02*
X145863399Y-118394022D01*
X145863399Y-118394022D02*
X145863763Y-118468124D01*
X145863763Y-118468124D02*
X145864568Y-118524896D01*
X145864568Y-118524896D02*
X145865979Y-118566960D01*
X145865979Y-118566960D02*
X145868159Y-118596940D01*
X145868159Y-118596940D02*
X145871271Y-118617459D01*
X145871271Y-118617459D02*
X145875478Y-118631141D01*
X145875478Y-118631141D02*
X145880944Y-118640608D01*
X145880944Y-118640608D02*
X145884820Y-118645274D01*
X145884820Y-118645274D02*
X145916258Y-118665767D01*
X145916258Y-118665767D02*
X145952059Y-118664931D01*
X145952059Y-118664931D02*
X145983419Y-118647456D01*
X145983419Y-118647456D02*
X146010070Y-118625876D01*
X146010070Y-118625876D02*
X146010070Y-117978419D01*
X146010070Y-117978419D02*
X145983419Y-117956839D01*
X145983419Y-117956839D02*
X145957698Y-117941141D01*
X145957698Y-117941141D02*
X145936692Y-117935259D01*
X145936692Y-117935259D02*
X145913678Y-117942069D01*
X145913678Y-117942069D02*
X145913678Y-117942069D01*
G36*
X145957698Y-117941141D02*
G01*
X145983419Y-117956839D01*
X146010070Y-117978419D01*
X146010070Y-118625876D01*
X145983419Y-118647456D01*
X145952059Y-118664931D01*
X145916258Y-118665767D01*
X145884820Y-118645274D01*
X145880944Y-118640608D01*
X145875478Y-118631141D01*
X145871271Y-118617459D01*
X145868159Y-118596940D01*
X145865979Y-118566960D01*
X145864568Y-118524896D01*
X145863763Y-118468124D01*
X145863399Y-118394022D01*
X145863314Y-118299965D01*
X145863314Y-117978419D01*
X145889965Y-117956839D01*
X145913678Y-117942069D01*
X145936692Y-117935259D01*
X145957698Y-117941141D01*
G37*
X145957698Y-117941141D02*
X145983419Y-117956839D01*
X146010070Y-117978419D01*
X146010070Y-118625876D01*
X145983419Y-118647456D01*
X145952059Y-118664931D01*
X145916258Y-118665767D01*
X145884820Y-118645274D01*
X145880944Y-118640608D01*
X145875478Y-118631141D01*
X145871271Y-118617459D01*
X145868159Y-118596940D01*
X145865979Y-118566960D01*
X145864568Y-118524896D01*
X145863763Y-118468124D01*
X145863399Y-118394022D01*
X145863314Y-118299965D01*
X145863314Y-117978419D01*
X145889965Y-117956839D01*
X145913678Y-117942069D01*
X145936692Y-117935259D01*
X145957698Y-117941141D01*
X146357627Y-117937226D02*
X146338037Y-117944227D01*
X146338037Y-117944227D02*
X146337282Y-117944569D01*
X146337282Y-117944569D02*
X146310679Y-117964870D01*
X146310679Y-117964870D02*
X146296022Y-117985753D01*
X146296022Y-117985753D02*
X146293154Y-117995544D01*
X146293154Y-117995544D02*
X146293296Y-118008553D01*
X146293296Y-118008553D02*
X146297331Y-118027087D01*
X146297331Y-118027087D02*
X146306146Y-118053449D01*
X146306146Y-118053449D02*
X146320623Y-118089944D01*
X146320623Y-118089944D02*
X146341647Y-118138879D01*
X146341647Y-118138879D02*
X146370104Y-118202557D01*
X146370104Y-118202557D02*
X146406877Y-118283285D01*
X146406877Y-118283285D02*
X146427117Y-118327408D01*
X146427117Y-118327408D02*
X146463667Y-118406177D01*
X146463667Y-118406177D02*
X146497977Y-118478615D01*
X146497977Y-118478615D02*
X146528740Y-118542072D01*
X146528740Y-118542072D02*
X146554644Y-118593900D01*
X146554644Y-118593900D02*
X146574382Y-118631451D01*
X146574382Y-118631451D02*
X146586642Y-118652076D01*
X146586642Y-118652076D02*
X146589068Y-118654925D01*
X146589068Y-118654925D02*
X146620109Y-118667494D01*
X146620109Y-118667494D02*
X146655171Y-118665811D01*
X146655171Y-118665811D02*
X146683292Y-118650524D01*
X146683292Y-118650524D02*
X146684438Y-118649281D01*
X146684438Y-118649281D02*
X146695624Y-118632346D01*
X146695624Y-118632346D02*
X146714388Y-118599362D01*
X146714388Y-118599362D02*
X146738417Y-118554572D01*
X146738417Y-118554572D02*
X146765395Y-118502224D01*
X146765395Y-118502224D02*
X146775091Y-118482934D01*
X146775091Y-118482934D02*
X146848278Y-118336342D01*
X146848278Y-118336342D02*
X146928052Y-118495585D01*
X146928052Y-118495585D02*
X146956525Y-118550607D01*
X146956525Y-118550607D02*
X146982942Y-118598324D01*
X146982942Y-118598324D02*
X147005144Y-118635085D01*
X147005144Y-118635085D02*
X147020973Y-118657236D01*
X147020973Y-118657236D02*
X147026338Y-118661933D01*
X147026338Y-118661933D02*
X147068035Y-118668294D01*
X147068035Y-118668294D02*
X147102443Y-118654925D01*
X147102443Y-118654925D02*
X147112564Y-118640638D01*
X147112564Y-118640638D02*
X147130078Y-118608884D01*
X147130078Y-118608884D02*
X147153557Y-118562789D01*
X147153557Y-118562789D02*
X147181572Y-118505477D01*
X147181572Y-118505477D02*
X147212693Y-118440072D01*
X147212693Y-118440072D02*
X147245493Y-118369699D01*
X147245493Y-118369699D02*
X147278542Y-118297483D01*
X147278542Y-118297483D02*
X147310411Y-118226547D01*
X147310411Y-118226547D02*
X147339673Y-118160017D01*
X147339673Y-118160017D02*
X147364897Y-118101018D01*
X147364897Y-118101018D02*
X147384656Y-118052673D01*
X147384656Y-118052673D02*
X147397520Y-118018107D01*
X147397520Y-118018107D02*
X147402061Y-118000445D01*
X147402061Y-118000445D02*
X147402015Y-117999805D01*
X147402015Y-117999805D02*
X147390966Y-117977580D01*
X147390966Y-117977580D02*
X147368882Y-117954945D01*
X147368882Y-117954945D02*
X147367582Y-117953960D01*
X147367582Y-117953960D02*
X147340439Y-117938617D01*
X147340439Y-117938617D02*
X147315334Y-117938766D01*
X147315334Y-117938766D02*
X147305924Y-117941658D01*
X147305924Y-117941658D02*
X147294458Y-117947910D01*
X147294458Y-117947910D02*
X147282282Y-117960206D01*
X147282282Y-117960206D02*
X147267935Y-117981100D01*
X147267935Y-117981100D02*
X147249956Y-118013141D01*
X147249956Y-118013141D02*
X147226885Y-118058880D01*
X147226885Y-118058880D02*
X147197262Y-118120869D01*
X147197262Y-118120869D02*
X147170547Y-118178090D01*
X147170547Y-118178090D02*
X147139812Y-118244418D01*
X147139812Y-118244418D02*
X147112271Y-118304066D01*
X147112271Y-118304066D02*
X147089354Y-118353917D01*
X147089354Y-118353917D02*
X147072494Y-118390856D01*
X147072494Y-118390856D02*
X147063119Y-118411765D01*
X147063119Y-118411765D02*
X147061752Y-118415037D01*
X147061752Y-118415037D02*
X147055603Y-118409689D01*
X147055603Y-118409689D02*
X147041470Y-118387301D01*
X147041470Y-118387301D02*
X147021235Y-118351138D01*
X147021235Y-118351138D02*
X146996777Y-118304469D01*
X146996777Y-118304469D02*
X146987044Y-118285214D01*
X146987044Y-118285214D02*
X146954075Y-118220196D01*
X146954075Y-118220196D02*
X146928649Y-118172846D01*
X146928649Y-118172846D02*
X146908680Y-118140411D01*
X146908680Y-118140411D02*
X146892082Y-118120138D01*
X146892082Y-118120138D02*
X146876768Y-118109274D01*
X146876768Y-118109274D02*
X146860652Y-118105067D01*
X146860652Y-118105067D02*
X146850149Y-118104592D01*
X146850149Y-118104592D02*
X146831622Y-118106234D01*
X146831622Y-118106234D02*
X146815388Y-118113023D01*
X146815388Y-118113023D02*
X146799257Y-118127758D01*
X146799257Y-118127758D02*
X146781041Y-118153236D01*
X146781041Y-118153236D02*
X146758553Y-118192253D01*
X146758553Y-118192253D02*
X146729603Y-118247606D01*
X146729603Y-118247606D02*
X146713630Y-118279095D01*
X146713630Y-118279095D02*
X146687722Y-118329279D01*
X146687722Y-118329279D02*
X146665125Y-118370896D01*
X146665125Y-118370896D02*
X146647834Y-118400434D01*
X146647834Y-118400434D02*
X146637842Y-118414381D01*
X146637842Y-118414381D02*
X146636483Y-118414962D01*
X146636483Y-118414962D02*
X146630031Y-118403985D01*
X146630031Y-118403985D02*
X146615584Y-118375482D01*
X146615584Y-118375482D02*
X146594589Y-118332436D01*
X146594589Y-118332436D02*
X146568495Y-118277830D01*
X146568495Y-118277830D02*
X146538746Y-118214646D01*
X146538746Y-118214646D02*
X146524112Y-118183263D01*
X146524112Y-118183263D02*
X146486042Y-118102270D01*
X146486042Y-118102270D02*
X146455387Y-118039948D01*
X146455387Y-118039948D02*
X146430555Y-117994263D01*
X146430555Y-117994263D02*
X146409955Y-117963181D01*
X146409955Y-117963181D02*
X146391994Y-117944670D01*
X146391994Y-117944670D02*
X146375082Y-117936696D01*
X146375082Y-117936696D02*
X146357627Y-117937226D01*
X146357627Y-117937226D02*
X146357627Y-117937226D01*
G36*
X146391994Y-117944670D02*
G01*
X146409955Y-117963181D01*
X146430555Y-117994263D01*
X146455387Y-118039948D01*
X146486042Y-118102270D01*
X146524112Y-118183263D01*
X146538746Y-118214646D01*
X146568495Y-118277830D01*
X146594589Y-118332436D01*
X146615584Y-118375482D01*
X146630031Y-118403985D01*
X146636483Y-118414962D01*
X146637842Y-118414381D01*
X146647834Y-118400434D01*
X146665125Y-118370896D01*
X146687722Y-118329279D01*
X146713630Y-118279095D01*
X146729603Y-118247606D01*
X146758553Y-118192253D01*
X146781041Y-118153236D01*
X146799257Y-118127758D01*
X146815388Y-118113023D01*
X146831622Y-118106234D01*
X146850149Y-118104592D01*
X146860652Y-118105067D01*
X146876768Y-118109274D01*
X146892082Y-118120138D01*
X146908680Y-118140411D01*
X146928649Y-118172846D01*
X146954075Y-118220196D01*
X146987044Y-118285214D01*
X146996777Y-118304469D01*
X147021235Y-118351138D01*
X147041470Y-118387301D01*
X147055603Y-118409689D01*
X147061752Y-118415037D01*
X147063119Y-118411765D01*
X147072494Y-118390856D01*
X147089354Y-118353917D01*
X147112271Y-118304066D01*
X147139812Y-118244418D01*
X147170547Y-118178090D01*
X147197262Y-118120869D01*
X147226885Y-118058880D01*
X147249956Y-118013141D01*
X147267935Y-117981100D01*
X147282282Y-117960206D01*
X147294458Y-117947910D01*
X147305924Y-117941658D01*
X147315334Y-117938766D01*
X147340439Y-117938617D01*
X147367582Y-117953960D01*
X147368882Y-117954945D01*
X147390966Y-117977580D01*
X147402015Y-117999805D01*
X147402061Y-118000445D01*
X147397520Y-118018107D01*
X147384656Y-118052673D01*
X147364897Y-118101018D01*
X147339673Y-118160017D01*
X147310411Y-118226547D01*
X147278542Y-118297483D01*
X147245493Y-118369699D01*
X147212693Y-118440072D01*
X147181572Y-118505477D01*
X147153557Y-118562789D01*
X147130078Y-118608884D01*
X147112564Y-118640638D01*
X147102443Y-118654925D01*
X147068035Y-118668294D01*
X147026338Y-118661933D01*
X147020973Y-118657236D01*
X147005144Y-118635085D01*
X146982942Y-118598324D01*
X146956525Y-118550607D01*
X146928052Y-118495585D01*
X146848278Y-118336342D01*
X146775091Y-118482934D01*
X146765395Y-118502224D01*
X146738417Y-118554572D01*
X146714388Y-118599362D01*
X146695624Y-118632346D01*
X146684438Y-118649281D01*
X146683292Y-118650524D01*
X146655171Y-118665811D01*
X146620109Y-118667494D01*
X146589068Y-118654925D01*
X146586642Y-118652076D01*
X146574382Y-118631451D01*
X146554644Y-118593900D01*
X146528740Y-118542072D01*
X146497977Y-118478615D01*
X146463667Y-118406177D01*
X146427117Y-118327408D01*
X146406877Y-118283285D01*
X146370104Y-118202557D01*
X146341647Y-118138879D01*
X146320623Y-118089944D01*
X146306146Y-118053449D01*
X146297331Y-118027087D01*
X146293296Y-118008553D01*
X146293154Y-117995544D01*
X146296022Y-117985753D01*
X146310679Y-117964870D01*
X146337282Y-117944569D01*
X146338037Y-117944227D01*
X146357627Y-117937226D01*
X146375082Y-117936696D01*
X146391994Y-117944670D01*
G37*
X146391994Y-117944670D02*
X146409955Y-117963181D01*
X146430555Y-117994263D01*
X146455387Y-118039948D01*
X146486042Y-118102270D01*
X146524112Y-118183263D01*
X146538746Y-118214646D01*
X146568495Y-118277830D01*
X146594589Y-118332436D01*
X146615584Y-118375482D01*
X146630031Y-118403985D01*
X146636483Y-118414962D01*
X146637842Y-118414381D01*
X146647834Y-118400434D01*
X146665125Y-118370896D01*
X146687722Y-118329279D01*
X146713630Y-118279095D01*
X146729603Y-118247606D01*
X146758553Y-118192253D01*
X146781041Y-118153236D01*
X146799257Y-118127758D01*
X146815388Y-118113023D01*
X146831622Y-118106234D01*
X146850149Y-118104592D01*
X146860652Y-118105067D01*
X146876768Y-118109274D01*
X146892082Y-118120138D01*
X146908680Y-118140411D01*
X146928649Y-118172846D01*
X146954075Y-118220196D01*
X146987044Y-118285214D01*
X146996777Y-118304469D01*
X147021235Y-118351138D01*
X147041470Y-118387301D01*
X147055603Y-118409689D01*
X147061752Y-118415037D01*
X147063119Y-118411765D01*
X147072494Y-118390856D01*
X147089354Y-118353917D01*
X147112271Y-118304066D01*
X147139812Y-118244418D01*
X147170547Y-118178090D01*
X147197262Y-118120869D01*
X147226885Y-118058880D01*
X147249956Y-118013141D01*
X147267935Y-117981100D01*
X147282282Y-117960206D01*
X147294458Y-117947910D01*
X147305924Y-117941658D01*
X147315334Y-117938766D01*
X147340439Y-117938617D01*
X147367582Y-117953960D01*
X147368882Y-117954945D01*
X147390966Y-117977580D01*
X147402015Y-117999805D01*
X147402061Y-118000445D01*
X147397520Y-118018107D01*
X147384656Y-118052673D01*
X147364897Y-118101018D01*
X147339673Y-118160017D01*
X147310411Y-118226547D01*
X147278542Y-118297483D01*
X147245493Y-118369699D01*
X147212693Y-118440072D01*
X147181572Y-118505477D01*
X147153557Y-118562789D01*
X147130078Y-118608884D01*
X147112564Y-118640638D01*
X147102443Y-118654925D01*
X147068035Y-118668294D01*
X147026338Y-118661933D01*
X147020973Y-118657236D01*
X147005144Y-118635085D01*
X146982942Y-118598324D01*
X146956525Y-118550607D01*
X146928052Y-118495585D01*
X146848278Y-118336342D01*
X146775091Y-118482934D01*
X146765395Y-118502224D01*
X146738417Y-118554572D01*
X146714388Y-118599362D01*
X146695624Y-118632346D01*
X146684438Y-118649281D01*
X146683292Y-118650524D01*
X146655171Y-118665811D01*
X146620109Y-118667494D01*
X146589068Y-118654925D01*
X146586642Y-118652076D01*
X146574382Y-118631451D01*
X146554644Y-118593900D01*
X146528740Y-118542072D01*
X146497977Y-118478615D01*
X146463667Y-118406177D01*
X146427117Y-118327408D01*
X146406877Y-118283285D01*
X146370104Y-118202557D01*
X146341647Y-118138879D01*
X146320623Y-118089944D01*
X146306146Y-118053449D01*
X146297331Y-118027087D01*
X146293296Y-118008553D01*
X146293154Y-117995544D01*
X146296022Y-117985753D01*
X146310679Y-117964870D01*
X146337282Y-117944569D01*
X146338037Y-117944227D01*
X146357627Y-117937226D01*
X146375082Y-117936696D01*
X146391994Y-117944670D01*
X149083983Y-117935467D02*
X148955004Y-117939828D01*
X148955004Y-117939828D02*
X148845301Y-117953053D01*
X148845301Y-117953053D02*
X148753066Y-117975933D01*
X148753066Y-117975933D02*
X148676490Y-118009262D01*
X148676490Y-118009262D02*
X148613765Y-118053830D01*
X148613765Y-118053830D02*
X148563080Y-118110428D01*
X148563080Y-118110428D02*
X148522629Y-118179850D01*
X148522629Y-118179850D02*
X148521833Y-118181543D01*
X148521833Y-118181543D02*
X148497691Y-118243675D01*
X148497691Y-118243675D02*
X148489089Y-118298701D01*
X148489089Y-118298701D02*
X148496061Y-118354079D01*
X148496061Y-118354079D02*
X148518638Y-118417265D01*
X148518638Y-118417265D02*
X148522920Y-118426881D01*
X148522920Y-118426881D02*
X148552120Y-118483158D01*
X148552120Y-118483158D02*
X148584936Y-118526643D01*
X148584936Y-118526643D02*
X148627290Y-118563609D01*
X148627290Y-118563609D02*
X148685102Y-118600327D01*
X148685102Y-118600327D02*
X148688461Y-118602244D01*
X148688461Y-118602244D02*
X148738788Y-118626419D01*
X148738788Y-118626419D02*
X148795671Y-118644474D01*
X148795671Y-118644474D02*
X148862765Y-118657031D01*
X148862765Y-118657031D02*
X148943727Y-118664714D01*
X148943727Y-118664714D02*
X149042210Y-118668145D01*
X149042210Y-118668145D02*
X149077006Y-118668443D01*
X149077006Y-118668443D02*
X149242698Y-118669037D01*
X149242698Y-118669037D02*
X149266095Y-118639292D01*
X149266095Y-118639292D02*
X149273035Y-118629511D01*
X149273035Y-118629511D02*
X149278450Y-118618089D01*
X149278450Y-118618089D02*
X149282527Y-118602287D01*
X149282527Y-118602287D02*
X149285455Y-118579367D01*
X149285455Y-118579367D02*
X149287425Y-118546588D01*
X149287425Y-118546588D02*
X149288067Y-118522281D01*
X149288067Y-118522281D02*
X149131448Y-118522281D01*
X149131448Y-118522281D02*
X149037566Y-118522281D01*
X149037566Y-118522281D02*
X148982628Y-118520675D01*
X148982628Y-118520675D02*
X148926232Y-118516447D01*
X148926232Y-118516447D02*
X148879947Y-118510484D01*
X148879947Y-118510484D02*
X148877153Y-118509982D01*
X148877153Y-118509982D02*
X148794944Y-118487928D01*
X148794944Y-118487928D02*
X148731178Y-118454792D01*
X148731178Y-118454792D02*
X148683840Y-118409039D01*
X148683840Y-118409039D02*
X148650910Y-118349131D01*
X148650910Y-118349131D02*
X148645184Y-118333253D01*
X148645184Y-118333253D02*
X148639571Y-118308525D01*
X148639571Y-118308525D02*
X148642001Y-118284094D01*
X148642001Y-118284094D02*
X148653825Y-118251592D01*
X148653825Y-118251592D02*
X148660952Y-118235626D01*
X148660952Y-118235626D02*
X148684292Y-118193198D01*
X148684292Y-118193198D02*
X148712412Y-118163432D01*
X148712412Y-118163432D02*
X148743352Y-118142703D01*
X148743352Y-118142703D02*
X148805326Y-118115729D01*
X148805326Y-118115729D02*
X148884641Y-118096190D01*
X148884641Y-118096190D02*
X148977039Y-118084938D01*
X148977039Y-118084938D02*
X149043959Y-118082462D01*
X149043959Y-118082462D02*
X149131448Y-118082014D01*
X149131448Y-118082014D02*
X149131448Y-118522281D01*
X149131448Y-118522281D02*
X149288067Y-118522281D01*
X149288067Y-118522281D02*
X149288624Y-118501213D01*
X149288624Y-118501213D02*
X149289242Y-118440503D01*
X149289242Y-118440503D02*
X149289467Y-118361718D01*
X149289467Y-118361718D02*
X149289492Y-118300112D01*
X149289492Y-118300112D02*
X149289492Y-117990677D01*
X149289492Y-117990677D02*
X149261783Y-117962968D01*
X149261783Y-117962968D02*
X149249486Y-117951736D01*
X149249486Y-117951736D02*
X149236189Y-117944045D01*
X149236189Y-117944045D02*
X149217620Y-117939232D01*
X149217620Y-117939232D02*
X149189506Y-117936638D01*
X149189506Y-117936638D02*
X149147575Y-117935602D01*
X149147575Y-117935602D02*
X149087555Y-117935462D01*
X149087555Y-117935462D02*
X149083983Y-117935467D01*
X149083983Y-117935467D02*
X149083983Y-117935467D01*
G36*
X149285455Y-118579367D02*
G01*
X149282527Y-118602287D01*
X149278450Y-118618089D01*
X149273035Y-118629511D01*
X149266095Y-118639292D01*
X149242698Y-118669037D01*
X149077006Y-118668443D01*
X149042210Y-118668145D01*
X148943727Y-118664714D01*
X148862765Y-118657031D01*
X148795671Y-118644474D01*
X148738788Y-118626419D01*
X148688461Y-118602244D01*
X148685102Y-118600327D01*
X148627290Y-118563609D01*
X148584936Y-118526643D01*
X148552120Y-118483158D01*
X148522920Y-118426881D01*
X148518638Y-118417265D01*
X148496061Y-118354079D01*
X148490326Y-118308525D01*
X148639571Y-118308525D01*
X148645184Y-118333253D01*
X148650910Y-118349131D01*
X148683840Y-118409039D01*
X148731178Y-118454792D01*
X148794944Y-118487928D01*
X148877153Y-118509982D01*
X148879947Y-118510484D01*
X148926232Y-118516447D01*
X148982628Y-118520675D01*
X149037566Y-118522281D01*
X149131448Y-118522281D01*
X149131448Y-118082014D01*
X149043959Y-118082462D01*
X148977039Y-118084938D01*
X148884641Y-118096190D01*
X148805326Y-118115729D01*
X148743352Y-118142703D01*
X148712412Y-118163432D01*
X148684292Y-118193198D01*
X148660952Y-118235626D01*
X148653825Y-118251592D01*
X148642001Y-118284094D01*
X148639571Y-118308525D01*
X148490326Y-118308525D01*
X148489089Y-118298701D01*
X148497691Y-118243675D01*
X148521833Y-118181543D01*
X148522629Y-118179850D01*
X148563080Y-118110428D01*
X148613765Y-118053830D01*
X148676490Y-118009262D01*
X148753066Y-117975933D01*
X148845301Y-117953053D01*
X148955004Y-117939828D01*
X149083983Y-117935467D01*
X149087555Y-117935462D01*
X149147575Y-117935602D01*
X149189506Y-117936638D01*
X149217620Y-117939232D01*
X149236189Y-117944045D01*
X149249486Y-117951736D01*
X149261783Y-117962968D01*
X149289492Y-117990677D01*
X149289492Y-118300112D01*
X149289467Y-118361718D01*
X149289242Y-118440503D01*
X149288624Y-118501213D01*
X149288067Y-118522281D01*
X149287425Y-118546588D01*
X149285455Y-118579367D01*
G37*
X149285455Y-118579367D02*
X149282527Y-118602287D01*
X149278450Y-118618089D01*
X149273035Y-118629511D01*
X149266095Y-118639292D01*
X149242698Y-118669037D01*
X149077006Y-118668443D01*
X149042210Y-118668145D01*
X148943727Y-118664714D01*
X148862765Y-118657031D01*
X148795671Y-118644474D01*
X148738788Y-118626419D01*
X148688461Y-118602244D01*
X148685102Y-118600327D01*
X148627290Y-118563609D01*
X148584936Y-118526643D01*
X148552120Y-118483158D01*
X148522920Y-118426881D01*
X148518638Y-118417265D01*
X148496061Y-118354079D01*
X148490326Y-118308525D01*
X148639571Y-118308525D01*
X148645184Y-118333253D01*
X148650910Y-118349131D01*
X148683840Y-118409039D01*
X148731178Y-118454792D01*
X148794944Y-118487928D01*
X148877153Y-118509982D01*
X148879947Y-118510484D01*
X148926232Y-118516447D01*
X148982628Y-118520675D01*
X149037566Y-118522281D01*
X149131448Y-118522281D01*
X149131448Y-118082014D01*
X149043959Y-118082462D01*
X148977039Y-118084938D01*
X148884641Y-118096190D01*
X148805326Y-118115729D01*
X148743352Y-118142703D01*
X148712412Y-118163432D01*
X148684292Y-118193198D01*
X148660952Y-118235626D01*
X148653825Y-118251592D01*
X148642001Y-118284094D01*
X148639571Y-118308525D01*
X148490326Y-118308525D01*
X148489089Y-118298701D01*
X148497691Y-118243675D01*
X148521833Y-118181543D01*
X148522629Y-118179850D01*
X148563080Y-118110428D01*
X148613765Y-118053830D01*
X148676490Y-118009262D01*
X148753066Y-117975933D01*
X148845301Y-117953053D01*
X148955004Y-117939828D01*
X149083983Y-117935467D01*
X149087555Y-117935462D01*
X149147575Y-117935602D01*
X149189506Y-117936638D01*
X149217620Y-117939232D01*
X149236189Y-117944045D01*
X149249486Y-117951736D01*
X149261783Y-117962968D01*
X149289492Y-117990677D01*
X149289492Y-118300112D01*
X149289467Y-118361718D01*
X149289242Y-118440503D01*
X149288624Y-118501213D01*
X149288067Y-118522281D01*
X149287425Y-118546588D01*
X149285455Y-118579367D01*
X149871949Y-117935452D02*
X149795591Y-117936366D01*
X149795591Y-117936366D02*
X149737075Y-117938503D01*
X149737075Y-117938503D02*
X149694037Y-117942367D01*
X149694037Y-117942367D02*
X149664109Y-117948459D01*
X149664109Y-117948459D02*
X149644924Y-117957282D01*
X149644924Y-117957282D02*
X149634116Y-117969338D01*
X149634116Y-117969338D02*
X149629319Y-117985131D01*
X149629319Y-117985131D02*
X149628165Y-118005162D01*
X149628165Y-118005162D02*
X149628159Y-118007527D01*
X149628159Y-118007527D02*
X149629161Y-118030184D01*
X149629161Y-118030184D02*
X149633896Y-118047695D01*
X149633896Y-118047695D02*
X149644959Y-118060766D01*
X149644959Y-118060766D02*
X149664944Y-118070105D01*
X149664944Y-118070105D02*
X149696446Y-118076419D01*
X149696446Y-118076419D02*
X149742060Y-118080414D01*
X149742060Y-118080414D02*
X149804379Y-118082798D01*
X149804379Y-118082798D02*
X149885999Y-118084278D01*
X149885999Y-118084278D02*
X149911015Y-118084606D01*
X149911015Y-118084606D02*
X150153092Y-118087659D01*
X150153092Y-118087659D02*
X150156478Y-118152570D01*
X150156478Y-118152570D02*
X150159863Y-118217481D01*
X150159863Y-118217481D02*
X149991716Y-118217481D01*
X149991716Y-118217481D02*
X149926026Y-118217723D01*
X149926026Y-118217723D02*
X149879120Y-118218748D01*
X149879120Y-118218748D02*
X149847209Y-118221003D01*
X149847209Y-118221003D02*
X149826501Y-118224934D01*
X149826501Y-118224934D02*
X149813208Y-118230990D01*
X149813208Y-118230990D02*
X149803537Y-118239616D01*
X149803537Y-118239616D02*
X149803475Y-118239685D01*
X149803475Y-118239685D02*
X149785936Y-118273304D01*
X149785936Y-118273304D02*
X149786570Y-118309640D01*
X149786570Y-118309640D02*
X149804978Y-118340615D01*
X149804978Y-118340615D02*
X149808621Y-118343799D01*
X149808621Y-118343799D02*
X149821551Y-118352004D01*
X149821551Y-118352004D02*
X149839268Y-118357713D01*
X149839268Y-118357713D02*
X149865722Y-118361354D01*
X149865722Y-118361354D02*
X149904860Y-118363359D01*
X149904860Y-118363359D02*
X149960630Y-118364156D01*
X149960630Y-118364156D02*
X149996298Y-118364237D01*
X149996298Y-118364237D02*
X150158737Y-118364237D01*
X150158737Y-118364237D02*
X150158737Y-118522281D01*
X150158737Y-118522281D02*
X149912131Y-118522281D01*
X149912131Y-118522281D02*
X149830712Y-118522423D01*
X149830712Y-118522423D02*
X149768882Y-118523006D01*
X149768882Y-118523006D02*
X149723655Y-118524260D01*
X149723655Y-118524260D02*
X149692044Y-118526419D01*
X149692044Y-118526419D02*
X149671061Y-118529715D01*
X149671061Y-118529715D02*
X149657719Y-118534381D01*
X149657719Y-118534381D02*
X149649031Y-118540649D01*
X149649031Y-118540649D02*
X149646842Y-118542925D01*
X149646842Y-118542925D02*
X149630678Y-118574472D01*
X149630678Y-118574472D02*
X149629495Y-118610360D01*
X149629495Y-118610360D02*
X149642756Y-118641477D01*
X149642756Y-118641477D02*
X149653249Y-118651463D01*
X149653249Y-118651463D02*
X149664163Y-118656961D01*
X149664163Y-118656961D02*
X149681075Y-118661214D01*
X149681075Y-118661214D02*
X149706659Y-118664372D01*
X149706659Y-118664372D02*
X149743591Y-118666584D01*
X149743591Y-118666584D02*
X149794546Y-118667998D01*
X149794546Y-118667998D02*
X149862198Y-118668764D01*
X149862198Y-118668764D02*
X149949223Y-118669030D01*
X149949223Y-118669030D02*
X149968898Y-118669037D01*
X149968898Y-118669037D02*
X150057381Y-118668979D01*
X150057381Y-118668979D02*
X150126065Y-118668659D01*
X150126065Y-118668659D02*
X150177728Y-118667859D01*
X150177728Y-118667859D02*
X150215147Y-118666359D01*
X150215147Y-118666359D02*
X150241102Y-118663941D01*
X150241102Y-118663941D02*
X150258370Y-118660386D01*
X150258370Y-118660386D02*
X150269730Y-118655474D01*
X150269730Y-118655474D02*
X150277960Y-118648987D01*
X150277960Y-118648987D02*
X150282475Y-118644330D01*
X150282475Y-118644330D02*
X150289271Y-118636081D01*
X150289271Y-118636081D02*
X150294580Y-118625861D01*
X150294580Y-118625861D02*
X150298586Y-118610992D01*
X150298586Y-118610992D02*
X150301471Y-118588794D01*
X150301471Y-118588794D02*
X150303418Y-118556585D01*
X150303418Y-118556585D02*
X150304611Y-118511688D01*
X150304611Y-118511688D02*
X150305231Y-118451420D01*
X150305231Y-118451420D02*
X150305463Y-118373103D01*
X150305463Y-118373103D02*
X150305492Y-118307186D01*
X150305492Y-118307186D02*
X150305421Y-118214820D01*
X150305421Y-118214820D02*
X150305084Y-118142309D01*
X150305084Y-118142309D02*
X150304294Y-118086929D01*
X150304294Y-118086929D02*
X150302866Y-118045957D01*
X150302866Y-118045957D02*
X150300613Y-118016670D01*
X150300613Y-118016670D02*
X150297349Y-117996345D01*
X150297349Y-117996345D02*
X150292888Y-117982258D01*
X150292888Y-117982258D02*
X150287044Y-117971687D01*
X150287044Y-117971687D02*
X150282095Y-117965003D01*
X150282095Y-117965003D02*
X150258698Y-117935259D01*
X150258698Y-117935259D02*
X149968518Y-117935259D01*
X149968518Y-117935259D02*
X149871949Y-117935452D01*
X149871949Y-117935452D02*
X149871949Y-117935452D01*
G36*
X150282095Y-117965003D02*
G01*
X150287044Y-117971687D01*
X150292888Y-117982258D01*
X150297349Y-117996345D01*
X150300613Y-118016670D01*
X150302866Y-118045957D01*
X150304294Y-118086929D01*
X150305084Y-118142309D01*
X150305421Y-118214820D01*
X150305492Y-118307186D01*
X150305463Y-118373103D01*
X150305231Y-118451420D01*
X150304611Y-118511688D01*
X150303418Y-118556585D01*
X150301471Y-118588794D01*
X150298586Y-118610992D01*
X150294580Y-118625861D01*
X150289271Y-118636081D01*
X150282475Y-118644330D01*
X150277960Y-118648987D01*
X150269730Y-118655474D01*
X150258370Y-118660386D01*
X150241102Y-118663941D01*
X150215147Y-118666359D01*
X150177728Y-118667859D01*
X150126065Y-118668659D01*
X150057381Y-118668979D01*
X149968898Y-118669037D01*
X149949223Y-118669030D01*
X149862198Y-118668764D01*
X149794546Y-118667998D01*
X149743591Y-118666584D01*
X149706659Y-118664372D01*
X149681075Y-118661214D01*
X149664163Y-118656961D01*
X149653249Y-118651463D01*
X149642756Y-118641477D01*
X149629495Y-118610360D01*
X149630678Y-118574472D01*
X149646842Y-118542925D01*
X149649031Y-118540649D01*
X149657719Y-118534381D01*
X149671061Y-118529715D01*
X149692044Y-118526419D01*
X149723655Y-118524260D01*
X149768882Y-118523006D01*
X149830712Y-118522423D01*
X149912131Y-118522281D01*
X150158737Y-118522281D01*
X150158737Y-118364237D01*
X149996298Y-118364237D01*
X149960630Y-118364156D01*
X149904860Y-118363359D01*
X149865722Y-118361354D01*
X149839268Y-118357713D01*
X149821551Y-118352004D01*
X149808621Y-118343799D01*
X149804978Y-118340615D01*
X149786570Y-118309640D01*
X149785936Y-118273304D01*
X149803475Y-118239685D01*
X149803537Y-118239616D01*
X149813208Y-118230990D01*
X149826501Y-118224934D01*
X149847209Y-118221003D01*
X149879120Y-118218748D01*
X149926026Y-118217723D01*
X149991716Y-118217481D01*
X150159863Y-118217481D01*
X150156478Y-118152570D01*
X150153092Y-118087659D01*
X149911015Y-118084606D01*
X149885999Y-118084278D01*
X149804379Y-118082798D01*
X149742060Y-118080414D01*
X149696446Y-118076419D01*
X149664944Y-118070105D01*
X149644959Y-118060766D01*
X149633896Y-118047695D01*
X149629161Y-118030184D01*
X149628159Y-118007527D01*
X149628165Y-118005162D01*
X149629319Y-117985131D01*
X149634116Y-117969338D01*
X149644924Y-117957282D01*
X149664109Y-117948459D01*
X149694037Y-117942367D01*
X149737075Y-117938503D01*
X149795591Y-117936366D01*
X149871949Y-117935452D01*
X149968518Y-117935259D01*
X150258698Y-117935259D01*
X150282095Y-117965003D01*
G37*
X150282095Y-117965003D02*
X150287044Y-117971687D01*
X150292888Y-117982258D01*
X150297349Y-117996345D01*
X150300613Y-118016670D01*
X150302866Y-118045957D01*
X150304294Y-118086929D01*
X150305084Y-118142309D01*
X150305421Y-118214820D01*
X150305492Y-118307186D01*
X150305463Y-118373103D01*
X150305231Y-118451420D01*
X150304611Y-118511688D01*
X150303418Y-118556585D01*
X150301471Y-118588794D01*
X150298586Y-118610992D01*
X150294580Y-118625861D01*
X150289271Y-118636081D01*
X150282475Y-118644330D01*
X150277960Y-118648987D01*
X150269730Y-118655474D01*
X150258370Y-118660386D01*
X150241102Y-118663941D01*
X150215147Y-118666359D01*
X150177728Y-118667859D01*
X150126065Y-118668659D01*
X150057381Y-118668979D01*
X149968898Y-118669037D01*
X149949223Y-118669030D01*
X149862198Y-118668764D01*
X149794546Y-118667998D01*
X149743591Y-118666584D01*
X149706659Y-118664372D01*
X149681075Y-118661214D01*
X149664163Y-118656961D01*
X149653249Y-118651463D01*
X149642756Y-118641477D01*
X149629495Y-118610360D01*
X149630678Y-118574472D01*
X149646842Y-118542925D01*
X149649031Y-118540649D01*
X149657719Y-118534381D01*
X149671061Y-118529715D01*
X149692044Y-118526419D01*
X149723655Y-118524260D01*
X149768882Y-118523006D01*
X149830712Y-118522423D01*
X149912131Y-118522281D01*
X150158737Y-118522281D01*
X150158737Y-118364237D01*
X149996298Y-118364237D01*
X149960630Y-118364156D01*
X149904860Y-118363359D01*
X149865722Y-118361354D01*
X149839268Y-118357713D01*
X149821551Y-118352004D01*
X149808621Y-118343799D01*
X149804978Y-118340615D01*
X149786570Y-118309640D01*
X149785936Y-118273304D01*
X149803475Y-118239685D01*
X149803537Y-118239616D01*
X149813208Y-118230990D01*
X149826501Y-118224934D01*
X149847209Y-118221003D01*
X149879120Y-118218748D01*
X149926026Y-118217723D01*
X149991716Y-118217481D01*
X150159863Y-118217481D01*
X150156478Y-118152570D01*
X150153092Y-118087659D01*
X149911015Y-118084606D01*
X149885999Y-118084278D01*
X149804379Y-118082798D01*
X149742060Y-118080414D01*
X149696446Y-118076419D01*
X149664944Y-118070105D01*
X149644959Y-118060766D01*
X149633896Y-118047695D01*
X149629161Y-118030184D01*
X149628159Y-118007527D01*
X149628165Y-118005162D01*
X149629319Y-117985131D01*
X149634116Y-117969338D01*
X149644924Y-117957282D01*
X149664109Y-117948459D01*
X149694037Y-117942367D01*
X149737075Y-117938503D01*
X149795591Y-117936366D01*
X149871949Y-117935452D01*
X149968518Y-117935259D01*
X150258698Y-117935259D01*
X150282095Y-117965003D01*
X151402406Y-117939640D02*
X151378840Y-117953465D01*
X151378840Y-117953465D02*
X151348027Y-117976073D01*
X151348027Y-117976073D02*
X151308370Y-118008530D01*
X151308370Y-118008530D02*
X151258272Y-118051900D01*
X151258272Y-118051900D02*
X151196135Y-118107250D01*
X151196135Y-118107250D02*
X151120364Y-118175643D01*
X151120364Y-118175643D02*
X151033626Y-118254276D01*
X151033626Y-118254276D02*
X150853003Y-118418070D01*
X150853003Y-118418070D02*
X150847359Y-118198221D01*
X150847359Y-118198221D02*
X150845321Y-118122543D01*
X150845321Y-118122543D02*
X150843355Y-118066186D01*
X150843355Y-118066186D02*
X150841026Y-118025898D01*
X150841026Y-118025898D02*
X150837898Y-117998427D01*
X150837898Y-117998427D02*
X150833537Y-117980521D01*
X150833537Y-117980521D02*
X150827508Y-117968929D01*
X150827508Y-117968929D02*
X150819376Y-117960400D01*
X150819376Y-117960400D02*
X150815064Y-117956815D01*
X150815064Y-117956815D02*
X150780533Y-117937862D01*
X150780533Y-117937862D02*
X150747675Y-117940633D01*
X150747675Y-117940633D02*
X150721610Y-117956825D01*
X150721610Y-117956825D02*
X150694959Y-117978391D01*
X150694959Y-117978391D02*
X150691644Y-118293343D01*
X150691644Y-118293343D02*
X150690727Y-118385971D01*
X150690727Y-118385971D02*
X150690260Y-118458736D01*
X150690260Y-118458736D02*
X150690405Y-118514353D01*
X150690405Y-118514353D02*
X150691324Y-118555534D01*
X150691324Y-118555534D02*
X150693179Y-118584995D01*
X150693179Y-118584995D02*
X150696131Y-118605447D01*
X150696131Y-118605447D02*
X150700342Y-118619605D01*
X150700342Y-118619605D02*
X150705974Y-118630183D01*
X150705974Y-118630183D02*
X150712219Y-118638666D01*
X150712219Y-118638666D02*
X150725731Y-118654399D01*
X150725731Y-118654399D02*
X150739175Y-118664828D01*
X150739175Y-118664828D02*
X150754416Y-118668831D01*
X150754416Y-118668831D02*
X150773318Y-118665286D01*
X150773318Y-118665286D02*
X150797747Y-118653071D01*
X150797747Y-118653071D02*
X150829565Y-118631063D01*
X150829565Y-118631063D02*
X150870640Y-118598141D01*
X150870640Y-118598141D02*
X150922834Y-118553183D01*
X150922834Y-118553183D02*
X150988014Y-118495067D01*
X150988014Y-118495067D02*
X151061848Y-118428291D01*
X151061848Y-118428291D02*
X151327137Y-118187650D01*
X151327137Y-118187650D02*
X151332781Y-118406781D01*
X151332781Y-118406781D02*
X151334823Y-118482320D01*
X151334823Y-118482320D02*
X151336794Y-118538546D01*
X151336794Y-118538546D02*
X151339131Y-118578716D01*
X151339131Y-118578716D02*
X151342273Y-118606088D01*
X151342273Y-118606088D02*
X151346656Y-118623920D01*
X151346656Y-118623920D02*
X151352716Y-118635471D01*
X151352716Y-118635471D02*
X151360892Y-118643999D01*
X151360892Y-118643999D02*
X151365076Y-118647474D01*
X151365076Y-118647474D02*
X151402057Y-118666564D01*
X151402057Y-118666564D02*
X151437000Y-118663685D01*
X151437000Y-118663685D02*
X151467428Y-118639292D01*
X151467428Y-118639292D02*
X151474389Y-118629478D01*
X151474389Y-118629478D02*
X151479815Y-118618018D01*
X151479815Y-118618018D02*
X151483895Y-118602160D01*
X151483895Y-118602160D02*
X151486821Y-118579155D01*
X151486821Y-118579155D02*
X151488784Y-118546254D01*
X151488784Y-118546254D02*
X151489975Y-118500708D01*
X151489975Y-118500708D02*
X151490584Y-118439765D01*
X151490584Y-118439765D02*
X151490803Y-118360678D01*
X151490803Y-118360678D02*
X151490826Y-118302148D01*
X151490826Y-118302148D02*
X151490752Y-118210599D01*
X151490752Y-118210599D02*
X151490405Y-118138879D01*
X151490405Y-118138879D02*
X151489593Y-118084237D01*
X151489593Y-118084237D02*
X151488125Y-118043924D01*
X151488125Y-118043924D02*
X151485811Y-118015190D01*
X151485811Y-118015190D02*
X151482459Y-117995285D01*
X151482459Y-117995285D02*
X151477880Y-117981460D01*
X151477880Y-117981460D02*
X151471881Y-117970964D01*
X151471881Y-117970964D02*
X151467428Y-117965003D01*
X151467428Y-117965003D02*
X151456142Y-117950883D01*
X151456142Y-117950883D02*
X151445593Y-117940221D01*
X151445593Y-117940221D02*
X151434185Y-117934084D01*
X151434185Y-117934084D02*
X151420322Y-117933535D01*
X151420322Y-117933535D02*
X151402406Y-117939640D01*
X151402406Y-117939640D02*
X151402406Y-117939640D01*
G36*
X151434185Y-117934084D02*
G01*
X151445593Y-117940221D01*
X151456142Y-117950883D01*
X151467428Y-117965003D01*
X151471881Y-117970964D01*
X151477880Y-117981460D01*
X151482459Y-117995285D01*
X151485811Y-118015190D01*
X151488125Y-118043924D01*
X151489593Y-118084237D01*
X151490405Y-118138879D01*
X151490752Y-118210599D01*
X151490826Y-118302148D01*
X151490803Y-118360678D01*
X151490584Y-118439765D01*
X151489975Y-118500708D01*
X151488784Y-118546254D01*
X151486821Y-118579155D01*
X151483895Y-118602160D01*
X151479815Y-118618018D01*
X151474389Y-118629478D01*
X151467428Y-118639292D01*
X151437000Y-118663685D01*
X151402057Y-118666564D01*
X151365076Y-118647474D01*
X151360892Y-118643999D01*
X151352716Y-118635471D01*
X151346656Y-118623920D01*
X151342273Y-118606088D01*
X151339131Y-118578716D01*
X151336794Y-118538546D01*
X151334823Y-118482320D01*
X151332781Y-118406781D01*
X151327137Y-118187650D01*
X151061848Y-118428291D01*
X150988014Y-118495067D01*
X150922834Y-118553183D01*
X150870640Y-118598141D01*
X150829565Y-118631063D01*
X150797747Y-118653071D01*
X150773318Y-118665286D01*
X150754416Y-118668831D01*
X150739175Y-118664828D01*
X150725731Y-118654399D01*
X150712219Y-118638666D01*
X150705974Y-118630183D01*
X150700342Y-118619605D01*
X150696131Y-118605447D01*
X150693179Y-118584995D01*
X150691324Y-118555534D01*
X150690405Y-118514353D01*
X150690260Y-118458736D01*
X150690727Y-118385971D01*
X150691644Y-118293343D01*
X150694959Y-117978391D01*
X150721610Y-117956825D01*
X150747675Y-117940633D01*
X150780533Y-117937862D01*
X150815064Y-117956815D01*
X150819376Y-117960400D01*
X150827508Y-117968929D01*
X150833537Y-117980521D01*
X150837898Y-117998427D01*
X150841026Y-118025898D01*
X150843355Y-118066186D01*
X150845321Y-118122543D01*
X150847359Y-118198221D01*
X150853003Y-118418070D01*
X151033626Y-118254276D01*
X151120364Y-118175643D01*
X151196135Y-118107250D01*
X151258272Y-118051900D01*
X151308370Y-118008530D01*
X151348027Y-117976073D01*
X151378840Y-117953465D01*
X151402406Y-117939640D01*
X151420322Y-117933535D01*
X151434185Y-117934084D01*
G37*
X151434185Y-117934084D02*
X151445593Y-117940221D01*
X151456142Y-117950883D01*
X151467428Y-117965003D01*
X151471881Y-117970964D01*
X151477880Y-117981460D01*
X151482459Y-117995285D01*
X151485811Y-118015190D01*
X151488125Y-118043924D01*
X151489593Y-118084237D01*
X151490405Y-118138879D01*
X151490752Y-118210599D01*
X151490826Y-118302148D01*
X151490803Y-118360678D01*
X151490584Y-118439765D01*
X151489975Y-118500708D01*
X151488784Y-118546254D01*
X151486821Y-118579155D01*
X151483895Y-118602160D01*
X151479815Y-118618018D01*
X151474389Y-118629478D01*
X151467428Y-118639292D01*
X151437000Y-118663685D01*
X151402057Y-118666564D01*
X151365076Y-118647474D01*
X151360892Y-118643999D01*
X151352716Y-118635471D01*
X151346656Y-118623920D01*
X151342273Y-118606088D01*
X151339131Y-118578716D01*
X151336794Y-118538546D01*
X151334823Y-118482320D01*
X151332781Y-118406781D01*
X151327137Y-118187650D01*
X151061848Y-118428291D01*
X150988014Y-118495067D01*
X150922834Y-118553183D01*
X150870640Y-118598141D01*
X150829565Y-118631063D01*
X150797747Y-118653071D01*
X150773318Y-118665286D01*
X150754416Y-118668831D01*
X150739175Y-118664828D01*
X150725731Y-118654399D01*
X150712219Y-118638666D01*
X150705974Y-118630183D01*
X150700342Y-118619605D01*
X150696131Y-118605447D01*
X150693179Y-118584995D01*
X150691324Y-118555534D01*
X150690405Y-118514353D01*
X150690260Y-118458736D01*
X150690727Y-118385971D01*
X150691644Y-118293343D01*
X150694959Y-117978391D01*
X150721610Y-117956825D01*
X150747675Y-117940633D01*
X150780533Y-117937862D01*
X150815064Y-117956815D01*
X150819376Y-117960400D01*
X150827508Y-117968929D01*
X150833537Y-117980521D01*
X150837898Y-117998427D01*
X150841026Y-118025898D01*
X150843355Y-118066186D01*
X150845321Y-118122543D01*
X150847359Y-118198221D01*
X150853003Y-118418070D01*
X151033626Y-118254276D01*
X151120364Y-118175643D01*
X151196135Y-118107250D01*
X151258272Y-118051900D01*
X151308370Y-118008530D01*
X151348027Y-117976073D01*
X151378840Y-117953465D01*
X151402406Y-117939640D01*
X151420322Y-117933535D01*
X151434185Y-117934084D01*
X152052373Y-117940791D02*
X151983857Y-117952287D01*
X151983857Y-117952287D02*
X151931235Y-117970159D01*
X151931235Y-117970159D02*
X151897000Y-117993691D01*
X151897000Y-117993691D02*
X151887671Y-118007116D01*
X151887671Y-118007116D02*
X151878185Y-118038340D01*
X151878185Y-118038340D02*
X151884569Y-118066587D01*
X151884569Y-118066587D02*
X151904722Y-118093374D01*
X151904722Y-118093374D02*
X151936037Y-118105905D01*
X151936037Y-118105905D02*
X151981475Y-118104888D01*
X151981475Y-118104888D02*
X152016618Y-118098098D01*
X152016618Y-118098098D02*
X152094711Y-118085163D01*
X152094711Y-118085163D02*
X152174518Y-118083934D01*
X152174518Y-118083934D02*
X152263847Y-118094433D01*
X152263847Y-118094433D02*
X152288521Y-118098882D01*
X152288521Y-118098882D02*
X152371583Y-118122300D01*
X152371583Y-118122300D02*
X152436565Y-118157137D01*
X152436565Y-118157137D02*
X152482753Y-118202796D01*
X152482753Y-118202796D02*
X152509437Y-118258686D01*
X152509437Y-118258686D02*
X152514955Y-118287580D01*
X152514955Y-118287580D02*
X152511343Y-118346204D01*
X152511343Y-118346204D02*
X152488021Y-118398071D01*
X152488021Y-118398071D02*
X152447116Y-118442170D01*
X152447116Y-118442170D02*
X152390751Y-118477491D01*
X152390751Y-118477491D02*
X152321052Y-118503021D01*
X152321052Y-118503021D02*
X152240144Y-118517751D01*
X152240144Y-118517751D02*
X152150152Y-118520670D01*
X152150152Y-118520670D02*
X152053202Y-118510767D01*
X152053202Y-118510767D02*
X152047728Y-118509833D01*
X152047728Y-118509833D02*
X152009167Y-118502651D01*
X152009167Y-118502651D02*
X151987786Y-118495713D01*
X151987786Y-118495713D02*
X151978519Y-118485419D01*
X151978519Y-118485419D02*
X151976298Y-118468168D01*
X151976298Y-118468168D02*
X151976248Y-118459033D01*
X151976248Y-118459033D02*
X151976248Y-118420681D01*
X151976248Y-118420681D02*
X152044723Y-118420681D01*
X152044723Y-118420681D02*
X152105192Y-118416539D01*
X152105192Y-118416539D02*
X152146457Y-118403339D01*
X152146457Y-118403339D02*
X152170467Y-118379922D01*
X152170467Y-118379922D02*
X152179169Y-118345128D01*
X152179169Y-118345128D02*
X152179275Y-118340586D01*
X152179275Y-118340586D02*
X152174184Y-118310846D01*
X152174184Y-118310846D02*
X152156725Y-118289611D01*
X152156725Y-118289611D02*
X152124231Y-118275558D01*
X152124231Y-118275558D02*
X152074035Y-118267365D01*
X152074035Y-118267365D02*
X152025415Y-118264353D01*
X152025415Y-118264353D02*
X151954748Y-118262625D01*
X151954748Y-118262625D02*
X151903490Y-118265262D01*
X151903490Y-118265262D02*
X151868531Y-118274992D01*
X151868531Y-118274992D02*
X151846762Y-118294545D01*
X151846762Y-118294545D02*
X151835072Y-118326648D01*
X151835072Y-118326648D02*
X151830352Y-118374030D01*
X151830352Y-118374030D02*
X151829492Y-118436263D01*
X151829492Y-118436263D02*
X151830901Y-118505727D01*
X151830901Y-118505727D02*
X151835140Y-118552978D01*
X151835140Y-118552978D02*
X151842228Y-118578204D01*
X151842228Y-118578204D02*
X151843603Y-118580180D01*
X151843603Y-118580180D02*
X151882520Y-118611700D01*
X151882520Y-118611700D02*
X151939578Y-118636662D01*
X151939578Y-118636662D02*
X152011161Y-118654532D01*
X152011161Y-118654532D02*
X152093650Y-118664778D01*
X152093650Y-118664778D02*
X152183431Y-118666865D01*
X152183431Y-118666865D02*
X152276884Y-118660260D01*
X152276884Y-118660260D02*
X152331848Y-118652148D01*
X152331848Y-118652148D02*
X152418058Y-118627746D01*
X152418058Y-118627746D02*
X152498184Y-118587854D01*
X152498184Y-118587854D02*
X152565269Y-118536079D01*
X152565269Y-118536079D02*
X152575465Y-118525731D01*
X152575465Y-118525731D02*
X152608594Y-118482227D01*
X152608594Y-118482227D02*
X152638486Y-118428310D01*
X152638486Y-118428310D02*
X152661649Y-118371784D01*
X152661649Y-118371784D02*
X152674590Y-118320451D01*
X152674590Y-118320451D02*
X152676150Y-118300736D01*
X152676150Y-118300736D02*
X152669510Y-118259611D01*
X152669510Y-118259611D02*
X152651860Y-118208444D01*
X152651860Y-118208444D02*
X152626589Y-118154586D01*
X152626589Y-118154586D02*
X152597081Y-118105387D01*
X152597081Y-118105387D02*
X152571011Y-118072526D01*
X152571011Y-118072526D02*
X152510057Y-118023644D01*
X152510057Y-118023644D02*
X152431261Y-117984737D01*
X152431261Y-117984737D02*
X152337449Y-117956686D01*
X152337449Y-117956686D02*
X152231442Y-117940371D01*
X152231442Y-117940371D02*
X152134292Y-117936384D01*
X152134292Y-117936384D02*
X152052373Y-117940791D01*
X152052373Y-117940791D02*
X152052373Y-117940791D01*
G36*
X152231442Y-117940371D02*
G01*
X152337449Y-117956686D01*
X152431261Y-117984737D01*
X152510057Y-118023644D01*
X152571011Y-118072526D01*
X152597081Y-118105387D01*
X152626589Y-118154586D01*
X152651860Y-118208444D01*
X152669510Y-118259611D01*
X152676150Y-118300736D01*
X152674590Y-118320451D01*
X152661649Y-118371784D01*
X152638486Y-118428310D01*
X152608594Y-118482227D01*
X152575465Y-118525731D01*
X152565269Y-118536079D01*
X152498184Y-118587854D01*
X152418058Y-118627746D01*
X152331848Y-118652148D01*
X152276884Y-118660260D01*
X152183431Y-118666865D01*
X152093650Y-118664778D01*
X152011161Y-118654532D01*
X151939578Y-118636662D01*
X151882520Y-118611700D01*
X151843603Y-118580180D01*
X151842228Y-118578204D01*
X151835140Y-118552978D01*
X151830901Y-118505727D01*
X151829492Y-118436263D01*
X151830352Y-118374030D01*
X151835072Y-118326648D01*
X151846762Y-118294545D01*
X151868531Y-118274992D01*
X151903490Y-118265262D01*
X151954748Y-118262625D01*
X152025415Y-118264353D01*
X152074035Y-118267365D01*
X152124231Y-118275558D01*
X152156725Y-118289611D01*
X152174184Y-118310846D01*
X152179275Y-118340586D01*
X152179169Y-118345128D01*
X152170467Y-118379922D01*
X152146457Y-118403339D01*
X152105192Y-118416539D01*
X152044723Y-118420681D01*
X151976248Y-118420681D01*
X151976248Y-118459033D01*
X151976298Y-118468168D01*
X151978519Y-118485419D01*
X151987786Y-118495713D01*
X152009167Y-118502651D01*
X152047728Y-118509833D01*
X152053202Y-118510767D01*
X152150152Y-118520670D01*
X152240144Y-118517751D01*
X152321052Y-118503021D01*
X152390751Y-118477491D01*
X152447116Y-118442170D01*
X152488021Y-118398071D01*
X152511343Y-118346204D01*
X152514955Y-118287580D01*
X152509437Y-118258686D01*
X152482753Y-118202796D01*
X152436565Y-118157137D01*
X152371583Y-118122300D01*
X152288521Y-118098882D01*
X152263847Y-118094433D01*
X152174518Y-118083934D01*
X152094711Y-118085163D01*
X152016618Y-118098098D01*
X151981475Y-118104888D01*
X151936037Y-118105905D01*
X151904722Y-118093374D01*
X151884569Y-118066587D01*
X151878185Y-118038340D01*
X151887671Y-118007116D01*
X151897000Y-117993691D01*
X151931235Y-117970159D01*
X151983857Y-117952287D01*
X152052373Y-117940791D01*
X152134292Y-117936384D01*
X152231442Y-117940371D01*
G37*
X152231442Y-117940371D02*
X152337449Y-117956686D01*
X152431261Y-117984737D01*
X152510057Y-118023644D01*
X152571011Y-118072526D01*
X152597081Y-118105387D01*
X152626589Y-118154586D01*
X152651860Y-118208444D01*
X152669510Y-118259611D01*
X152676150Y-118300736D01*
X152674590Y-118320451D01*
X152661649Y-118371784D01*
X152638486Y-118428310D01*
X152608594Y-118482227D01*
X152575465Y-118525731D01*
X152565269Y-118536079D01*
X152498184Y-118587854D01*
X152418058Y-118627746D01*
X152331848Y-118652148D01*
X152276884Y-118660260D01*
X152183431Y-118666865D01*
X152093650Y-118664778D01*
X152011161Y-118654532D01*
X151939578Y-118636662D01*
X151882520Y-118611700D01*
X151843603Y-118580180D01*
X151842228Y-118578204D01*
X151835140Y-118552978D01*
X151830901Y-118505727D01*
X151829492Y-118436263D01*
X151830352Y-118374030D01*
X151835072Y-118326648D01*
X151846762Y-118294545D01*
X151868531Y-118274992D01*
X151903490Y-118265262D01*
X151954748Y-118262625D01*
X152025415Y-118264353D01*
X152074035Y-118267365D01*
X152124231Y-118275558D01*
X152156725Y-118289611D01*
X152174184Y-118310846D01*
X152179275Y-118340586D01*
X152179169Y-118345128D01*
X152170467Y-118379922D01*
X152146457Y-118403339D01*
X152105192Y-118416539D01*
X152044723Y-118420681D01*
X151976248Y-118420681D01*
X151976248Y-118459033D01*
X151976298Y-118468168D01*
X151978519Y-118485419D01*
X151987786Y-118495713D01*
X152009167Y-118502651D01*
X152047728Y-118509833D01*
X152053202Y-118510767D01*
X152150152Y-118520670D01*
X152240144Y-118517751D01*
X152321052Y-118503021D01*
X152390751Y-118477491D01*
X152447116Y-118442170D01*
X152488021Y-118398071D01*
X152511343Y-118346204D01*
X152514955Y-118287580D01*
X152509437Y-118258686D01*
X152482753Y-118202796D01*
X152436565Y-118157137D01*
X152371583Y-118122300D01*
X152288521Y-118098882D01*
X152263847Y-118094433D01*
X152174518Y-118083934D01*
X152094711Y-118085163D01*
X152016618Y-118098098D01*
X151981475Y-118104888D01*
X151936037Y-118105905D01*
X151904722Y-118093374D01*
X151884569Y-118066587D01*
X151878185Y-118038340D01*
X151887671Y-118007116D01*
X151897000Y-117993691D01*
X151931235Y-117970159D01*
X151983857Y-117952287D01*
X152052373Y-117940791D01*
X152134292Y-117936384D01*
X152231442Y-117940371D01*
X153026114Y-117957837D02*
X153019534Y-117965410D01*
X153019534Y-117965410D02*
X153014371Y-117975179D01*
X153014371Y-117975179D02*
X153010456Y-117989763D01*
X153010456Y-117989763D02*
X153007616Y-118011777D01*
X153007616Y-118011777D02*
X153005679Y-118043840D01*
X153005679Y-118043840D02*
X153004475Y-118088567D01*
X153004475Y-118088567D02*
X153003831Y-118148577D01*
X153003831Y-118148577D02*
X153003576Y-118226486D01*
X153003576Y-118226486D02*
X153003537Y-118302148D01*
X153003537Y-118302148D02*
X153003606Y-118395994D01*
X153003606Y-118395994D02*
X153003930Y-118469881D01*
X153003930Y-118469881D02*
X153004678Y-118526424D01*
X153004678Y-118526424D02*
X153006024Y-118568241D01*
X153006024Y-118568241D02*
X153008138Y-118597949D01*
X153008138Y-118597949D02*
X153011192Y-118618165D01*
X153011192Y-118618165D02*
X153015358Y-118631506D01*
X153015358Y-118631506D02*
X153020808Y-118640590D01*
X153020808Y-118640590D02*
X153026114Y-118646459D01*
X153026114Y-118646459D02*
X153059118Y-118666139D01*
X153059118Y-118666139D02*
X153094283Y-118664373D01*
X153094283Y-118664373D02*
X153125747Y-118642909D01*
X153125747Y-118642909D02*
X153132976Y-118634529D01*
X153132976Y-118634529D02*
X153138626Y-118624806D01*
X153138626Y-118624806D02*
X153142891Y-118611053D01*
X153142891Y-118611053D02*
X153145965Y-118590581D01*
X153145965Y-118590581D02*
X153148044Y-118560704D01*
X153148044Y-118560704D02*
X153149322Y-118518733D01*
X153149322Y-118518733D02*
X153149993Y-118461981D01*
X153149993Y-118461981D02*
X153150251Y-118387759D01*
X153150251Y-118387759D02*
X153150292Y-118303729D01*
X153150292Y-118303729D02*
X153150292Y-117990677D01*
X153150292Y-117990677D02*
X153122583Y-117962968D01*
X153122583Y-117962968D02*
X153088429Y-117939655D01*
X153088429Y-117939655D02*
X153055298Y-117938815D01*
X153055298Y-117938815D02*
X153026114Y-117957837D01*
X153026114Y-117957837D02*
X153026114Y-117957837D01*
G36*
X153088429Y-117939655D02*
G01*
X153122583Y-117962968D01*
X153150292Y-117990677D01*
X153150292Y-118303729D01*
X153150251Y-118387759D01*
X153149993Y-118461981D01*
X153149322Y-118518733D01*
X153148044Y-118560704D01*
X153145965Y-118590581D01*
X153142891Y-118611053D01*
X153138626Y-118624806D01*
X153132976Y-118634529D01*
X153125747Y-118642909D01*
X153094283Y-118664373D01*
X153059118Y-118666139D01*
X153026114Y-118646459D01*
X153020808Y-118640590D01*
X153015358Y-118631506D01*
X153011192Y-118618165D01*
X153008138Y-118597949D01*
X153006024Y-118568241D01*
X153004678Y-118526424D01*
X153003930Y-118469881D01*
X153003606Y-118395994D01*
X153003537Y-118302148D01*
X153003576Y-118226486D01*
X153003831Y-118148577D01*
X153004475Y-118088567D01*
X153005679Y-118043840D01*
X153007616Y-118011777D01*
X153010456Y-117989763D01*
X153014371Y-117975179D01*
X153019534Y-117965410D01*
X153026114Y-117957837D01*
X153055298Y-117938815D01*
X153088429Y-117939655D01*
G37*
X153088429Y-117939655D02*
X153122583Y-117962968D01*
X153150292Y-117990677D01*
X153150292Y-118303729D01*
X153150251Y-118387759D01*
X153149993Y-118461981D01*
X153149322Y-118518733D01*
X153148044Y-118560704D01*
X153145965Y-118590581D01*
X153142891Y-118611053D01*
X153138626Y-118624806D01*
X153132976Y-118634529D01*
X153125747Y-118642909D01*
X153094283Y-118664373D01*
X153059118Y-118666139D01*
X153026114Y-118646459D01*
X153020808Y-118640590D01*
X153015358Y-118631506D01*
X153011192Y-118618165D01*
X153008138Y-118597949D01*
X153006024Y-118568241D01*
X153004678Y-118526424D01*
X153003930Y-118469881D01*
X153003606Y-118395994D01*
X153003537Y-118302148D01*
X153003576Y-118226486D01*
X153003831Y-118148577D01*
X153004475Y-118088567D01*
X153005679Y-118043840D01*
X153007616Y-118011777D01*
X153010456Y-117989763D01*
X153014371Y-117975179D01*
X153019534Y-117965410D01*
X153026114Y-117957837D01*
X153055298Y-117938815D01*
X153088429Y-117939655D01*
X153793995Y-117936543D02*
X153719180Y-117941773D01*
X153719180Y-117941773D02*
X153649598Y-117949942D01*
X153649598Y-117949942D02*
X153589294Y-117960742D01*
X153589294Y-117960742D02*
X153542312Y-117973865D01*
X153542312Y-117973865D02*
X153512698Y-117989005D01*
X153512698Y-117989005D02*
X153508152Y-117993461D01*
X153508152Y-117993461D02*
X153492346Y-118028042D01*
X153492346Y-118028042D02*
X153497139Y-118063543D01*
X153497139Y-118063543D02*
X153521656Y-118093917D01*
X153521656Y-118093917D02*
X153522826Y-118094788D01*
X153522826Y-118094788D02*
X153537246Y-118104146D01*
X153537246Y-118104146D02*
X153552300Y-118109068D01*
X153552300Y-118109068D02*
X153573297Y-118109665D01*
X153573297Y-118109665D02*
X153605549Y-118106053D01*
X153605549Y-118106053D02*
X153654365Y-118098346D01*
X153654365Y-118098346D02*
X153658292Y-118097697D01*
X153658292Y-118097697D02*
X153731031Y-118088761D01*
X153731031Y-118088761D02*
X153809509Y-118084353D01*
X153809509Y-118084353D02*
X153888219Y-118084311D01*
X153888219Y-118084311D02*
X153961653Y-118088471D01*
X153961653Y-118088471D02*
X154024303Y-118096671D01*
X154024303Y-118096671D02*
X154070662Y-118108749D01*
X154070662Y-118108749D02*
X154073708Y-118109963D01*
X154073708Y-118109963D02*
X154107340Y-118128807D01*
X154107340Y-118128807D02*
X154119156Y-118147877D01*
X154119156Y-118147877D02*
X154109906Y-118166631D01*
X154109906Y-118166631D02*
X154080339Y-118184529D01*
X154080339Y-118184529D02*
X154031203Y-118201029D01*
X154031203Y-118201029D02*
X153963249Y-118215588D01*
X153963249Y-118215588D02*
X153917937Y-118222598D01*
X153917937Y-118222598D02*
X153823748Y-118236081D01*
X153823748Y-118236081D02*
X153748836Y-118248406D01*
X153748836Y-118248406D02*
X153690009Y-118260641D01*
X153690009Y-118260641D02*
X153644077Y-118273853D01*
X153644077Y-118273853D02*
X153607847Y-118289109D01*
X153607847Y-118289109D02*
X153578130Y-118307477D01*
X153578130Y-118307477D02*
X153551734Y-118330023D01*
X153551734Y-118330023D02*
X153530522Y-118352163D01*
X153530522Y-118352163D02*
X153505357Y-118383011D01*
X153505357Y-118383011D02*
X153492973Y-118409537D01*
X153492973Y-118409537D02*
X153489100Y-118442218D01*
X153489100Y-118442218D02*
X153488959Y-118454187D01*
X153488959Y-118454187D02*
X153491868Y-118493904D01*
X153491868Y-118493904D02*
X153503494Y-118523451D01*
X153503494Y-118523451D02*
X153523615Y-118549678D01*
X153523615Y-118549678D02*
X153564508Y-118589768D01*
X153564508Y-118589768D02*
X153610109Y-118620341D01*
X153610109Y-118620341D02*
X153663805Y-118642395D01*
X153663805Y-118642395D02*
X153728984Y-118656927D01*
X153728984Y-118656927D02*
X153809036Y-118664933D01*
X153809036Y-118664933D02*
X153907349Y-118667410D01*
X153907349Y-118667410D02*
X153923581Y-118667369D01*
X153923581Y-118667369D02*
X153989141Y-118666010D01*
X153989141Y-118666010D02*
X154054158Y-118662922D01*
X154054158Y-118662922D02*
X154111544Y-118658548D01*
X154111544Y-118658548D02*
X154154214Y-118653332D01*
X154154214Y-118653332D02*
X154157664Y-118652733D01*
X154157664Y-118652733D02*
X154200088Y-118642683D01*
X154200088Y-118642683D02*
X154236072Y-118629988D01*
X154236072Y-118629988D02*
X154256442Y-118618382D01*
X154256442Y-118618382D02*
X154275399Y-118587764D01*
X154275399Y-118587764D02*
X154276719Y-118552110D01*
X154276719Y-118552110D02*
X154260377Y-118520336D01*
X154260377Y-118520336D02*
X154256721Y-118516743D01*
X154256721Y-118516743D02*
X154241607Y-118506068D01*
X154241607Y-118506068D02*
X154222707Y-118501468D01*
X154222707Y-118501468D02*
X154193454Y-118502251D01*
X154193454Y-118502251D02*
X154157943Y-118506319D01*
X154157943Y-118506319D02*
X154118262Y-118509954D01*
X154118262Y-118509954D02*
X154062637Y-118513020D01*
X154062637Y-118513020D02*
X153997698Y-118515245D01*
X153997698Y-118515245D02*
X153930077Y-118516356D01*
X153930077Y-118516356D02*
X153912292Y-118516429D01*
X153912292Y-118516429D02*
X153844420Y-118516156D01*
X153844420Y-118516156D02*
X153794746Y-118514838D01*
X153794746Y-118514838D02*
X153758902Y-118512019D01*
X153758902Y-118512019D02*
X153732516Y-118507242D01*
X153732516Y-118507242D02*
X153711218Y-118500049D01*
X153711218Y-118500049D02*
X153698418Y-118494059D01*
X153698418Y-118494059D02*
X153670292Y-118477425D01*
X153670292Y-118477425D02*
X153652360Y-118462360D01*
X153652360Y-118462360D02*
X153649739Y-118458089D01*
X153649739Y-118458089D02*
X153655268Y-118440455D01*
X153655268Y-118440455D02*
X153681552Y-118423384D01*
X153681552Y-118423384D02*
X153726770Y-118407650D01*
X153726770Y-118407650D02*
X153789100Y-118394030D01*
X153789100Y-118394030D02*
X153807463Y-118390996D01*
X153807463Y-118390996D02*
X153903382Y-118375930D01*
X153903382Y-118375930D02*
X153979933Y-118363338D01*
X153979933Y-118363338D02*
X154040072Y-118352303D01*
X154040072Y-118352303D02*
X154086752Y-118341912D01*
X154086752Y-118341912D02*
X154122929Y-118331248D01*
X154122929Y-118331248D02*
X154151557Y-118319397D01*
X154151557Y-118319397D02*
X154175590Y-118305443D01*
X154175590Y-118305443D02*
X154197984Y-118288473D01*
X154197984Y-118288473D02*
X154221694Y-118267570D01*
X154221694Y-118267570D02*
X154229672Y-118260241D01*
X154229672Y-118260241D02*
X154257645Y-118232891D01*
X154257645Y-118232891D02*
X154272452Y-118211221D01*
X154272452Y-118211221D02*
X154278244Y-118186424D01*
X154278244Y-118186424D02*
X154279181Y-118155175D01*
X154279181Y-118155175D02*
X154268867Y-118093897D01*
X154268867Y-118093897D02*
X154238044Y-118041832D01*
X154238044Y-118041832D02*
X154186887Y-117999150D01*
X154186887Y-117999150D02*
X154115575Y-117966017D01*
X154115575Y-117966017D02*
X154064692Y-117951156D01*
X154064692Y-117951156D02*
X154009392Y-117941558D01*
X154009392Y-117941558D02*
X153943145Y-117936128D01*
X153943145Y-117936128D02*
X153869998Y-117934559D01*
X153869998Y-117934559D02*
X153793995Y-117936543D01*
X153793995Y-117936543D02*
X153793995Y-117936543D01*
G36*
X153943145Y-117936128D02*
G01*
X154009392Y-117941558D01*
X154064692Y-117951156D01*
X154115575Y-117966017D01*
X154186887Y-117999150D01*
X154238044Y-118041832D01*
X154268867Y-118093897D01*
X154279181Y-118155175D01*
X154278244Y-118186424D01*
X154272452Y-118211221D01*
X154257645Y-118232891D01*
X154229672Y-118260241D01*
X154221694Y-118267570D01*
X154197984Y-118288473D01*
X154175590Y-118305443D01*
X154151557Y-118319397D01*
X154122929Y-118331248D01*
X154086752Y-118341912D01*
X154040072Y-118352303D01*
X153979933Y-118363338D01*
X153903382Y-118375930D01*
X153807463Y-118390996D01*
X153789100Y-118394030D01*
X153726770Y-118407650D01*
X153681552Y-118423384D01*
X153655268Y-118440455D01*
X153649739Y-118458089D01*
X153652360Y-118462360D01*
X153670292Y-118477425D01*
X153698418Y-118494059D01*
X153711218Y-118500049D01*
X153732516Y-118507242D01*
X153758902Y-118512019D01*
X153794746Y-118514838D01*
X153844420Y-118516156D01*
X153912292Y-118516429D01*
X153930077Y-118516356D01*
X153997698Y-118515245D01*
X154062637Y-118513020D01*
X154118262Y-118509954D01*
X154157943Y-118506319D01*
X154193454Y-118502251D01*
X154222707Y-118501468D01*
X154241607Y-118506068D01*
X154256721Y-118516743D01*
X154260377Y-118520336D01*
X154276719Y-118552110D01*
X154275399Y-118587764D01*
X154256442Y-118618382D01*
X154236072Y-118629988D01*
X154200088Y-118642683D01*
X154157664Y-118652733D01*
X154154214Y-118653332D01*
X154111544Y-118658548D01*
X154054158Y-118662922D01*
X153989141Y-118666010D01*
X153923581Y-118667369D01*
X153907349Y-118667410D01*
X153809036Y-118664933D01*
X153728984Y-118656927D01*
X153663805Y-118642395D01*
X153610109Y-118620341D01*
X153564508Y-118589768D01*
X153523615Y-118549678D01*
X153503494Y-118523451D01*
X153491868Y-118493904D01*
X153488959Y-118454187D01*
X153489100Y-118442218D01*
X153492973Y-118409537D01*
X153505357Y-118383011D01*
X153530522Y-118352163D01*
X153551734Y-118330023D01*
X153578130Y-118307477D01*
X153607847Y-118289109D01*
X153644077Y-118273853D01*
X153690009Y-118260641D01*
X153748836Y-118248406D01*
X153823748Y-118236081D01*
X153917937Y-118222598D01*
X153963249Y-118215588D01*
X154031203Y-118201029D01*
X154080339Y-118184529D01*
X154109906Y-118166631D01*
X154119156Y-118147877D01*
X154107340Y-118128807D01*
X154073708Y-118109963D01*
X154070662Y-118108749D01*
X154024303Y-118096671D01*
X153961653Y-118088471D01*
X153888219Y-118084311D01*
X153809509Y-118084353D01*
X153731031Y-118088761D01*
X153658292Y-118097697D01*
X153654365Y-118098346D01*
X153605549Y-118106053D01*
X153573297Y-118109665D01*
X153552300Y-118109068D01*
X153537246Y-118104146D01*
X153522826Y-118094788D01*
X153521656Y-118093917D01*
X153497139Y-118063543D01*
X153492346Y-118028042D01*
X153508152Y-117993461D01*
X153512698Y-117989005D01*
X153542312Y-117973865D01*
X153589294Y-117960742D01*
X153649598Y-117949942D01*
X153719180Y-117941773D01*
X153793995Y-117936543D01*
X153869998Y-117934559D01*
X153943145Y-117936128D01*
G37*
X153943145Y-117936128D02*
X154009392Y-117941558D01*
X154064692Y-117951156D01*
X154115575Y-117966017D01*
X154186887Y-117999150D01*
X154238044Y-118041832D01*
X154268867Y-118093897D01*
X154279181Y-118155175D01*
X154278244Y-118186424D01*
X154272452Y-118211221D01*
X154257645Y-118232891D01*
X154229672Y-118260241D01*
X154221694Y-118267570D01*
X154197984Y-118288473D01*
X154175590Y-118305443D01*
X154151557Y-118319397D01*
X154122929Y-118331248D01*
X154086752Y-118341912D01*
X154040072Y-118352303D01*
X153979933Y-118363338D01*
X153903382Y-118375930D01*
X153807463Y-118390996D01*
X153789100Y-118394030D01*
X153726770Y-118407650D01*
X153681552Y-118423384D01*
X153655268Y-118440455D01*
X153649739Y-118458089D01*
X153652360Y-118462360D01*
X153670292Y-118477425D01*
X153698418Y-118494059D01*
X153711218Y-118500049D01*
X153732516Y-118507242D01*
X153758902Y-118512019D01*
X153794746Y-118514838D01*
X153844420Y-118516156D01*
X153912292Y-118516429D01*
X153930077Y-118516356D01*
X153997698Y-118515245D01*
X154062637Y-118513020D01*
X154118262Y-118509954D01*
X154157943Y-118506319D01*
X154193454Y-118502251D01*
X154222707Y-118501468D01*
X154241607Y-118506068D01*
X154256721Y-118516743D01*
X154260377Y-118520336D01*
X154276719Y-118552110D01*
X154275399Y-118587764D01*
X154256442Y-118618382D01*
X154236072Y-118629988D01*
X154200088Y-118642683D01*
X154157664Y-118652733D01*
X154154214Y-118653332D01*
X154111544Y-118658548D01*
X154054158Y-118662922D01*
X153989141Y-118666010D01*
X153923581Y-118667369D01*
X153907349Y-118667410D01*
X153809036Y-118664933D01*
X153728984Y-118656927D01*
X153663805Y-118642395D01*
X153610109Y-118620341D01*
X153564508Y-118589768D01*
X153523615Y-118549678D01*
X153503494Y-118523451D01*
X153491868Y-118493904D01*
X153488959Y-118454187D01*
X153489100Y-118442218D01*
X153492973Y-118409537D01*
X153505357Y-118383011D01*
X153530522Y-118352163D01*
X153551734Y-118330023D01*
X153578130Y-118307477D01*
X153607847Y-118289109D01*
X153644077Y-118273853D01*
X153690009Y-118260641D01*
X153748836Y-118248406D01*
X153823748Y-118236081D01*
X153917937Y-118222598D01*
X153963249Y-118215588D01*
X154031203Y-118201029D01*
X154080339Y-118184529D01*
X154109906Y-118166631D01*
X154119156Y-118147877D01*
X154107340Y-118128807D01*
X154073708Y-118109963D01*
X154070662Y-118108749D01*
X154024303Y-118096671D01*
X153961653Y-118088471D01*
X153888219Y-118084311D01*
X153809509Y-118084353D01*
X153731031Y-118088761D01*
X153658292Y-118097697D01*
X153654365Y-118098346D01*
X153605549Y-118106053D01*
X153573297Y-118109665D01*
X153552300Y-118109068D01*
X153537246Y-118104146D01*
X153522826Y-118094788D01*
X153521656Y-118093917D01*
X153497139Y-118063543D01*
X153492346Y-118028042D01*
X153508152Y-117993461D01*
X153512698Y-117989005D01*
X153542312Y-117973865D01*
X153589294Y-117960742D01*
X153649598Y-117949942D01*
X153719180Y-117941773D01*
X153793995Y-117936543D01*
X153869998Y-117934559D01*
X153943145Y-117936128D01*
X154815086Y-117935338D02*
X154745678Y-117935710D01*
X154745678Y-117935710D02*
X154693289Y-117936577D01*
X154693289Y-117936577D02*
X154655139Y-117938138D01*
X154655139Y-117938138D02*
X154628451Y-117940595D01*
X154628451Y-117940595D02*
X154610445Y-117944149D01*
X154610445Y-117944149D02*
X154598341Y-117949002D01*
X154598341Y-117949002D02*
X154589361Y-117955353D01*
X154589361Y-117955353D02*
X154586110Y-117958276D01*
X154586110Y-117958276D02*
X154566335Y-117989334D01*
X154566335Y-117989334D02*
X154562774Y-118025020D01*
X154562774Y-118025020D02*
X154575783Y-118056702D01*
X154575783Y-118056702D02*
X154581798Y-118063105D01*
X154581798Y-118063105D02*
X154591527Y-118069313D01*
X154591527Y-118069313D02*
X154607193Y-118074102D01*
X154607193Y-118074102D02*
X154631700Y-118077706D01*
X154631700Y-118077706D02*
X154667953Y-118080356D01*
X154667953Y-118080356D02*
X154718857Y-118082287D01*
X154718857Y-118082287D02*
X154787318Y-118083731D01*
X154787318Y-118083731D02*
X154849909Y-118084610D01*
X154849909Y-118084610D02*
X155097626Y-118087659D01*
X155097626Y-118087659D02*
X155101011Y-118152570D01*
X155101011Y-118152570D02*
X155104397Y-118217481D01*
X155104397Y-118217481D02*
X154936250Y-118217481D01*
X154936250Y-118217481D02*
X154863251Y-118218111D01*
X154863251Y-118218111D02*
X154809809Y-118220745D01*
X154809809Y-118220745D02*
X154772920Y-118226501D01*
X154772920Y-118226501D02*
X154749580Y-118236496D01*
X154749580Y-118236496D02*
X154736786Y-118251848D01*
X154736786Y-118251848D02*
X154731534Y-118273674D01*
X154731534Y-118273674D02*
X154730737Y-118293930D01*
X154730737Y-118293930D02*
X154733215Y-118318784D01*
X154733215Y-118318784D02*
X154742569Y-118337098D01*
X154742569Y-118337098D02*
X154761675Y-118349829D01*
X154761675Y-118349829D02*
X154793410Y-118357933D01*
X154793410Y-118357933D02*
X154840651Y-118362368D01*
X154840651Y-118362368D02*
X154906275Y-118364091D01*
X154906275Y-118364091D02*
X154942093Y-118364237D01*
X154942093Y-118364237D02*
X155103270Y-118364237D01*
X155103270Y-118364237D02*
X155103270Y-118522281D01*
X155103270Y-118522281D02*
X154854914Y-118522281D01*
X154854914Y-118522281D02*
X154773505Y-118522394D01*
X154773505Y-118522394D02*
X154711634Y-118522904D01*
X154711634Y-118522904D02*
X154666260Y-118524062D01*
X154666260Y-118524062D02*
X154634346Y-118526122D01*
X154634346Y-118526122D02*
X154612851Y-118529338D01*
X154612851Y-118529338D02*
X154598735Y-118533964D01*
X154598735Y-118533964D02*
X154588960Y-118540251D01*
X154588960Y-118540251D02*
X154583981Y-118544859D01*
X154583981Y-118544859D02*
X154566902Y-118571752D01*
X154566902Y-118571752D02*
X154561403Y-118595659D01*
X154561403Y-118595659D02*
X154569255Y-118624859D01*
X154569255Y-118624859D02*
X154583981Y-118646459D01*
X154583981Y-118646459D02*
X154591838Y-118653258D01*
X154591838Y-118653258D02*
X154601980Y-118658538D01*
X154601980Y-118658538D02*
X154617136Y-118662490D01*
X154617136Y-118662490D02*
X154640033Y-118665305D01*
X154640033Y-118665305D02*
X154673401Y-118667174D01*
X154673401Y-118667174D02*
X154719967Y-118668290D01*
X154719967Y-118668290D02*
X154782459Y-118668843D01*
X154782459Y-118668843D02*
X154863606Y-118669025D01*
X154863606Y-118669025D02*
X154905714Y-118669037D01*
X154905714Y-118669037D02*
X154995890Y-118668957D01*
X154995890Y-118668957D02*
X155066216Y-118668590D01*
X155066216Y-118668590D02*
X155119421Y-118667744D01*
X155119421Y-118667744D02*
X155158232Y-118666228D01*
X155158232Y-118666228D02*
X155185379Y-118663851D01*
X155185379Y-118663851D02*
X155203590Y-118660421D01*
X155203590Y-118660421D02*
X155215592Y-118655746D01*
X155215592Y-118655746D02*
X155224114Y-118649636D01*
X155224114Y-118649636D02*
X155227448Y-118646459D01*
X155227448Y-118646459D02*
X155234047Y-118638862D01*
X155234047Y-118638862D02*
X155239219Y-118629062D01*
X155239219Y-118629062D02*
X155243138Y-118614431D01*
X155243138Y-118614431D02*
X155245976Y-118592344D01*
X155245976Y-118592344D02*
X155247907Y-118560174D01*
X155247907Y-118560174D02*
X155249104Y-118515295D01*
X155249104Y-118515295D02*
X155249740Y-118455081D01*
X155249740Y-118455081D02*
X155249989Y-118376905D01*
X155249989Y-118376905D02*
X155250026Y-118304115D01*
X155250026Y-118304115D02*
X155249992Y-118210899D01*
X155249992Y-118210899D02*
X155249757Y-118137623D01*
X155249757Y-118137623D02*
X155249122Y-118081650D01*
X155249122Y-118081650D02*
X155247886Y-118040343D01*
X155247886Y-118040343D02*
X155245848Y-118011064D01*
X155245848Y-118011064D02*
X155242809Y-117991176D01*
X155242809Y-117991176D02*
X155238569Y-117978042D01*
X155238569Y-117978042D02*
X155232927Y-117969024D01*
X155232927Y-117969024D02*
X155225683Y-117961485D01*
X155225683Y-117961485D02*
X155223898Y-117959804D01*
X155223898Y-117959804D02*
X155215237Y-117952364D01*
X155215237Y-117952364D02*
X155205174Y-117946601D01*
X155205174Y-117946601D02*
X155190917Y-117942304D01*
X155190917Y-117942304D02*
X155169675Y-117939256D01*
X155169675Y-117939256D02*
X155138656Y-117937243D01*
X155138656Y-117937243D02*
X155095069Y-117936052D01*
X155095069Y-117936052D02*
X155036123Y-117935467D01*
X155036123Y-117935467D02*
X154959026Y-117935275D01*
X154959026Y-117935275D02*
X154904293Y-117935259D01*
X154904293Y-117935259D02*
X154815086Y-117935338D01*
X154815086Y-117935338D02*
X154815086Y-117935338D01*
G36*
X154959026Y-117935275D02*
G01*
X155036123Y-117935467D01*
X155095069Y-117936052D01*
X155138656Y-117937243D01*
X155169675Y-117939256D01*
X155190917Y-117942304D01*
X155205174Y-117946601D01*
X155215237Y-117952364D01*
X155223898Y-117959804D01*
X155225683Y-117961485D01*
X155232927Y-117969024D01*
X155238569Y-117978042D01*
X155242809Y-117991176D01*
X155245848Y-118011064D01*
X155247886Y-118040343D01*
X155249122Y-118081650D01*
X155249757Y-118137623D01*
X155249992Y-118210899D01*
X155250026Y-118304115D01*
X155249989Y-118376905D01*
X155249740Y-118455081D01*
X155249104Y-118515295D01*
X155247907Y-118560174D01*
X155245976Y-118592344D01*
X155243138Y-118614431D01*
X155239219Y-118629062D01*
X155234047Y-118638862D01*
X155227448Y-118646459D01*
X155224114Y-118649636D01*
X155215592Y-118655746D01*
X155203590Y-118660421D01*
X155185379Y-118663851D01*
X155158232Y-118666228D01*
X155119421Y-118667744D01*
X155066216Y-118668590D01*
X154995890Y-118668957D01*
X154905714Y-118669037D01*
X154863606Y-118669025D01*
X154782459Y-118668843D01*
X154719967Y-118668290D01*
X154673401Y-118667174D01*
X154640033Y-118665305D01*
X154617136Y-118662490D01*
X154601980Y-118658538D01*
X154591838Y-118653258D01*
X154583981Y-118646459D01*
X154569255Y-118624859D01*
X154561403Y-118595659D01*
X154566902Y-118571752D01*
X154583981Y-118544859D01*
X154588960Y-118540251D01*
X154598735Y-118533964D01*
X154612851Y-118529338D01*
X154634346Y-118526122D01*
X154666260Y-118524062D01*
X154711634Y-118522904D01*
X154773505Y-118522394D01*
X154854914Y-118522281D01*
X155103270Y-118522281D01*
X155103270Y-118364237D01*
X154942093Y-118364237D01*
X154906275Y-118364091D01*
X154840651Y-118362368D01*
X154793410Y-118357933D01*
X154761675Y-118349829D01*
X154742569Y-118337098D01*
X154733215Y-118318784D01*
X154730737Y-118293930D01*
X154731534Y-118273674D01*
X154736786Y-118251848D01*
X154749580Y-118236496D01*
X154772920Y-118226501D01*
X154809809Y-118220745D01*
X154863251Y-118218111D01*
X154936250Y-118217481D01*
X155104397Y-118217481D01*
X155101011Y-118152570D01*
X155097626Y-118087659D01*
X154849909Y-118084610D01*
X154787318Y-118083731D01*
X154718857Y-118082287D01*
X154667953Y-118080356D01*
X154631700Y-118077706D01*
X154607193Y-118074102D01*
X154591527Y-118069313D01*
X154581798Y-118063105D01*
X154575783Y-118056702D01*
X154562774Y-118025020D01*
X154566335Y-117989334D01*
X154586110Y-117958276D01*
X154589361Y-117955353D01*
X154598341Y-117949002D01*
X154610445Y-117944149D01*
X154628451Y-117940595D01*
X154655139Y-117938138D01*
X154693289Y-117936577D01*
X154745678Y-117935710D01*
X154815086Y-117935338D01*
X154904293Y-117935259D01*
X154959026Y-117935275D01*
G37*
X154959026Y-117935275D02*
X155036123Y-117935467D01*
X155095069Y-117936052D01*
X155138656Y-117937243D01*
X155169675Y-117939256D01*
X155190917Y-117942304D01*
X155205174Y-117946601D01*
X155215237Y-117952364D01*
X155223898Y-117959804D01*
X155225683Y-117961485D01*
X155232927Y-117969024D01*
X155238569Y-117978042D01*
X155242809Y-117991176D01*
X155245848Y-118011064D01*
X155247886Y-118040343D01*
X155249122Y-118081650D01*
X155249757Y-118137623D01*
X155249992Y-118210899D01*
X155250026Y-118304115D01*
X155249989Y-118376905D01*
X155249740Y-118455081D01*
X155249104Y-118515295D01*
X155247907Y-118560174D01*
X155245976Y-118592344D01*
X155243138Y-118614431D01*
X155239219Y-118629062D01*
X155234047Y-118638862D01*
X155227448Y-118646459D01*
X155224114Y-118649636D01*
X155215592Y-118655746D01*
X155203590Y-118660421D01*
X155185379Y-118663851D01*
X155158232Y-118666228D01*
X155119421Y-118667744D01*
X155066216Y-118668590D01*
X154995890Y-118668957D01*
X154905714Y-118669037D01*
X154863606Y-118669025D01*
X154782459Y-118668843D01*
X154719967Y-118668290D01*
X154673401Y-118667174D01*
X154640033Y-118665305D01*
X154617136Y-118662490D01*
X154601980Y-118658538D01*
X154591838Y-118653258D01*
X154583981Y-118646459D01*
X154569255Y-118624859D01*
X154561403Y-118595659D01*
X154566902Y-118571752D01*
X154583981Y-118544859D01*
X154588960Y-118540251D01*
X154598735Y-118533964D01*
X154612851Y-118529338D01*
X154634346Y-118526122D01*
X154666260Y-118524062D01*
X154711634Y-118522904D01*
X154773505Y-118522394D01*
X154854914Y-118522281D01*
X155103270Y-118522281D01*
X155103270Y-118364237D01*
X154942093Y-118364237D01*
X154906275Y-118364091D01*
X154840651Y-118362368D01*
X154793410Y-118357933D01*
X154761675Y-118349829D01*
X154742569Y-118337098D01*
X154733215Y-118318784D01*
X154730737Y-118293930D01*
X154731534Y-118273674D01*
X154736786Y-118251848D01*
X154749580Y-118236496D01*
X154772920Y-118226501D01*
X154809809Y-118220745D01*
X154863251Y-118218111D01*
X154936250Y-118217481D01*
X155104397Y-118217481D01*
X155101011Y-118152570D01*
X155097626Y-118087659D01*
X154849909Y-118084610D01*
X154787318Y-118083731D01*
X154718857Y-118082287D01*
X154667953Y-118080356D01*
X154631700Y-118077706D01*
X154607193Y-118074102D01*
X154591527Y-118069313D01*
X154581798Y-118063105D01*
X154575783Y-118056702D01*
X154562774Y-118025020D01*
X154566335Y-117989334D01*
X154586110Y-117958276D01*
X154589361Y-117955353D01*
X154598341Y-117949002D01*
X154610445Y-117944149D01*
X154628451Y-117940595D01*
X154655139Y-117938138D01*
X154693289Y-117936577D01*
X154745678Y-117935710D01*
X154815086Y-117935338D01*
X154904293Y-117935259D01*
X154959026Y-117935275D01*
X156223663Y-117935258D02*
X156184181Y-117935659D01*
X156184181Y-117935659D02*
X156068492Y-117938451D01*
X156068492Y-117938451D02*
X155971603Y-117946742D01*
X155971603Y-117946742D02*
X155890211Y-117961424D01*
X155890211Y-117961424D02*
X155821015Y-117983385D01*
X155821015Y-117983385D02*
X155760712Y-118013514D01*
X155760712Y-118013514D02*
X155706000Y-118052702D01*
X155706000Y-118052702D02*
X155686459Y-118069724D01*
X155686459Y-118069724D02*
X155654042Y-118109555D01*
X155654042Y-118109555D02*
X155624812Y-118163605D01*
X155624812Y-118163605D02*
X155602283Y-118223515D01*
X155602283Y-118223515D02*
X155589971Y-118280931D01*
X155589971Y-118280931D02*
X155588692Y-118302148D01*
X155588692Y-118302148D02*
X155596709Y-118360961D01*
X155596709Y-118360961D02*
X155618191Y-118425205D01*
X155618191Y-118425205D02*
X155649291Y-118486013D01*
X155649291Y-118486013D02*
X155686158Y-118534522D01*
X155686158Y-118534522D02*
X155692146Y-118540374D01*
X155692146Y-118540374D02*
X155742871Y-118581513D01*
X155742871Y-118581513D02*
X155798417Y-118613627D01*
X155798417Y-118613627D02*
X155861988Y-118637557D01*
X155861988Y-118637557D02*
X155936786Y-118654145D01*
X155936786Y-118654145D02*
X156026014Y-118664233D01*
X156026014Y-118664233D02*
X156132874Y-118668661D01*
X156132874Y-118668661D02*
X156181820Y-118669037D01*
X156181820Y-118669037D02*
X156244054Y-118668737D01*
X156244054Y-118668737D02*
X156287820Y-118667484D01*
X156287820Y-118667484D02*
X156317223Y-118664746D01*
X156317223Y-118664746D02*
X156336371Y-118659993D01*
X156336371Y-118659993D02*
X156349369Y-118652693D01*
X156349369Y-118652693D02*
X156356337Y-118646459D01*
X156356337Y-118646459D02*
X156362918Y-118638886D01*
X156362918Y-118638886D02*
X156368080Y-118629116D01*
X156368080Y-118629116D02*
X156371995Y-118614532D01*
X156371995Y-118614532D02*
X156374835Y-118592518D01*
X156374835Y-118592518D02*
X156376772Y-118560456D01*
X156376772Y-118560456D02*
X156377976Y-118515728D01*
X156377976Y-118515728D02*
X156378620Y-118455718D01*
X156378620Y-118455718D02*
X156378875Y-118377809D01*
X156378875Y-118377809D02*
X156378914Y-118302148D01*
X156378914Y-118302148D02*
X156379162Y-118201233D01*
X156379162Y-118201233D02*
X156379109Y-118120619D01*
X156379109Y-118120619D02*
X156378149Y-118082014D01*
X156378149Y-118082014D02*
X156232159Y-118082014D01*
X156232159Y-118082014D02*
X156232159Y-118522281D01*
X156232159Y-118522281D02*
X156139026Y-118522196D01*
X156139026Y-118522196D02*
X156082985Y-118520588D01*
X156082985Y-118520588D02*
X156024291Y-118516448D01*
X156024291Y-118516448D02*
X155975320Y-118510656D01*
X155975320Y-118510656D02*
X155973830Y-118510418D01*
X155973830Y-118510418D02*
X155894684Y-118491282D01*
X155894684Y-118491282D02*
X155833294Y-118461479D01*
X155833294Y-118461479D02*
X155786597Y-118419070D01*
X155786597Y-118419070D02*
X155756927Y-118373153D01*
X155756927Y-118373153D02*
X155738645Y-118322218D01*
X155738645Y-118322218D02*
X155740063Y-118274392D01*
X155740063Y-118274392D02*
X155761280Y-118223125D01*
X155761280Y-118223125D02*
X155802781Y-118170091D01*
X155802781Y-118170091D02*
X155860290Y-118130792D01*
X155860290Y-118130792D02*
X155935042Y-118104523D01*
X155935042Y-118104523D02*
X155985000Y-118095227D01*
X155985000Y-118095227D02*
X156041708Y-118088699D01*
X156041708Y-118088699D02*
X156101811Y-118083974D01*
X156101811Y-118083974D02*
X156152931Y-118082009D01*
X156152931Y-118082009D02*
X156155959Y-118082000D01*
X156155959Y-118082000D02*
X156232159Y-118082014D01*
X156232159Y-118082014D02*
X156378149Y-118082014D01*
X156378149Y-118082014D02*
X156377552Y-118058043D01*
X156377552Y-118058043D02*
X156373290Y-118011247D01*
X156373290Y-118011247D02*
X156365122Y-117977970D01*
X156365122Y-117977970D02*
X156351848Y-117955951D01*
X156351848Y-117955951D02*
X156332266Y-117942931D01*
X156332266Y-117942931D02*
X156305175Y-117936649D01*
X156305175Y-117936649D02*
X156269374Y-117934845D01*
X156269374Y-117934845D02*
X156223663Y-117935258D01*
X156223663Y-117935258D02*
X156223663Y-117935258D01*
G36*
X156379162Y-118201233D02*
G01*
X156378914Y-118302148D01*
X156378875Y-118377809D01*
X156378620Y-118455718D01*
X156377976Y-118515728D01*
X156376772Y-118560456D01*
X156374835Y-118592518D01*
X156371995Y-118614532D01*
X156368080Y-118629116D01*
X156362918Y-118638886D01*
X156356337Y-118646459D01*
X156349369Y-118652693D01*
X156336371Y-118659993D01*
X156317223Y-118664746D01*
X156287820Y-118667484D01*
X156244054Y-118668737D01*
X156181820Y-118669037D01*
X156132874Y-118668661D01*
X156026014Y-118664233D01*
X155936786Y-118654145D01*
X155861988Y-118637557D01*
X155798417Y-118613627D01*
X155742871Y-118581513D01*
X155692146Y-118540374D01*
X155686158Y-118534522D01*
X155649291Y-118486013D01*
X155618191Y-118425205D01*
X155596709Y-118360961D01*
X155591428Y-118322218D01*
X155738645Y-118322218D01*
X155756927Y-118373153D01*
X155786597Y-118419070D01*
X155833294Y-118461479D01*
X155894684Y-118491282D01*
X155973830Y-118510418D01*
X155975320Y-118510656D01*
X156024291Y-118516448D01*
X156082985Y-118520588D01*
X156139026Y-118522196D01*
X156232159Y-118522281D01*
X156232159Y-118082014D01*
X156155959Y-118082000D01*
X156152931Y-118082009D01*
X156101811Y-118083974D01*
X156041708Y-118088699D01*
X155985000Y-118095227D01*
X155935042Y-118104523D01*
X155860290Y-118130792D01*
X155802781Y-118170091D01*
X155761280Y-118223125D01*
X155740063Y-118274392D01*
X155738645Y-118322218D01*
X155591428Y-118322218D01*
X155588692Y-118302148D01*
X155589971Y-118280931D01*
X155602283Y-118223515D01*
X155624812Y-118163605D01*
X155654042Y-118109555D01*
X155686459Y-118069724D01*
X155706000Y-118052702D01*
X155760712Y-118013514D01*
X155821015Y-117983385D01*
X155890211Y-117961424D01*
X155971603Y-117946742D01*
X156068492Y-117938451D01*
X156184181Y-117935659D01*
X156223663Y-117935258D01*
X156269374Y-117934845D01*
X156305175Y-117936649D01*
X156332266Y-117942931D01*
X156351848Y-117955951D01*
X156365122Y-117977970D01*
X156373290Y-118011247D01*
X156377552Y-118058043D01*
X156378149Y-118082014D01*
X156379109Y-118120619D01*
X156379162Y-118201233D01*
G37*
X156379162Y-118201233D02*
X156378914Y-118302148D01*
X156378875Y-118377809D01*
X156378620Y-118455718D01*
X156377976Y-118515728D01*
X156376772Y-118560456D01*
X156374835Y-118592518D01*
X156371995Y-118614532D01*
X156368080Y-118629116D01*
X156362918Y-118638886D01*
X156356337Y-118646459D01*
X156349369Y-118652693D01*
X156336371Y-118659993D01*
X156317223Y-118664746D01*
X156287820Y-118667484D01*
X156244054Y-118668737D01*
X156181820Y-118669037D01*
X156132874Y-118668661D01*
X156026014Y-118664233D01*
X155936786Y-118654145D01*
X155861988Y-118637557D01*
X155798417Y-118613627D01*
X155742871Y-118581513D01*
X155692146Y-118540374D01*
X155686158Y-118534522D01*
X155649291Y-118486013D01*
X155618191Y-118425205D01*
X155596709Y-118360961D01*
X155591428Y-118322218D01*
X155738645Y-118322218D01*
X155756927Y-118373153D01*
X155786597Y-118419070D01*
X155833294Y-118461479D01*
X155894684Y-118491282D01*
X155973830Y-118510418D01*
X155975320Y-118510656D01*
X156024291Y-118516448D01*
X156082985Y-118520588D01*
X156139026Y-118522196D01*
X156232159Y-118522281D01*
X156232159Y-118082014D01*
X156155959Y-118082000D01*
X156152931Y-118082009D01*
X156101811Y-118083974D01*
X156041708Y-118088699D01*
X155985000Y-118095227D01*
X155935042Y-118104523D01*
X155860290Y-118130792D01*
X155802781Y-118170091D01*
X155761280Y-118223125D01*
X155740063Y-118274392D01*
X155738645Y-118322218D01*
X155591428Y-118322218D01*
X155588692Y-118302148D01*
X155589971Y-118280931D01*
X155602283Y-118223515D01*
X155624812Y-118163605D01*
X155654042Y-118109555D01*
X155686459Y-118069724D01*
X155706000Y-118052702D01*
X155760712Y-118013514D01*
X155821015Y-117983385D01*
X155890211Y-117961424D01*
X155971603Y-117946742D01*
X156068492Y-117938451D01*
X156184181Y-117935659D01*
X156223663Y-117935258D01*
X156269374Y-117934845D01*
X156305175Y-117936649D01*
X156332266Y-117942931D01*
X156351848Y-117955951D01*
X156365122Y-117977970D01*
X156373290Y-118011247D01*
X156377552Y-118058043D01*
X156378149Y-118082014D01*
X156379109Y-118120619D01*
X156379162Y-118201233D01*
D12*
%TO.C,D1*%
X109180000Y-114300000D02*
G75*
G03*
X109180000Y-114300000I-2500000J0D01*
G01*
X108224830Y-116860000D02*
G75*
G03*
X106679538Y-111310000I-1544830J2560000D01*
G01*
X106680462Y-111310000D02*
G75*
G03*
X105135170Y-116860000I-462J-2990000D01*
G01*
X108225000Y-116860000D02*
X105135000Y-116860000D01*
%TD*%
M02*
